<svg width="30" height="30" viewBox="0 0 30 30" fill="none" xmlns="http://www.w3.org/2000/svg">
<mask id="mask0_175_429" style="mask-type:alpha" maskUnits="userSpaceOnUse" x="0" y="0" width="30" height="30">
<rect width="30" height="30" fill="#D9D9D9"/>
</mask>
<g mask="url(#mask0_175_429)">
<path d="M7.0625 21.8125C8.29167 20.9306 9.55555 20.2483 10.8542 19.7656C12.1528 19.283 13.5347 19.0417 15 19.0417C16.4653 19.0417 17.8507 19.283 19.1563 19.7656C20.4618 20.2483 21.7292 20.9306 22.9583 21.8125C23.8125 20.7778 24.4358 19.6979 24.8281 18.5729C25.2205 17.4479 25.4167 16.2569 25.4167 15C25.4167 12.0625 24.4149 9.59201 22.4115 7.58853C20.408 5.58505 17.9375 4.58331 15 4.58331C12.0625 4.58331 9.59201 5.58505 7.58853 7.58853C5.58505 9.59201 4.58331 12.0625 4.58331 15C4.58331 16.2569 4.78297 17.4479 5.18228 18.5729C5.58159 19.6979 6.20833 20.7778 7.0625 21.8125ZM14.9961 16.0417C13.7834 16.0417 12.7622 15.6254 11.9323 14.793C11.1024 13.9606 10.6875 12.938 10.6875 11.7253C10.6875 10.5126 11.1037 9.49132 11.9362 8.66147C12.7686 7.83159 13.7912 7.41666 15.0039 7.41666C16.2166 7.41666 17.2378 7.83289 18.0677 8.66535C18.8976 9.49778 19.3125 10.5203 19.3125 11.733C19.3125 12.9457 18.8963 13.967 18.0638 14.7969C17.2314 15.6267 16.2088 16.0417 14.9961 16.0417ZM15.0098 27.5C13.288 27.5 11.6667 27.1719 10.1458 26.5156C8.62501 25.8594 7.29861 24.9653 6.16666 23.8333C5.03472 22.7014 4.14063 21.3766 3.48438 19.859C2.82812 18.3414 2.5 16.7199 2.5 14.9945C2.5 13.269 2.82812 11.6493 3.48438 10.1354C4.14063 8.62153 5.03472 7.29862 6.16666 6.16666C7.29861 5.03472 8.62339 4.14063 10.141 3.48438C11.6586 2.82812 13.2801 2.5 15.0055 2.5C16.731 2.5 18.3507 2.82812 19.8646 3.48438C21.3785 4.14063 22.7014 5.03472 23.8333 6.16666C24.9653 7.29862 25.8594 8.62176 26.5156 10.1361C27.1719 11.6504 27.5 13.2685 27.5 14.9903C27.5 16.712 27.1719 18.3333 26.5156 19.8542C25.8594 21.375 24.9653 22.7014 23.8333 23.8333C22.7014 24.9653 21.3782 25.8594 19.8639 26.5156C18.3496 27.1719 16.7315 27.5 15.0098 27.5ZM15 25.4167C16.1319 25.4167 17.2257 25.2518 18.2813 24.9219C19.3368 24.592 20.3542 24.0486 21.3333 23.2917C20.3542 22.5903 19.3333 22.0538 18.2708 21.6823C17.2083 21.3108 16.1181 21.125 15 21.125C13.8819 21.125 12.7917 21.3108 11.7292 21.6823C10.6667 22.0538 9.64582 22.5903 8.66666 23.2917C9.64582 24.0486 10.6632 24.592 11.7188 24.9219C12.7743 25.2518 13.8681 25.4167 15 25.4167ZM15 13.9583C15.6528 13.9583 16.1875 13.75 16.6042 13.3333C17.0209 12.9167 17.2292 12.3819 17.2292 11.7292C17.2292 11.0764 17.0209 10.5417 16.6042 10.125C16.1875 9.70833 15.6528 9.5 15 9.5C14.3472 9.5 13.8125 9.70833 13.3958 10.125C12.9791 10.5417 12.7708 11.0764 12.7708 11.7292C12.7708 12.3819 12.9791 12.9167 13.3958 13.3333C13.8125 13.75 14.3472 13.9583 15 13.9583Z" fill="#FF922D" fill-opacity="0.8"/>
</g>
</svg>
