<svg width="30" height="30" viewBox="0 0 30 30" fill="none" xmlns="http://www.w3.org/2000/svg">
<mask id="mask0_175_411" style="mask-type:alpha" maskUnits="userSpaceOnUse" x="0" y="0" width="30" height="30">
<rect width="30" height="30" fill="#D9D9D9"/>
</mask>
<g mask="url(#mask0_175_411)">
<path d="M15 27.5C14.4444 27.5 13.9514 27.3663 13.5208 27.099C13.0903 26.8316 12.7917 26.4653 12.625 26H12.3333C11.7708 26 11.283 25.7934 10.8698 25.3802C10.4566 24.967 10.25 24.4792 10.25 23.9167V19.4583C8.9236 18.5903 7.87326 17.4688 7.09897 16.0938C6.32466 14.7188 5.9375 13.2083 5.9375 11.5625C5.9375 9.04167 6.81771 6.90104 8.57812 5.14063C10.3385 3.38021 12.4792 2.5 15 2.5C17.5208 2.5 19.6615 3.38021 21.4219 5.14063C23.1823 6.90104 24.0625 9.04167 24.0625 11.5625C24.0625 13.2222 23.6753 14.7361 22.901 16.1042C22.1267 17.4722 21.0764 18.5903 19.75 19.4583V23.9167C19.75 24.4792 19.5434 24.967 19.1302 25.3802C18.717 25.7934 18.2292 26 17.6667 26H17.375C17.2083 26.4653 16.9097 26.8316 16.4792 27.099C16.0486 27.3663 15.5556 27.5 15 27.5ZM12.3333 23.9167H17.6667V22.625H12.3333V23.9167ZM12.3333 21.375H17.6667V20.1458H12.3333V21.375ZM12.0625 18.0625H14.2083V14.0833L11.375 11.25L12.4583 10.1667L15 12.7083L17.5417 10.1667L18.625 11.25L15.7917 14.0833V18.0625H17.9375C19.1458 17.4931 20.1215 16.6233 20.8646 15.4531C21.6077 14.283 21.9792 12.9861 21.9792 11.5625C21.9792 9.60417 21.3056 7.95139 19.9583 6.60416C18.6111 5.25693 16.9583 4.58331 15 4.58331C13.0417 4.58331 11.3889 5.25693 10.0417 6.60416C8.69443 7.95139 8.02081 9.60417 8.02081 11.5625C8.02081 12.9861 8.39234 14.283 9.13541 15.4531C9.87847 16.6233 10.8542 17.4931 12.0625 18.0625Z" fill="#FF922D" fill-opacity="0.8"/>
</g>
</svg>
