<svg width="30" height="30" viewBox="0 0 30 30" fill="none" xmlns="http://www.w3.org/2000/svg">
<mask id="mask0_175_423" style="mask-type:alpha" maskUnits="userSpaceOnUse" x="0" y="0" width="30" height="30">
<rect width="30" height="30" fill="#D9D9D9"/>
</mask>
<g mask="url(#mask0_175_423)">
<path d="M5.83331 29.625C5.27081 29.625 4.78297 29.4184 4.36978 29.0052C3.95659 28.5921 3.75 28.1042 3.75 27.5417V9.20834C3.75 8.64584 3.95659 8.158 4.36978 7.74481C4.78297 7.33162 5.27081 7.12503 5.83331 7.12503H17.9896L15.9063 9.20834H5.83331V27.5417H24.1667V17.3958L26.25 15.3125V27.5417C26.25 28.1042 26.0434 28.5921 25.6302 29.0052C25.217 29.4184 24.7292 29.625 24.1667 29.625H5.83331ZM20.5312 7.53128L22.0208 8.98959L13.3333 17.6563V20.0417H15.6875L24.4063 11.3229L25.875 12.7813L16.5625 22.125H11.25V16.8125L20.5312 7.53128ZM25.875 12.7813L20.5312 7.53128L23.6562 4.40628C24.059 4.00351 24.5525 3.80212 25.1367 3.80212C25.7209 3.80212 26.2135 4.01045 26.6146 4.42709L28.9479 6.79172C29.3438 7.20143 29.5417 7.69081 29.5417 8.25987C29.5417 8.82892 29.3368 9.31174 28.9271 9.70834L25.875 12.7813Z" fill="#FF922D" fill-opacity="0.8"/>
</g>
</svg>
