<svg width="20" height="18" viewBox="0 0 20 18" fill="none" xmlns="http://www.w3.org/2000/svg">
<path d="M17.8125 9C17.8125 9.22378 17.7137 9.43839 17.5379 9.59662C17.3621 9.75485 17.1236 9.84375 16.875 9.84375H3.125C2.87636 9.84375 2.6379 9.75485 2.46209 9.59662C2.28627 9.43839 2.1875 9.22378 2.1875 9C2.1875 8.77622 2.28627 8.56161 2.46209 8.40338C2.6379 8.24514 2.87636 8.15625 3.125 8.15625H16.875C17.1236 8.15625 17.3621 8.24514 17.5379 8.40338C17.7137 8.56161 17.8125 8.77622 17.8125 9ZM3.125 5.34375H16.875C17.1236 5.34375 17.3621 5.25486 17.5379 5.09662C17.7137 4.93839 17.8125 4.72378 17.8125 4.5C17.8125 4.27622 17.7137 4.06161 17.5379 3.90338C17.3621 3.74514 17.1236 3.65625 16.875 3.65625H3.125C2.87636 3.65625 2.6379 3.74514 2.46209 3.90338C2.28627 4.06161 2.1875 4.27622 2.1875 4.5C2.1875 4.72378 2.28627 4.93839 2.46209 5.09662C2.6379 5.25486 2.87636 5.34375 3.125 5.34375ZM16.875 12.6562H3.125C2.87636 12.6562 2.6379 12.7451 2.46209 12.9034C2.28627 13.0616 2.1875 13.2762 2.1875 13.5C2.1875 13.7238 2.28627 13.9384 2.46209 14.0966C2.6379 14.2549 2.87636 14.3438 3.125 14.3438H16.875C17.1236 14.3438 17.3621 14.2549 17.5379 14.0966C17.7137 13.9384 17.8125 13.7238 17.8125 13.5C17.8125 13.2762 17.7137 13.0616 17.5379 12.9034C17.3621 12.7451 17.1236 12.6562 16.875 12.6562Z" fill="black"/>
</svg>
