<svg width="51" height="14" viewBox="0 0 51 14" fill="none" xmlns="http://www.w3.org/2000/svg">
<g style="mix-blend-mode:darken">
<path d="M2.31398 2.22461V1.34961H6.86672V2.22461H2.31398ZM0.495625 4.24805V3.37305H8.24758V4.24805H0.495625ZM1.08352 6.98242C1.08352 6.38997 1.42075 5.92513 2.09523 5.58789C2.76971 5.25065 3.59914 5.08203 4.58352 5.08203C5.55878 5.08203 6.38365 5.25065 7.05812 5.58789C7.7326 5.92513 8.06984 6.39453 8.06984 6.99609C8.06984 7.58854 7.73716 8.05794 7.0718 8.4043C6.40643 8.74154 5.577 8.91016 4.58352 8.91016C3.59003 8.91016 2.75604 8.74154 2.08156 8.4043C1.4162 8.05794 1.08352 7.58398 1.08352 6.98242ZM2.20461 6.98242C2.20461 7.32878 2.43247 7.60221 2.8882 7.80273C3.34393 7.99414 3.90904 8.08984 4.58352 8.08984C5.23065 8.08984 5.78664 7.99414 6.25148 7.80273C6.71633 7.60221 6.94875 7.32878 6.94875 6.98242C6.94875 6.62695 6.72088 6.35807 6.26516 6.17578C5.81854 5.99349 5.25799 5.90234 4.58352 5.90234C3.89992 5.90234 3.33026 5.99805 2.87453 6.18945C2.42792 6.37174 2.20461 6.63607 2.20461 6.98242ZM0.0581245 11.4531V10.5508H1.61672C4.87062 10.5508 7.39992 10.4551 9.20461 10.2637V11.1387C7.20852 11.3483 4.67466 11.4531 1.60305 11.4531H0.0581245ZM4.05031 10.8652V8.54102H5.10305V10.8652H4.05031ZM9.6968 13.2305V0.761719H10.7632V13.2305H9.6968ZM14.408 3.09961C14.408 2.46159 14.7271 1.96029 15.3651 1.5957C16.0031 1.22201 16.8052 1.03516 17.7713 1.03516C18.7284 1.03516 19.5304 1.22201 20.1776 1.5957C20.8247 1.96029 21.1483 2.46159 21.1483 3.09961C21.1483 3.74674 20.8247 4.2526 20.1776 4.61719C19.5396 4.98177 18.7375 5.16406 17.7713 5.16406C16.787 5.16406 15.9803 4.98177 15.3514 4.61719C14.7225 4.2526 14.408 3.74674 14.408 3.09961ZM15.4881 3.09961C15.4881 3.48242 15.7069 3.78776 16.1444 4.01562C16.5819 4.23438 17.1242 4.34375 17.7713 4.34375C18.4185 4.34375 18.9608 4.23438 19.3983 4.01563C19.8449 3.78776 20.0682 3.48242 20.0682 3.09961C20.0682 2.72591 19.8449 2.42513 19.3983 2.19727C18.9517 1.9694 18.4093 1.85547 17.7713 1.85547C17.1515 1.85547 16.6138 1.97396 16.158 2.21094C15.7114 2.4388 15.4881 2.73503 15.4881 3.09961ZM20.1229 8.8418V8.03516H22.912V0.761719H23.951V10.3184H22.912V8.8418H20.1229ZM13.2733 7.10547V6.25781H14.5858C17.4933 6.25781 20.0181 6.10286 22.16 5.79297V6.64062C20.9386 6.82292 19.5441 6.95052 17.9764 7.02344V9.38867H16.9647V7.06445C16.0897 7.0918 15.2922 7.10547 14.5721 7.10547H13.2733ZM15.5155 12.834V9.62109H16.5682V11.918H24.3065V12.834H15.5155ZM26.2013 10.7559C27.7599 9.73503 28.9995 8.51823 29.9201 7.10547C30.8498 5.69271 31.3237 4.30729 31.342 2.94922H26.8166V1.97852H32.4494C32.4494 5.75195 30.6128 8.9056 26.9396 11.4395L26.2013 10.7559ZM35.0744 13.2305V0.761719H36.1271V6.17578H38.2463V7.17383H36.1271V13.2305H35.0744ZM39.8677 4.04297C39.8677 3.19531 40.1776 2.51172 40.7973 1.99219C41.4263 1.46354 42.2238 1.19922 43.1899 1.19922C44.147 1.19922 44.9399 1.46354 45.5688 1.99219C46.2068 2.51172 46.5259 3.19531 46.5259 4.04297C46.5259 4.89974 46.2114 5.58789 45.5825 6.10742C44.9536 6.62695 44.1561 6.88672 43.1899 6.88672C42.2055 6.88672 41.4035 6.62695 40.7837 6.10742C40.173 5.58789 39.8677 4.89974 39.8677 4.04297ZM40.9477 4.04297C40.9477 4.6263 41.1574 5.10482 41.5766 5.47852C42.005 5.85221 42.5428 6.03906 43.1899 6.03906C43.8462 6.03906 44.3839 5.84766 44.8032 5.46484C45.2225 5.08203 45.4321 4.60807 45.4321 4.04297C45.4321 3.47786 45.2179 3.00846 44.7895 2.63477C44.3703 2.25195 43.8371 2.06055 43.1899 2.06055C42.5519 2.06055 42.0187 2.25195 41.5903 2.63477C41.1619 3.01758 40.9477 3.48698 40.9477 4.04297ZM49.0962 7.48828V0.761719H50.1489V7.48828H49.0962ZM41.727 13.0117V8.04883H42.7661V9.45703L49.1235 9.45703V8.04883H50.1626V13.0117H41.727ZM42.7661 12.0957L49.1235 12.0957V10.332L42.7661 10.332V12.0957Z" fill="black"/>
</g>
</svg>
