<svg width="100" height="19" viewBox="0 0 100 19" fill="none" xmlns="http://www.w3.org/2000/svg">
<g style="mix-blend-mode:darken">
<path d="M3.0168 18.2109V12.625H4.85273V16.5898H15.341V18.2109H3.0168ZM12.8605 13.9531V0.671875H14.6965V6.21875H17.177V7.85938H14.6965V13.9531H12.8605ZM0.126171 6.08203C0.126171 4.71484 0.5819 3.60807 1.49336 2.76172C2.40482 1.90234 3.57669 1.47266 5.00898 1.47266C6.42825 1.47266 7.59362 1.90234 8.50508 2.76172C9.42956 3.60807 9.8918 4.71484 9.8918 6.08203C9.8918 7.46224 9.43607 8.57552 8.52461 9.42188C7.61315 10.2682 6.44128 10.6914 5.00898 10.6914C3.56367 10.6914 2.38529 10.2682 1.47383 9.42188C0.57539 8.57552 0.126171 7.46224 0.126171 6.08203ZM2.00117 6.08203C2.00117 6.98047 2.28112 7.72266 2.84101 8.30859C3.40091 8.89453 4.12357 9.1875 5.00898 9.1875C5.90742 9.1875 6.63008 8.89453 7.17695 8.30859C7.73685 7.70964 8.0168 6.96745 8.0168 6.08203C8.0168 5.19661 7.73685 4.46094 7.17695 3.875C6.63008 3.27604 5.90742 2.97656 5.00898 2.97656C4.13659 2.97656 3.41393 3.27604 2.84101 3.875C2.28112 4.47396 2.00117 5.20964 2.00117 6.08203ZM21.857 15.2422C21.857 14.1615 22.4624 13.3151 23.6734 12.7031C24.8843 12.0781 26.4859 11.7656 28.478 11.7656C30.4833 11.7656 32.0978 12.0716 33.3218 12.6836C34.5458 13.2956 35.1577 14.1484 35.1577 15.2422C35.1577 16.3229 34.5392 17.1628 33.3023 17.7617C32.0783 18.3737 30.4702 18.6732 28.478 18.6602C26.4468 18.6471 24.8322 18.3411 23.6343 17.7422C22.4494 17.1562 21.857 16.3229 21.857 15.2422ZM23.8491 15.2422C23.8491 15.8542 24.2528 16.3229 25.0601 16.6484C25.8804 16.9609 27.0197 17.1172 28.478 17.1172C29.8713 17.1172 31.0041 16.9544 31.8765 16.6289C32.7489 16.2904 33.1851 15.8281 33.1851 15.2422C33.1851 14.6172 32.7554 14.1419 31.896 13.8164C31.0497 13.4909 29.9103 13.3281 28.478 13.3281C27.0327 13.3281 25.8999 13.4974 25.0796 13.8359C24.2593 14.1615 23.8491 14.6302 23.8491 15.2422ZM27.4429 6.90234V5.45703H32.9116V3.5625H27.4429V2.11719H32.9116V0.671875H34.7476V11.8242H32.9116V6.90234H27.4429ZM20.3726 10.2812V1.45312H22.2085V8.69922H22.7945C25.2684 8.69922 27.9572 8.53646 30.8609 8.21094V9.71484C27.8791 10.0924 24.676 10.2812 21.2515 10.2812H20.3726ZM50.9901 18.7578V0.671875H52.8455V8.97266H55.7362V10.6914H52.8455V18.7578H50.9901ZM40.5604 3.32812V1.62891H46.9862V3.32812H40.5604ZM38.1385 7.09766V5.41797H48.8221V7.09766H38.1385ZM38.9198 12.4297C38.9198 11.3099 39.369 10.3919 40.2674 9.67578C41.1659 8.95964 42.3247 8.60156 43.744 8.60156C45.1633 8.60156 46.3221 8.95964 47.2205 9.67578C48.132 10.3789 48.5877 11.2969 48.5877 12.4297C48.5877 13.5495 48.132 14.474 47.2205 15.2031C46.3221 15.9193 45.1633 16.2773 43.744 16.2773C42.3247 16.2773 41.1659 15.9193 40.2674 15.2031C39.369 14.474 38.9198 13.5495 38.9198 12.4297ZM40.7948 12.4297C40.7948 13.0938 41.0812 13.6341 41.6541 14.0508C42.2401 14.4544 42.9367 14.6562 43.744 14.6562C44.5383 14.6562 45.2284 14.4544 45.8143 14.0508C46.4002 13.6471 46.6932 13.1068 46.6932 12.4297C46.6932 11.7526 46.4067 11.2122 45.8338 10.8086C45.2609 10.4049 44.5643 10.2031 43.744 10.2031C42.9107 10.2031 42.2075 10.4049 41.6346 10.8086C41.0747 11.2122 40.7948 11.7526 40.7948 12.4297ZM71.3341 18.7578V0.671875H73.1115V18.7578H71.3341ZM64.674 8.91406V7.17578H67.506V1.17969H69.1857V17.957H67.506V8.91406H64.674ZM56.5295 14.9492C59.4201 12.2409 60.8654 8.90755 60.8654 4.94922V1.80469H62.6623V4.87109C62.6623 6.90234 63.0659 8.7513 63.8732 10.418C64.6805 12.0846 65.5789 13.3932 66.5685 14.3438L65.2013 15.3984C64.6154 14.8776 63.9643 14.0443 63.2482 12.8984C62.5451 11.7396 62.0633 10.6784 61.8029 9.71484C61.5425 10.7174 61.0477 11.8112 60.3185 12.9961C59.5893 14.181 58.8211 15.1901 58.0138 16.0234L56.5295 14.9492ZM76.0141 16.8438V15.2227H80.1938V11.2773H82.0102V15.2227H87.772V11.2773H89.5884V15.2227H93.6704V16.8438H76.0141ZM77.9477 6.16016C77.9477 5.23568 78.2667 4.42839 78.9048 3.73828C79.5428 3.04818 80.3826 2.53385 81.4243 2.19531C82.466 1.84375 83.6248 1.66797 84.9009 1.66797C86.841 1.66797 88.4816 2.07161 89.8227 2.87891C91.1769 3.6862 91.854 4.77995 91.854 6.16016C91.854 7.54036 91.1834 8.64062 89.8423 9.46094C88.5011 10.2682 86.854 10.6719 84.9009 10.6719C82.9087 10.6719 81.2485 10.2682 79.9204 9.46094C78.6053 8.64062 77.9477 7.54036 77.9477 6.16016ZM79.979 6.16016C79.979 7.07161 80.4608 7.80078 81.4243 8.34766C82.3878 8.88151 83.5467 9.14844 84.9009 9.14844C86.2941 9.14844 87.4595 8.875 88.397 8.32812C89.3475 7.78125 89.8227 7.05859 89.8227 6.16016C89.8227 5.27474 89.3475 4.55859 88.397 4.01172C87.4464 3.46484 86.2811 3.19141 84.9009 3.19141C83.5727 3.19141 82.4204 3.46484 81.4438 4.01172C80.4673 4.55859 79.979 5.27474 79.979 6.16016ZM96.4754 17V14.4414H99.2098V17H96.4754Z" fill="black"/>
</g>
</svg>
