<svg width="248" height="17" viewBox="0 0 248 17" fill="none" xmlns="http://www.w3.org/2000/svg">
<g style="mix-blend-mode:darken">
<path d="M7.32906 10.5938V9.28125H11.2197V5.375H7.32906V4.07812H11.2197V0.9375H12.7041V15.4062H11.2197V10.5938H7.32906ZM0.797813 7.34375C0.797813 5.67708 1.12073 4.32292 1.76656 3.28125C2.4124 2.22917 3.30302 1.70312 4.43844 1.70312C5.56344 1.70312 6.44886 2.22396 7.09469 3.26562C7.75094 4.30729 8.07906 5.66667 8.07906 7.34375C8.07906 9.01042 7.75615 10.3698 7.11031 11.4219C6.4749 12.4635 5.58427 12.9844 4.43844 12.9844C3.28219 12.9844 2.38636 12.4635 1.75094 11.4219C1.11552 10.3802 0.797813 9.02083 0.797813 7.34375ZM2.29781 7.34375C2.29781 8.59375 2.4749 9.63021 2.82906 10.4531C3.19365 11.2656 3.73011 11.6719 4.43844 11.6719C5.15719 11.6719 5.69365 11.2604 6.04781 10.4375C6.40198 9.61458 6.57906 8.58333 6.57906 7.34375C6.57906 6.08333 6.40198 5.04688 6.04781 4.23438C5.69365 3.42188 5.15719 3.01562 4.43844 3.01562C3.94886 3.01562 3.5374 3.22917 3.20406 3.65625C2.87073 4.07292 2.63636 4.59375 2.50094 5.21875C2.36552 5.84375 2.29781 6.55208 2.29781 7.34375ZM17.7122 12.5469C17.7122 11.6615 18.1914 10.9688 19.1497 10.4688C20.1184 9.96875 21.3997 9.71875 22.9934 9.71875C24.5976 9.71875 25.8841 9.96875 26.8528 10.4688C27.832 10.9583 28.3216 11.651 28.3216 12.5469C28.3216 13.4323 27.8268 14.125 26.8372 14.625C25.858 15.125 24.5768 15.3698 22.9934 15.3594C21.3893 15.349 20.108 15.099 19.1497 14.6094C18.1914 14.1198 17.7122 13.4323 17.7122 12.5469ZM19.2903 12.5469C19.2903 13.0469 19.6132 13.4323 20.2591 13.7031C20.9153 13.9635 21.8268 14.0938 22.9934 14.0938C24.108 14.0938 25.0091 13.9583 25.6966 13.6875C26.3945 13.4062 26.7434 13.026 26.7434 12.5469C26.7434 12.0365 26.4049 11.651 25.7278 11.3906C25.0611 11.1198 24.1497 10.9844 22.9934 10.9844C21.8372 10.9844 20.9309 11.1198 20.2747 11.3906C19.6184 11.6615 19.2903 12.0469 19.2903 12.5469ZM23.3059 5.32812V4.03125H26.5403V0.9375H28.0091V9.73438H26.5403V5.32812H23.3059ZM15.0403 8.28125C15.5716 8.01042 16.0611 7.71354 16.5091 7.39062C16.9674 7.05729 17.4101 6.66667 17.8372 6.21875C18.2747 5.77083 18.6184 5.25521 18.8684 4.67188C19.1289 4.08854 19.2591 3.47396 19.2591 2.82812V1.32812H20.7122V2.79688C20.7122 3.38021 20.832 3.94271 21.0716 4.48438C21.3216 5.01562 21.6497 5.48438 22.0559 5.89062C22.4726 6.29688 22.8841 6.64583 23.2903 6.9375C23.6966 7.22917 24.1236 7.49479 24.5716 7.73438L23.7122 8.73438C23.0768 8.46354 22.3945 8.01562 21.6653 7.39062C20.9466 6.76562 20.3945 6.11979 20.0091 5.45312C19.6549 6.18229 19.082 6.91146 18.2903 7.64062C17.5091 8.35938 16.7226 8.91146 15.9309 9.29688L15.0403 8.28125ZM41.9547 15.4062V0.9375H43.3766V15.4062H41.9547ZM36.5016 7.9375V6.54688H38.9078V1.34375H40.2516V14.7656H38.9078V7.9375H36.5016ZM31.0484 7.34375C31.0484 5.69792 31.3089 4.36979 31.8297 3.35938C32.3505 2.33854 33.1109 1.82812 34.1109 1.82812C35.0901 1.82812 35.8401 2.33333 36.3609 3.34375C36.8922 4.35417 37.1578 5.6875 37.1578 7.34375C37.1578 8.98958 36.8974 10.3229 36.3766 11.3438C35.8557 12.3542 35.1005 12.8594 34.1109 12.8594C33.1005 12.8594 32.3349 12.3542 31.8141 11.3438C31.3036 10.3333 31.0484 9 31.0484 7.34375ZM32.5172 7.34375C32.5172 8.58333 32.6422 9.59375 32.8922 10.375C33.1422 11.1562 33.5484 11.5469 34.1109 11.5469C34.4964 11.5469 34.8089 11.3438 35.0484 10.9375C35.2984 10.5208 35.4651 10.0156 35.5484 9.42188C35.6422 8.81771 35.6891 8.125 35.6891 7.34375C35.6891 4.53125 35.163 3.125 34.1109 3.125C33.8193 3.125 33.5641 3.24479 33.3453 3.48438C33.1266 3.71354 32.9599 4.03646 32.8453 4.45312C32.7307 4.85938 32.6474 5.30208 32.5953 5.78125C32.5432 6.25 32.5172 6.77083 32.5172 7.34375ZM49.6116 12.7031V11.4688H51.3147C54.4709 11.4688 57.4084 11.2865 60.1272 10.9219V12.1406C57.3147 12.5156 54.3616 12.7031 51.2678 12.7031H49.6116ZM60.6116 15.4062V0.9375H62.1116V15.4062H60.6116ZM50.5647 5.29688C50.5647 4.24479 50.9397 3.39583 51.6897 2.75C52.4397 2.09375 53.398 1.76562 54.5647 1.76562C55.7209 1.76562 56.6741 2.09375 57.4241 2.75C58.1845 3.39583 58.5647 4.24479 58.5647 5.29688C58.5647 6.35938 58.1897 7.21354 57.4397 7.85938C56.6897 8.50521 55.7314 8.82812 54.5647 8.82812C53.3876 8.82812 52.4241 8.50521 51.6741 7.85938C50.9345 7.21354 50.5647 6.35938 50.5647 5.29688ZM52.0647 5.29688C52.0647 5.97396 52.2991 6.53646 52.7678 6.98438C53.2366 7.42188 53.8355 7.64062 54.5647 7.64062C55.2939 7.64062 55.8876 7.42188 56.3459 6.98438C56.8147 6.53646 57.0491 5.97396 57.0491 5.29688C57.0491 4.63021 56.8147 4.07292 56.3459 3.625C55.8876 3.17708 55.2939 2.95312 54.5647 2.95312C53.8459 2.95312 53.247 3.18229 52.7678 3.64062C52.2991 4.08854 52.0647 4.64062 52.0647 5.29688ZM67.1509 15.125V11.3594H68.6197V13.875H77.0884V15.125H67.1509ZM75.1509 12.0156V0.9375H76.6197V6.09375H78.6041V7.40625H76.6197V12.0156H75.1509ZM66.6353 2.67188V1.46875H71.9322V2.67188H66.6353ZM64.5884 5.03125V3.85938H73.4947V5.03125H64.5884ZM65.2291 8.15625C65.2291 7.44792 65.6145 6.89583 66.3853 6.5C67.1561 6.09375 68.1145 5.89062 69.2603 5.89062C70.4061 5.89062 71.3645 6.08854 72.1353 6.48438C72.9166 6.88021 73.3072 7.4375 73.3072 8.15625C73.3072 8.86458 72.9166 9.42188 72.1353 9.82812C71.3645 10.2344 70.4061 10.4375 69.2603 10.4375C68.1145 10.4375 67.1561 10.2396 66.3853 9.84375C65.6145 9.4375 65.2291 8.875 65.2291 8.15625ZM66.7603 8.15625C66.7603 8.53125 66.9999 8.82292 67.4791 9.03125C67.9582 9.23958 68.552 9.34375 69.2603 9.34375C69.9478 9.34375 70.5364 9.23958 71.0259 9.03125C71.5155 8.82292 71.7603 8.53125 71.7603 8.15625C71.7603 7.77083 71.5207 7.47917 71.0416 7.28125C70.5728 7.08333 69.9791 6.98438 69.2603 6.98438C68.552 6.98438 67.9582 7.08854 67.4791 7.29688C66.9999 7.49479 66.7603 7.78125 66.7603 8.15625ZM79.7372 16.6875L81.0966 11.9531H83.0184L80.9403 16.6875H79.7372ZM96.0347 10.5938V9.28125H99.9253V5.375H96.0347V4.07812H99.9253V0.9375H101.41V15.4062H99.9253V10.5938H96.0347ZM89.5034 7.34375C89.5034 5.67708 89.8264 4.32292 90.4722 3.28125C91.118 2.22917 92.0086 1.70312 93.1441 1.70312C94.2691 1.70312 95.1545 2.22396 95.8003 3.26562C96.4566 4.30729 96.7847 5.66667 96.7847 7.34375C96.7847 9.01042 96.4618 10.3698 95.8159 11.4219C95.1805 12.4635 94.2899 12.9844 93.1441 12.9844C91.9878 12.9844 91.092 12.4635 90.4566 11.4219C89.8211 10.3802 89.5034 9.02083 89.5034 7.34375ZM91.0034 7.34375C91.0034 8.59375 91.1805 9.63021 91.5347 10.4531C91.8993 11.2656 92.4357 11.6719 93.1441 11.6719C93.8628 11.6719 94.3993 11.2604 94.7534 10.4375C95.1076 9.61458 95.2847 8.58333 95.2847 7.34375C95.2847 6.08333 95.1076 5.04688 94.7534 4.23438C94.3993 3.42188 93.8628 3.01562 93.1441 3.01562C92.6545 3.01562 92.243 3.22917 91.9097 3.65625C91.5764 4.07292 91.342 4.59375 91.2066 5.21875C91.0711 5.84375 91.0034 6.55208 91.0034 7.34375ZM106.418 12.5469C106.418 11.6615 106.897 10.9688 107.855 10.4688C108.824 9.96875 110.105 9.71875 111.699 9.71875C113.303 9.71875 114.59 9.96875 115.558 10.4688C116.538 10.9583 117.027 11.651 117.027 12.5469C117.027 13.4323 116.532 14.125 115.543 14.625C114.564 15.125 113.282 15.3698 111.699 15.3594C110.095 15.349 108.814 15.099 107.855 14.6094C106.897 14.1198 106.418 13.4323 106.418 12.5469ZM107.996 12.5469C107.996 13.0469 108.319 13.4323 108.965 13.7031C109.621 13.9635 110.532 14.0938 111.699 14.0938C112.814 14.0938 113.715 13.9583 114.402 13.6875C115.1 13.4062 115.449 13.026 115.449 12.5469C115.449 12.0365 115.111 11.651 114.433 11.3906C113.767 11.1198 112.855 10.9844 111.699 10.9844C110.543 10.9844 109.637 11.1198 108.98 11.3906C108.324 11.6615 107.996 12.0469 107.996 12.5469ZM112.012 5.32812V4.03125H115.246V0.9375H116.715V9.73438H115.246V5.32812H112.012ZM103.746 8.28125C104.277 8.01042 104.767 7.71354 105.215 7.39062C105.673 7.05729 106.116 6.66667 106.543 6.21875C106.98 5.77083 107.324 5.25521 107.574 4.67188C107.834 4.08854 107.965 3.47396 107.965 2.82812V1.32812H109.418V2.79688C109.418 3.38021 109.538 3.94271 109.777 4.48438C110.027 5.01562 110.355 5.48438 110.762 5.89062C111.178 6.29688 111.59 6.64583 111.996 6.9375C112.402 7.22917 112.829 7.49479 113.277 7.73438L112.418 8.73438C111.782 8.46354 111.1 8.01562 110.371 7.39062C109.652 6.76562 109.1 6.11979 108.715 5.45312C108.361 6.18229 107.788 6.91146 106.996 7.64062C106.215 8.35938 105.428 8.91146 104.637 9.29688L103.746 8.28125ZM121.145 15.1719V11.5469H129.738V10.25H121.051V9.0625H131.192V12.6094H122.613V13.9688H131.567V15.1719H121.145ZM119.067 7.8125V6.625H133.176V7.8125H119.067ZM120.692 3.28125C120.692 2.77083 120.952 2.34375 121.473 2C121.994 1.65625 122.65 1.41146 123.442 1.26562C124.244 1.11979 125.15 1.04688 126.16 1.04688C127.15 1.04688 128.041 1.11979 128.832 1.26562C129.634 1.41146 130.301 1.65625 130.832 2C131.363 2.34375 131.629 2.77083 131.629 3.28125C131.629 3.66667 131.478 4.01042 131.176 4.3125C130.874 4.60417 130.462 4.83333 129.942 5C129.421 5.16667 128.843 5.29167 128.207 5.375C127.572 5.45833 126.889 5.5 126.16 5.5C124.556 5.5 123.244 5.31771 122.223 4.95312C121.202 4.58854 120.692 4.03125 120.692 3.28125ZM122.317 3.28125C122.317 4.01042 123.598 4.375 126.16 4.375C127.244 4.375 128.155 4.29167 128.895 4.125C129.634 3.94792 130.004 3.66667 130.004 3.28125C130.004 2.89583 129.629 2.61458 128.879 2.4375C128.129 2.26042 127.223 2.17188 126.16 2.17188C125.139 2.17188 124.244 2.26042 123.473 2.4375C122.702 2.61458 122.317 2.89583 122.317 3.28125ZM149.395 15.4062V0.9375H150.88V15.4062H149.395ZM138.302 10.3594V9.10938H140.052C143.541 9.10938 146.484 8.94271 148.88 8.60938V9.82812C147.557 10.0156 145.916 10.1615 143.958 10.2656V15.1562H142.489V10.3125C141.708 10.3438 140.89 10.3594 140.036 10.3594H138.302ZM139.411 4.35938C139.411 3.44271 139.781 2.70833 140.52 2.15625C141.26 1.60417 142.203 1.32812 143.348 1.32812C144.484 1.32812 145.427 1.60417 146.177 2.15625C146.927 2.70833 147.302 3.44271 147.302 4.35938C147.302 5.28646 146.927 6.02604 146.177 6.57812C145.427 7.13021 144.484 7.40625 143.348 7.40625C142.192 7.40625 141.244 7.13021 140.505 6.57812C139.776 6.02604 139.411 5.28646 139.411 4.35938ZM140.911 4.35938C140.911 4.91146 141.14 5.36458 141.598 5.71875C142.067 6.07292 142.651 6.25 143.348 6.25C144.057 6.25 144.64 6.07292 145.098 5.71875C145.567 5.36458 145.802 4.91146 145.802 4.35938C145.802 3.81771 145.567 3.36979 145.098 3.01562C144.63 2.65104 144.046 2.46875 143.348 2.46875C142.661 2.46875 142.083 2.65104 141.614 3.01562C141.145 3.38021 140.911 3.82812 140.911 4.35938ZM155.857 15.125V11.3594H157.325V13.875H165.794V15.125H155.857ZM163.857 12.0156V0.9375H165.325V6.09375H167.31V7.40625H165.325V12.0156H163.857ZM155.341 2.67188V1.46875H160.638V2.67188H155.341ZM153.294 5.03125V3.85938H162.2V5.03125H153.294ZM153.935 8.15625C153.935 7.44792 154.32 6.89583 155.091 6.5C155.862 6.09375 156.82 5.89062 157.966 5.89062C159.112 5.89062 160.07 6.08854 160.841 6.48438C161.622 6.88021 162.013 7.4375 162.013 8.15625C162.013 8.86458 161.622 9.42188 160.841 9.82812C160.07 10.2344 159.112 10.4375 157.966 10.4375C156.82 10.4375 155.862 10.2396 155.091 9.84375C154.32 9.4375 153.935 8.875 153.935 8.15625ZM155.466 8.15625C155.466 8.53125 155.706 8.82292 156.185 9.03125C156.664 9.23958 157.258 9.34375 157.966 9.34375C158.653 9.34375 159.242 9.23958 159.732 9.03125C160.221 8.82292 160.466 8.53125 160.466 8.15625C160.466 7.77083 160.226 7.47917 159.747 7.28125C159.278 7.08333 158.685 6.98438 157.966 6.98438C157.258 6.98438 156.664 7.08854 156.185 7.29688C155.706 7.49479 155.466 7.78125 155.466 8.15625ZM174.779 14.9688V10.5H176.248V13.6719H184.638V14.9688H174.779ZM182.654 11.5625V0.9375H184.123V5.375H186.107V6.6875H184.123V11.5625H182.654ZM172.467 5.26562C172.467 4.17188 172.831 3.28646 173.56 2.60938C174.289 1.92188 175.227 1.57812 176.373 1.57812C177.508 1.57812 178.441 1.92188 179.17 2.60938C179.909 3.28646 180.279 4.17188 180.279 5.26562C180.279 6.36979 179.914 7.26042 179.185 7.9375C178.456 8.61458 177.519 8.95312 176.373 8.95312C175.217 8.95312 174.274 8.61458 173.545 7.9375C172.826 7.26042 172.467 6.36979 172.467 5.26562ZM173.967 5.26562C173.967 5.98438 174.191 6.57812 174.638 7.04688C175.086 7.51562 175.664 7.75 176.373 7.75C177.092 7.75 177.67 7.51562 178.107 7.04688C178.555 6.56771 178.779 5.97396 178.779 5.26562C178.779 4.55729 178.555 3.96875 178.107 3.5C177.67 3.02083 177.092 2.78125 176.373 2.78125C175.675 2.78125 175.097 3.02083 174.638 3.5C174.191 3.97917 173.967 4.56771 173.967 5.26562ZM190.162 15.1719V9.71875H200.1V15.1719H190.162ZM191.631 13.875H198.647V11.0156H191.631V13.875ZM198.631 8.95312V0.9375H200.1V8.95312H198.631ZM187.209 7.625C187.74 7.375 188.24 7.08333 188.709 6.75C189.188 6.41667 189.647 6.03125 190.084 5.59375C190.532 5.15625 190.886 4.66146 191.147 4.10938C191.417 3.55729 191.553 2.99479 191.553 2.42188V1.32812H193.006V2.40625C193.006 2.86458 193.105 3.32292 193.303 3.78125C193.501 4.22917 193.74 4.625 194.022 4.96875C194.313 5.30208 194.652 5.63021 195.037 5.95312C195.433 6.26562 195.792 6.52083 196.115 6.71875C196.449 6.91667 196.782 7.09375 197.115 7.25L196.272 8.26562C195.636 7.98438 194.912 7.52083 194.1 6.875C193.298 6.21875 192.699 5.55208 192.303 4.875C191.928 5.58333 191.334 6.28646 190.522 6.98438C189.709 7.68229 188.902 8.23438 188.1 8.64062L187.209 7.625ZM210.092 7.53125V6.14062H213.686V0.9375H215.155V15.4062H213.686V7.53125H210.092ZM202.264 12.4531C202.795 12.0469 203.28 11.599 203.717 11.1094C204.165 10.6094 204.603 10.0208 205.03 9.34375C205.467 8.66667 205.806 7.88542 206.045 7C206.295 6.10417 206.42 5.15625 206.42 4.15625V1.73438H207.858V4.10938C207.858 5.01562 207.972 5.89583 208.202 6.75C208.441 7.60417 208.754 8.36458 209.139 9.03125C209.535 9.6875 209.941 10.2656 210.358 10.7656C210.785 11.2552 211.222 11.6719 211.67 12.0156L210.623 12.9375C210.009 12.4896 209.337 11.7604 208.608 10.75C207.889 9.73958 207.405 8.79688 207.155 7.92188C206.905 8.83854 206.41 9.8125 205.67 10.8438C204.941 11.8646 204.191 12.7083 203.42 13.375L202.264 12.4531ZM228.96 15.4062V0.9375H230.444V15.4062H228.96ZM218.975 12.625V1.95312H220.413V5.8125H224.46V1.95312H225.897V12.625H218.975ZM220.413 11.2969H224.46V7.17188H220.413V11.2969ZM232.921 13.6562V12.3906H247.046V13.6562H232.921ZM233.733 8.46875C234.567 8.125 235.39 7.66667 236.202 7.09375C237.015 6.52083 237.728 5.82292 238.343 5C238.968 4.16667 239.28 3.35417 239.28 2.5625V1.8125H240.749V2.5625C240.749 3.16667 240.931 3.78646 241.296 4.42188C241.671 5.04688 242.145 5.61458 242.718 6.125C243.291 6.63542 243.884 7.08854 244.499 7.48438C245.114 7.88021 245.707 8.19792 246.28 8.4375L245.452 9.51562C244.463 9.09896 243.421 8.45312 242.327 7.57812C241.244 6.70312 240.473 5.8125 240.015 4.90625C239.577 5.80208 238.827 6.68229 237.765 7.54688C236.702 8.41146 235.634 9.07812 234.562 9.54688L233.733 8.46875Z" fill="black"/>
</g>
</svg>
