<svg width="31" height="34" viewBox="0 0 31 34" fill="none" xmlns="http://www.w3.org/2000/svg">
<path d="M21.9583 17V4.25004C21.9583 3.87432 21.8222 3.51398 21.5799 3.24831C21.3377 2.98263 21.0092 2.83337 20.6666 2.83337H3.87492C3.53235 2.83337 3.20381 2.98263 2.96157 3.24831C2.71934 3.51398 2.58325 3.87432 2.58325 4.25004V24.0834L7.74992 18.4167H20.6666C21.0092 18.4167 21.3377 18.2675 21.5799 18.0018C21.8222 17.7361 21.9583 17.3758 21.9583 17ZM27.1249 8.50004H24.5416V21.25H7.74992V24.0834C7.74992 24.4591 7.886 24.8194 8.12824 25.0851C8.37047 25.3508 8.69901 25.5 9.04158 25.5H23.2499L28.4166 31.1667V9.91671C28.4166 9.54098 28.2805 9.18065 28.0383 8.91497C27.796 8.6493 27.4675 8.50004 27.1249 8.50004Z" fill="#FE9738"/>
</svg>
