<svg width="187" height="14" viewBox="0 0 187 14" fill="none" xmlns="http://www.w3.org/2000/svg">
<g style="mix-blend-mode:darken">
<path d="M6.57481 9.07422V7.51562H9.70567V4.48047H6.57481V2.92188H9.70567V0.201172H11.4967V13.2441H9.70567V9.07422H6.57481ZM0.600197 6.01172C0.600197 4.48047 0.891864 3.24089 1.4752 2.29297C2.06764 1.33594 2.89251 0.857422 3.94981 0.857422C4.99798 0.857422 5.8183 1.33594 6.41074 2.29297C7.00319 3.24089 7.29942 4.48047 7.29942 6.01172C7.29942 7.5612 7.00319 8.8099 6.41074 9.75781C5.82741 10.6966 5.0071 11.166 3.94981 11.166C2.89251 11.166 2.06764 10.6921 1.4752 9.74414C0.891864 8.79622 0.600197 7.55208 0.600197 6.01172ZM2.36387 6.01172C2.36387 7.06901 2.49147 7.93034 2.74668 8.5957C3.011 9.26107 3.41205 9.59375 3.94981 9.59375C4.49668 9.59375 4.89772 9.26107 5.15293 8.5957C5.40814 7.93034 5.53574 7.06901 5.53574 6.01172C5.53574 5.32812 5.48561 4.73112 5.38535 4.2207C5.29421 3.70117 5.12559 3.27279 4.87949 2.93555C4.6334 2.59831 4.3235 2.42969 3.94981 2.42969C3.39382 2.42969 2.98822 2.76237 2.73301 3.42773C2.48692 4.0931 2.36387 4.95443 2.36387 6.01172ZM21.1298 6.70898V5.06836H23.331V0.201172H25.122V13.2441H23.331V6.70898H21.1298ZM14.5536 10.9609V5.31445H18.9286V2.70312H14.4989V1.21289H20.5966V6.77734H16.2216V9.4707H16.5771C18.1448 9.4707 19.8447 9.36589 21.6767 9.15625V10.5508C20.592 10.6875 19.3844 10.7923 18.0536 10.8652C16.732 10.929 15.7522 10.9609 15.1142 10.9609H14.5536ZM28.9309 12.9297V9.33398H30.6672V11.4531H38.3235V12.9297H28.9309ZM27.1125 8.43164V6.90039H39.7727V8.43164H34.6184V10.4961H32.8684V8.43164H27.1125ZM28.9036 5.76562V0.392578H30.6262V1.75977H36.3V0.392578H38.0364V5.76562H28.9036ZM30.6262 4.37109H36.3V3.05859H30.6262V4.37109ZM41.066 10.9062V9.42969H42.5152C45.3134 9.42969 47.9293 9.26562 50.3629 8.9375V10.4004C47.9384 10.7376 45.3043 10.9062 42.4605 10.9062H41.066ZM50.6773 13.2441V0.201172H52.4683V13.2441H50.6773ZM41.8043 4.15234C41.8043 3.16797 42.1506 2.375 42.8433 1.77344C43.536 1.17188 44.4201 0.871094 45.4957 0.871094C46.5712 0.871094 47.4553 1.17188 48.148 1.77344C48.8407 2.375 49.1871 3.16797 49.1871 4.15234C49.1871 5.14583 48.8407 5.94336 48.148 6.54492C47.4553 7.13737 46.5712 7.43359 45.4957 7.43359C44.411 7.43359 43.5224 7.13737 42.8297 6.54492C42.1461 5.94336 41.8043 5.14583 41.8043 4.15234ZM43.5816 4.15234C43.5816 4.70833 43.7593 5.16406 44.1148 5.51953C44.4703 5.86589 44.9306 6.03906 45.4957 6.03906C46.0608 6.03906 46.5165 5.86589 46.8629 5.51953C47.2183 5.16406 47.3961 4.70833 47.3961 4.15234C47.3961 3.59635 47.2183 3.14518 46.8629 2.79883C46.5165 2.44336 46.0608 2.26562 45.4957 2.26562C44.9306 2.26562 44.4703 2.44336 44.1148 2.79883C43.7593 3.1543 43.5816 3.60547 43.5816 4.15234ZM66.4162 13.2441V0.201172H68.1936V5.45117H70.2443V7.16016H68.1936V13.2441H66.4162ZM57.0236 10.3594C57.4611 10.0039 57.8713 9.59375 58.2541 9.12891C58.646 8.65495 59.0197 8.10807 59.3752 7.48828C59.7307 6.85938 60.0132 6.14844 60.2229 5.35547C60.4325 4.55339 60.5373 3.72396 60.5373 2.86719V0.925781H62.2873V2.82617C62.2873 3.64648 62.3967 4.45312 62.6154 5.24609C62.8342 6.02995 63.1213 6.72721 63.4768 7.33789C63.8413 7.93945 64.1968 8.45898 64.5432 8.89648C64.8895 9.32487 65.2404 9.69857 65.5959 10.0176L64.3107 11.0977C63.8277 10.6602 63.2854 10.013 62.6838 9.15625C62.0913 8.29036 61.6812 7.4974 61.4533 6.77734C61.2437 7.55208 60.8381 8.38151 60.2365 9.26562C59.6441 10.1497 59.0334 10.8743 58.4045 11.4395L57.0236 10.3594ZM71.0728 11.7539V10.209H75.5025V5.58789H77.2935V10.209H83.7466V11.7539H71.0728ZM72.7134 2.85352V1.29492H82.2974C82.2974 3.80143 82.0467 6.23047 81.5454 8.58203H79.8091C80.037 7.59766 80.2193 6.56771 80.356 5.49219C80.4927 4.41667 80.5611 3.53711 80.5611 2.85352H72.7134ZM86.4891 13.0664V9.97656H93.9539V9.2793H86.4344V7.99414H95.6766V11.0566H88.2254V11.7949H95.95V13.0664H86.4891ZM84.7118 7.2832V6.01172H97.3719V7.2832H84.7118ZM86.4618 5.31445V2.29297H93.9266V1.62305H86.3797V0.365234H95.6903V3.35938H88.1981V4.05664H95.8817V5.31445H86.4618ZM104.142 12.8887V8.5H105.878V11.3438H113.439V12.8887H104.142ZM111.32 9.44336V0.201172H113.083V9.44336H111.32ZM101.339 6.99609C101.786 6.74089 102.21 6.45378 102.611 6.13477C103.012 5.81576 103.399 5.44206 103.773 5.01367C104.156 4.58529 104.457 4.09766 104.675 3.55078C104.903 2.99479 105.017 2.42057 105.017 1.82812V0.652344H106.753V1.80078C106.753 2.36589 106.872 2.92188 107.109 3.46875C107.346 4.00651 107.656 4.48503 108.039 4.9043C108.421 5.31445 108.791 5.66536 109.146 5.95703C109.511 6.23958 109.875 6.48568 110.24 6.69531L109.173 7.85742C108.645 7.57487 108.043 7.1237 107.369 6.50391C106.703 5.875 106.216 5.26432 105.906 4.67188C105.587 5.31901 105.095 5.96615 104.429 6.61328C103.773 7.2513 103.117 7.76172 102.46 8.14453L101.339 6.99609ZM115.047 11.7539V10.209H119.476V5.58789H121.267V10.209H127.721V11.7539H115.047ZM116.687 2.85352V1.29492H126.271C126.271 3.80143 126.021 6.23047 125.519 8.58203H123.783C124.011 7.59766 124.193 6.56771 124.33 5.49219C124.467 4.41667 124.535 3.53711 124.535 2.85352H116.687ZM136.192 12.6699V0.529297H137.75V5.58789H138.899V0.201172H140.553V13.2441H138.899V7.26953H137.75V12.6699H136.192ZM130.422 2.49805V0.966797H134.428V2.49805H130.422ZM129.027 5.13672V3.61914H135.549V5.13672H129.027ZM129.369 8.63672C129.369 7.81641 129.652 7.1556 130.217 6.6543C130.791 6.15299 131.516 5.90234 132.391 5.90234C133.275 5.90234 133.999 6.15299 134.565 6.6543C135.139 7.1556 135.426 7.81641 135.426 8.63672C135.426 9.44792 135.139 10.1042 134.565 10.6055C133.999 11.1068 133.275 11.3574 132.391 11.3574C131.516 11.3574 130.791 11.1068 130.217 10.6055C129.652 10.1042 129.369 9.44792 129.369 8.63672ZM131.065 8.63672C131.065 9.01953 131.188 9.32943 131.434 9.56641C131.689 9.79427 132.008 9.9082 132.391 9.9082C132.755 9.9082 133.07 9.79427 133.334 9.56641C133.598 9.32943 133.731 9.01953 133.731 8.63672C133.731 8.24479 133.603 7.9349 133.348 7.70703C133.093 7.47917 132.774 7.36523 132.391 7.36523C132.008 7.36523 131.689 7.47917 131.434 7.70703C131.188 7.9349 131.065 8.24479 131.065 8.63672ZM142.297 9.08789V7.57031H154.971V9.08789H149.543V13.2578H147.78V9.08789H142.297ZM143.104 5.58789C143.551 5.47852 144.006 5.33724 144.471 5.16406C144.945 4.99089 145.414 4.78581 145.879 4.54883C146.353 4.30273 146.754 4.01562 147.082 3.6875C147.411 3.35026 147.607 3.00391 147.67 2.64844V2.16992H144.006V0.693359H153.344V2.16992H149.748V2.64844C149.794 2.99479 149.972 3.33203 150.282 3.66016C150.601 3.98828 150.988 4.27539 151.444 4.52148C151.909 4.76758 152.378 4.98177 152.852 5.16406C153.335 5.33724 153.809 5.47852 154.274 5.58789L153.508 6.81836C152.542 6.59961 151.612 6.25781 150.719 5.79297C149.826 5.31901 149.151 4.80859 148.696 4.26172C148.286 4.77214 147.62 5.27344 146.7 5.76562C145.779 6.2487 144.84 6.60872 143.883 6.8457L143.104 5.58789ZM166.04 13.2441V0.201172H167.721V13.2441H166.04ZM161.46 6.38086V4.71289H163.264V0.556641H164.864V12.6699H163.264V6.38086H161.46ZM155.663 10.4688C157.568 8.5638 158.52 6.20768 158.52 3.40039V1.02148H160.243V3.31836C160.243 4.69466 160.507 6.00716 161.036 7.25586C161.574 8.49544 162.162 9.4388 162.8 10.0859L161.473 11.0566C161.118 10.6921 160.731 10.1452 160.311 9.41602C159.892 8.68685 159.591 8.02148 159.409 7.41992C159.227 8.04883 158.908 8.75065 158.452 9.52539C158.005 10.291 157.545 10.929 157.071 11.4395L155.663 10.4688ZM169.548 11.959V10.4141H172.405V7.81641H174.155V10.4141H177.683V7.81641H179.419V10.4141H182.222V11.959H169.548ZM170.819 4.17969C170.819 3.48698 171.056 2.88542 171.53 2.375C172.004 1.85547 172.62 1.47266 173.376 1.22656C174.142 0.971354 174.989 0.84375 175.919 0.84375C176.84 0.84375 177.678 0.971354 178.435 1.22656C179.2 1.47266 179.82 1.85547 180.294 2.375C180.777 2.88542 181.019 3.48698 181.019 4.17969C181.019 4.8724 180.777 5.47852 180.294 5.99805C179.82 6.51758 179.2 6.90495 178.435 7.16016C177.678 7.40625 176.84 7.5293 175.919 7.5293C174.98 7.5293 174.128 7.40169 173.362 7.14648C172.606 6.89128 171.991 6.50846 171.517 5.99805C171.052 5.47852 170.819 4.8724 170.819 4.17969ZM172.747 4.17969C172.747 4.78125 173.053 5.25521 173.663 5.60156C174.274 5.94792 175.026 6.12109 175.919 6.12109C176.821 6.12109 177.573 5.94792 178.175 5.60156C178.786 5.24609 179.091 4.77214 179.091 4.17969C179.091 3.58724 178.786 3.1224 178.175 2.78516C177.573 2.4388 176.821 2.26562 175.919 2.26562C175.035 2.26562 174.283 2.4388 173.663 2.78516C173.053 3.1224 172.747 3.58724 172.747 4.17969ZM184.021 12V9.89453H186.318V12H184.021Z" fill="black"/>
</g>
</svg>
