<svg width="276" height="33" viewBox="0 0 276 33" fill="none" xmlns="http://www.w3.org/2000/svg">
<g style="mix-blend-mode:darken">
<path d="M0.230469 5.07812C0.230469 3.85938 0.464844 2.86719 0.933594 2.10156C1.41016 1.32812 2.0625 0.941406 2.89062 0.941406C3.71094 0.941406 4.35938 1.32422 4.83594 2.08984C5.32031 2.85547 5.5625 3.85156 5.5625 5.07812C5.5625 6.29688 5.32422 7.29297 4.84766 8.06641C4.37891 8.83984 3.72656 9.22656 2.89062 9.22656C2.04688 9.22656 1.39062 8.83984 0.921875 8.06641C0.460938 7.29297 0.230469 6.29688 0.230469 5.07812ZM1.15625 5.07812C1.15625 6.03906 1.30078 6.83594 1.58984 7.46875C1.88672 8.09375 2.32031 8.40625 2.89062 8.40625C3.46094 8.40625 3.89062 8.08594 4.17969 7.44531C4.47656 6.80469 4.625 6.01562 4.625 5.07812C4.625 4.125 4.47656 3.33203 4.17969 2.69922C3.89062 2.06641 3.46094 1.75 2.89062 1.75C2.5 1.75 2.16797 1.91406 1.89453 2.24219C1.62891 2.57031 1.4375 2.97656 1.32031 3.46094C1.21094 3.94531 1.15625 4.48438 1.15625 5.07812ZM5.01172 7.42188V6.61328H8.05859V3.51953H5.01172V2.72266H8.05859V0.367188H8.96094V11.0547H8.05859V7.42188H5.01172ZM11.7113 9.07422V4.76172H15.6605V2.05469H11.6409V1.26953H16.5394V5.52344H12.5902V8.30078H12.9652C14.2542 8.30078 15.7269 8.20703 17.3831 8.01953V8.75781C15.5316 8.96875 13.7894 9.07422 12.1566 9.07422H11.7113ZM17.1605 5.46484V4.62109H19.2698V0.367188H20.1722V11.0547H19.2698V5.46484H17.1605ZM23.5436 4.84375V0.566406H24.4342V1.9375H29.9186V0.566406H30.8209V4.84375H23.5436ZM24.4342 4.08203H29.9186V2.65234H24.4342V4.08203ZM21.9381 6.88281V6.09766H32.3795V6.88281H27.8327V8.875H26.942V6.88281H21.9381ZM23.5905 10.7148V7.94922H24.4928V9.92969H31.1491V10.7148H23.5905ZM34.7548 3.55469V0.589844H42.0908V1.31641H35.6572V2.81641H42.1377V3.55469H34.7548ZM33.1494 5.38281V4.63281H43.5908V5.38281H33.1494ZM34.7314 10.8555V8.26562H41.1884V7.17578H34.6494V6.42578H42.0908V8.95703H35.6338V10.1055H42.3955V10.8555H34.7314ZM45.1458 5.07812C45.1458 3.85938 45.3802 2.86719 45.8489 2.10156C46.3255 1.33594 46.9817 0.953125 47.8177 0.953125C48.638 0.953125 49.2903 1.33594 49.7747 2.10156C50.2591 2.86719 50.5013 3.85938 50.5013 5.07812C50.5013 6.28906 50.263 7.28125 49.7864 8.05469C49.3098 8.82031 48.6536 9.20312 47.8177 9.20312C46.9739 9.20312 46.3177 8.82031 45.8489 8.05469C45.3802 7.28906 45.1458 6.29688 45.1458 5.07812ZM46.0716 5.07812C46.0716 6.03125 46.22 6.82031 46.5169 7.44531C46.8138 8.07031 47.2473 8.38281 47.8177 8.38281C48.388 8.38281 48.8216 8.06641 49.1184 7.43359C49.4153 6.79297 49.5638 6.00781 49.5638 5.07812C49.5638 4.13281 49.4153 3.34766 49.1184 2.72266C48.8294 2.08984 48.3958 1.77344 47.8177 1.77344C47.2395 1.77344 46.802 2.09375 46.5052 2.73438C46.2161 3.36719 46.0716 4.14844 46.0716 5.07812ZM52.8333 11.0547V0.367188H53.7473V11.0547H52.8333ZM59.8691 5.88672V1.15234H60.7831V5.08984H67.3105V5.88672H59.8691ZM58.1698 9.70703V8.92188H68.623V9.70703H58.1698ZM69.9436 6.02734C70.717 5.43359 71.342 4.75781 71.8186 4C72.2952 3.24219 72.5413 2.54688 72.5569 1.91406H70.3538V1.11719H73.5061C73.4983 2.16406 73.2327 3.15234 72.7092 4.08203C72.1936 5.01172 71.4944 5.82422 70.6116 6.51953L69.9436 6.02734ZM73.3069 6.54297C74.0022 5.88672 74.5686 5.13672 75.0061 4.29297C75.4436 3.44141 75.6663 2.64844 75.6741 1.91406H73.8928V1.11719H76.5881C76.5881 2.24219 76.3616 3.3125 75.9084 4.32812C75.4553 5.33594 74.8225 6.23438 74.01 7.02344L73.3069 6.54297ZM77.9475 8.28906V0.367188H78.8498V8.28906H77.9475ZM71.7717 10.7148V7.45703H72.6741V9.90625H79.26V10.7148H71.7717ZM84.3856 2.875C84.3856 2.20312 84.6552 1.66797 85.1942 1.26953C85.7411 0.863281 86.4325 0.660156 87.2684 0.660156C88.0888 0.660156 88.7723 0.863281 89.3192 1.26953C89.8661 1.66797 90.1395 2.20312 90.1395 2.875C90.1395 3.54688 89.8661 4.08594 89.3192 4.49219C88.7802 4.89062 88.0966 5.08984 87.2684 5.08984C86.4169 5.08984 85.7216 4.89062 85.1825 4.49219C84.6513 4.08594 84.3856 3.54688 84.3856 2.875ZM85.3114 2.875C85.3114 3.3125 85.4989 3.67188 85.8739 3.95312C86.2489 4.23438 86.7138 4.375 87.2684 4.375C87.8231 4.375 88.2841 4.23438 88.6513 3.95312C89.0263 3.66406 89.2138 3.30469 89.2138 2.875C89.2138 2.44531 89.0263 2.08984 88.6513 1.80859C88.2841 1.51953 87.8231 1.375 87.2684 1.375C86.7294 1.375 86.2684 1.51953 85.8856 1.80859C85.5028 2.09766 85.3114 2.45312 85.3114 2.875ZM91.8622 11.0547V0.367188H92.7645V11.0547H91.8622ZM83.5419 7.25781V6.49609H84.8778C87.4559 6.49609 89.6395 6.37109 91.4286 6.12109V6.87109C90.4677 7.01172 89.1981 7.12109 87.62 7.19922V10.8789H86.7177V7.22266C86.1005 7.24609 85.4833 7.25781 84.8661 7.25781H83.5419ZM96.1828 1.36328V0.625H99.8625V1.36328H96.1828ZM94.7414 3.02734V2.28906H100.941V3.02734H94.7414ZM95.1984 5.25391C95.1984 4.76953 95.468 4.39062 96.007 4.11719C96.5461 3.84375 97.2102 3.70703 97.9992 3.70703C98.7883 3.70703 99.4523 3.84375 99.9914 4.11719C100.53 4.39062 100.8 4.77344 100.8 5.26562C100.8 5.75 100.53 6.13281 99.9914 6.41406C99.4523 6.6875 98.7883 6.82422 97.9992 6.82422C97.2102 6.82422 96.5461 6.68359 96.007 6.40234C95.468 6.12109 95.1984 5.73828 95.1984 5.25391ZM96.1359 5.25391C96.1359 5.52734 96.3156 5.74219 96.675 5.89844C97.0344 6.05469 97.4758 6.13281 97.9992 6.13281C98.5148 6.13281 98.9523 6.05469 99.3117 5.89844C99.6789 5.74219 99.8625 5.52734 99.8625 5.25391C99.8625 4.97266 99.6867 4.76172 99.3352 4.62109C98.9836 4.47266 98.5383 4.39844 97.9992 4.39844C97.4602 4.39844 97.0148 4.47266 96.6633 4.62109C96.3117 4.76953 96.1359 4.98047 96.1359 5.25391ZM101.093 5.95703V5.21875H103.015V3.74219H101.034V3.01562H103.015V0.367188H103.917V6.88281H103.015V5.95703H101.093ZM96.6398 10.9844V7.31641H97.5305V8.30078H103.027V7.31641H103.929V10.9844H96.6398ZM97.5305 10.2578H103.027V8.99219H97.5305V10.2578ZM111.187 1.04688V0.34375H115.781V1.04688H111.187ZM109.254 2.61719V1.92578H117.726V2.61719H109.254ZM109.875 4.44531C109.875 3.64062 111.082 3.23828 113.496 3.23828C115.887 3.23828 117.082 3.64062 117.082 4.44531C117.082 4.88281 116.742 5.19922 116.062 5.39453C115.383 5.58203 114.527 5.67578 113.496 5.67578C111.082 5.67578 109.875 5.26562 109.875 4.44531ZM110.906 4.44531C110.906 4.84375 111.769 5.04297 113.496 5.04297C115.207 5.04297 116.062 4.84375 116.062 4.44531C116.062 4.21875 115.84 4.06641 115.394 3.98828C114.957 3.91016 114.324 3.87109 113.496 3.87109C112.668 3.87109 112.027 3.91016 111.574 3.98828C111.129 4.06641 110.906 4.21875 110.906 4.44531ZM108.246 7.48047V6.78906H113.039V5.51172H113.93V6.78906H118.687V7.48047H108.246ZM109.64 9.21484V8.5H117.035V11.2656H116.133V9.21484H109.64ZM120.735 2.65234C120.735 2.21484 120.918 1.83984 121.285 1.52734C121.66 1.20703 122.141 0.976562 122.727 0.835938C123.313 0.6875 123.973 0.613281 124.707 0.613281C125.824 0.613281 126.762 0.792969 127.52 1.15234C128.285 1.50391 128.668 2.00391 128.668 2.65234C128.668 3.08984 128.481 3.46875 128.106 3.78906C127.731 4.10156 127.25 4.33203 126.664 4.48047C126.078 4.62109 125.426 4.69141 124.707 4.69141C123.551 4.69141 122.598 4.51562 121.848 4.16406C121.106 3.80469 120.735 3.30078 120.735 2.65234ZM121.731 2.65234C121.731 3.06641 122.027 3.38672 122.621 3.61328C123.215 3.83984 123.91 3.95312 124.707 3.95312C125.231 3.95312 125.711 3.90625 126.149 3.8125C126.594 3.71875 126.957 3.57031 127.238 3.36719C127.527 3.16406 127.672 2.92578 127.672 2.65234C127.672 2.24609 127.379 1.92969 126.793 1.70312C126.215 1.46875 125.52 1.35156 124.707 1.35156C123.934 1.35156 123.242 1.46875 122.633 1.70312C122.031 1.92969 121.731 2.24609 121.731 2.65234ZM119.457 6.8125V6.0625H129.899V6.8125H119.457ZM121.168 10.6914V7.82031H122.07V9.90625H128.668V10.6914H121.168ZM132.973 8.88672C133.52 8.45703 134.016 7.96875 134.462 7.42188C134.907 6.875 135.298 6.17969 135.634 5.33594C135.97 4.49219 136.137 3.61328 136.137 2.69922V0.953125H137.016V2.66406C137.016 3.35156 137.118 4.02344 137.321 4.67969C137.532 5.33594 137.805 5.91016 138.141 6.40234C138.477 6.89453 138.794 7.30859 139.091 7.64453C139.387 7.97266 139.688 8.25781 139.993 8.5L139.348 9.09766C138.903 8.73828 138.399 8.18359 137.837 7.43359C137.274 6.67578 136.868 5.92188 136.618 5.17188C136.415 5.92188 136.024 6.70312 135.446 7.51562C134.868 8.32031 134.286 8.96875 133.7 9.46094L132.973 8.88672ZM141.106 11.0547V0.367188H142.009V5.00781H143.825V5.86328H142.009V11.0547H141.106ZM145.931 2.18359V1.375H153.583C153.583 3.38281 153.357 5.34766 152.903 7.26953H152.001C152.22 6.39453 152.388 5.48438 152.505 4.53906C152.622 3.59375 152.681 2.80859 152.681 2.18359H145.931ZM144.478 9.63672V8.85156H148.521V4.84375H149.423V8.85156H154.931V9.63672H144.478ZM157.259 4.38672V2.14844H163.728V1.23438H157.189V0.554688H164.642V2.76953H158.173V3.70703H164.9V4.38672H157.259ZM155.701 6.00391V5.32422H166.142V6.00391H155.701ZM157.283 10.8672V8.57031H163.728V7.65625H157.201V6.96484H164.63V9.20312H158.185V10.1758H164.935V10.8672H157.283ZM170.236 3.36719C170.236 2.61719 170.498 2.00781 171.022 1.53906C171.545 1.07031 172.217 0.835938 173.037 0.835938C173.842 0.835938 174.51 1.07031 175.041 1.53906C175.572 2.00781 175.838 2.61719 175.838 3.36719C175.838 4.125 175.576 4.73438 175.053 5.19531C174.529 5.65625 173.857 5.88672 173.037 5.88672C172.201 5.88672 171.525 5.65625 171.01 5.19531C170.494 4.73438 170.236 4.125 170.236 3.36719ZM171.162 3.36719C171.162 3.88281 171.338 4.3125 171.69 4.65625C172.041 4.99219 172.49 5.16016 173.037 5.16016C173.592 5.16016 174.041 4.99219 174.385 4.65625C174.736 4.3125 174.912 3.88281 174.912 3.36719C174.912 2.85938 174.736 2.43359 174.385 2.08984C174.033 1.74609 173.584 1.57422 173.037 1.57422C172.498 1.57422 172.049 1.75 171.69 2.10156C171.338 2.44531 171.162 2.86719 171.162 3.36719ZM178.088 6.96484V0.367188H178.99V6.96484H178.088ZM171.572 8.40625V7.63281H178.99V11.1602H178.088V8.40625H171.572ZM181.705 5.88672V0.988281H186.616V5.88672H181.705ZM182.596 5.14844H185.725V1.72656H182.596V5.14844ZM186.288 5.04297V4.29297H189.323V2.58203H186.288V1.83203H189.323V0.367188H190.225V7.05859H189.323V5.04297H186.288ZM182.69 9.02734C182.69 8.40234 183.038 7.91797 183.733 7.57422C184.436 7.23047 185.377 7.05859 186.557 7.05859C187.745 7.05859 188.69 7.23047 189.393 7.57422C190.096 7.91016 190.448 8.39453 190.448 9.02734C190.448 9.65234 190.092 10.1367 189.381 10.4805C188.67 10.832 187.729 11.0039 186.557 10.9961C185.362 10.9883 184.416 10.8125 183.721 10.4688C183.034 10.1328 182.69 9.65234 182.69 9.02734ZM183.674 9.02734C183.674 9.41016 183.928 9.70312 184.436 9.90625C184.952 10.1094 185.659 10.2109 186.557 10.2109C187.424 10.2109 188.127 10.1055 188.666 9.89453C189.205 9.68359 189.475 9.39453 189.475 9.02734C189.475 8.62891 189.209 8.33203 188.678 8.13672C188.155 7.93359 187.448 7.83203 186.557 7.83203C185.666 7.83203 184.963 7.9375 184.448 8.14844C183.932 8.35156 183.674 8.64453 183.674 9.02734ZM193.186 3.75391C193.186 2.94922 193.569 2.3125 194.335 1.84375C195.1 1.36719 196.053 1.12891 197.194 1.12891C198.319 1.12891 199.268 1.36719 200.042 1.84375C200.815 2.3125 201.202 2.94922 201.202 3.75391C201.202 4.55859 200.815 5.19922 200.042 5.67578C199.276 6.14453 198.327 6.37891 197.194 6.37891C196.038 6.37891 195.081 6.14062 194.323 5.66406C193.565 5.1875 193.186 4.55078 193.186 3.75391ZM194.182 3.75391C194.182 4.31641 194.479 4.76953 195.073 5.11328C195.667 5.44922 196.374 5.61719 197.194 5.61719C198.038 5.61719 198.753 5.44531 199.339 5.10156C199.925 4.75 200.217 4.30078 200.217 3.75391C200.217 3.20703 199.925 2.76172 199.339 2.41797C198.753 2.06641 198.038 1.89062 197.194 1.89062C196.389 1.89062 195.686 2.0625 195.085 2.40625C194.483 2.75 194.182 3.19922 194.182 3.75391ZM191.932 9.70703V8.92188H202.385V9.70703H191.932ZM204.749 7.1875V3.74219H211.171V1.85547H204.679V1.07031H212.073V4.50391H205.651V6.39062H212.296V7.1875H204.749ZM203.144 9.96484V9.17969H207.983V6.82422H208.909V9.17969H213.597V9.96484H203.144ZM217.152 5.75781C217.449 5.65625 217.761 5.51172 218.09 5.32422C218.425 5.12891 218.758 4.89844 219.086 4.63281C219.422 4.35938 219.703 4.04297 219.929 3.68359C220.156 3.31641 220.273 2.94531 220.281 2.57031V1.76172H217.738V0.988281H223.75V1.76172H221.254V2.53516C221.269 2.96484 221.449 3.39453 221.793 3.82422C222.144 4.24609 222.511 4.58594 222.894 4.84375C223.285 5.10156 223.687 5.32422 224.101 5.51172L223.633 6.13281C223.117 5.92188 222.574 5.59766 222.004 5.16016C221.433 4.71484 221.027 4.29297 220.785 3.89453C220.527 4.33203 220.093 4.79688 219.484 5.28906C218.883 5.77344 218.273 6.14062 217.656 6.39062L217.152 5.75781ZM223.234 3.73047V2.94531H225.566V0.367188H226.468V6.13281H225.566V3.73047H223.234ZM219.238 10.8789V6.55469H220.129V7.79688H225.59V6.55469H226.48V10.8789H219.238ZM220.129 10.082H225.59V8.54688H220.129V10.082ZM228.797 4.63281C229.469 4.42188 230.113 4.14453 230.73 3.80078C231.348 3.45703 231.879 3.03906 232.324 2.54688C232.777 2.05469 233.004 1.5625 233.004 1.07031V0.496094H233.906V1.05859C233.906 1.42578 234.039 1.80078 234.305 2.18359C234.57 2.56641 234.91 2.91406 235.324 3.22656C235.746 3.53125 236.195 3.80859 236.672 4.05859C237.148 4.30078 237.621 4.49219 238.09 4.63281L237.633 5.30078C236.812 5.06641 235.996 4.67578 235.184 4.12891C234.371 3.58203 233.793 3.01562 233.449 2.42969C233.137 3.00781 232.574 3.56641 231.762 4.10547C230.957 4.64453 230.125 5.04688 229.266 5.3125L228.797 4.63281ZM228.176 7.36328V6.57812H238.629V7.36328H233.883V11.0781H232.98V7.36328H228.176ZM241.075 1.79688V0.953125H244.836V1.79688H241.075ZM239.61 4.02344V3.17969H245.914V4.02344H239.61ZM240.114 7.26953C240.114 6.61328 240.375 6.07812 240.899 5.66406C241.422 5.24219 242.102 5.03125 242.938 5.03125C243.766 5.03125 244.442 5.24219 244.965 5.66406C245.496 6.07812 245.762 6.61719 245.762 7.28125C245.762 7.92969 245.5 8.46484 244.977 8.88672C244.453 9.30859 243.774 9.51953 242.938 9.51953C242.102 9.51953 241.422 9.30859 240.899 8.88672C240.375 8.45703 240.114 7.91797 240.114 7.26953ZM241.039 7.26953C241.039 7.68359 241.223 8.02734 241.59 8.30078C241.965 8.57422 242.414 8.71094 242.938 8.71094C243.446 8.71094 243.887 8.57812 244.262 8.3125C244.645 8.03906 244.836 7.69141 244.836 7.26953C244.836 6.83984 244.649 6.49609 244.274 6.23828C243.907 5.97266 243.461 5.83984 242.938 5.83984C242.407 5.83984 241.957 5.97266 241.59 6.23828C241.223 6.50391 241.039 6.84766 241.039 7.26953ZM247.367 11.0547V0.367188H248.27V5.37109H250.051V6.21484H248.27V11.0547H247.367ZM250.399 8.81641C252.173 7.20703 253.059 5.21484 253.059 2.83984V1.03516H253.95V2.80469C253.95 3.65625 254.09 4.48047 254.372 5.27734C254.653 6.07422 254.958 6.71094 255.286 7.1875C255.622 7.65625 255.981 8.06641 256.364 8.41797L255.696 8.96875C255.329 8.65625 254.915 8.13672 254.454 7.41016C254.001 6.68359 253.692 6.01562 253.528 5.40625C253.372 6.04688 253.063 6.73438 252.602 7.46875C252.141 8.19531 251.645 8.82422 251.114 9.35547L250.399 8.81641ZM259.27 11.0547V0.367188H260.137V11.0547H259.27ZM255.227 5.125V4.28125H257.008V0.671875H257.84V10.5742H257.008V5.125H255.227ZM262.993 3.60156C262.993 2.79688 263.38 2.16016 264.153 1.69141C264.935 1.22266 265.907 0.988281 267.071 0.988281C267.806 0.988281 268.478 1.08984 269.087 1.29297C269.704 1.48828 270.2 1.78906 270.575 2.19531C270.958 2.59375 271.149 3.0625 271.149 3.60156C271.149 4.40625 270.759 5.04297 269.978 5.51172C269.196 5.98047 268.228 6.21484 267.071 6.21484C265.892 6.21484 264.915 5.98047 264.142 5.51172C263.376 5.03516 262.993 4.39844 262.993 3.60156ZM263.989 3.60156C263.989 4.15625 264.294 4.60547 264.903 4.94922C265.513 5.28516 266.235 5.45312 267.071 5.45312C267.931 5.45312 268.657 5.28125 269.251 4.9375C269.853 4.59375 270.153 4.14844 270.153 3.60156C270.153 3.05469 269.853 2.60938 269.251 2.26562C268.649 1.92188 267.923 1.75 267.071 1.75C266.251 1.75 265.532 1.92188 264.915 2.26562C264.298 2.60938 263.989 3.05469 263.989 3.60156ZM261.81 9.87109V9.08594H264.341V6.63672H265.231V9.08594H268.899V6.63672H269.79V9.08594H272.263V9.87109H261.81ZM273.63 10.1172V8.76953H275.107V10.1172H273.63ZM274.79 7.5625H273.958L273.853 1.21094H274.896L274.79 7.5625ZM0.230469 26.0781C0.230469 24.8594 0.464844 23.8672 0.933594 23.1016C1.41016 22.3281 2.0625 21.9414 2.89062 21.9414C3.71094 21.9414 4.35938 22.3242 4.83594 23.0898C5.32031 23.8555 5.5625 24.8516 5.5625 26.0781C5.5625 27.2969 5.32422 28.293 4.84766 29.0664C4.37891 29.8398 3.72656 30.2266 2.89062 30.2266C2.04688 30.2266 1.39062 29.8398 0.921875 29.0664C0.460938 28.293 0.230469 27.2969 0.230469 26.0781ZM1.15625 26.0781C1.15625 27.0391 1.30078 27.8359 1.58984 28.4688C1.88672 29.0938 2.32031 29.4062 2.89062 29.4062C3.46094 29.4062 3.89062 29.0859 4.17969 28.4453C4.47656 27.8047 4.625 27.0156 4.625 26.0781C4.625 25.125 4.47656 24.332 4.17969 23.6992C3.89062 23.0664 3.46094 22.75 2.89062 22.75C2.5 22.75 2.16797 22.9141 1.89453 23.2422C1.62891 23.5703 1.4375 23.9766 1.32031 24.4609C1.21094 24.9453 1.15625 25.4844 1.15625 26.0781ZM5.01172 28.4219V27.6133H8.05859V24.5195H5.01172V23.7227H8.05859V21.3672H8.96094V32.0547H8.05859V28.4219H5.01172ZM11.7113 30.0742V25.7617H15.6605V23.0547H11.6409V22.2695H16.5394V26.5234H12.5902V29.3008H12.9652C14.2542 29.3008 15.7269 29.207 17.3831 29.0195V29.7578C15.5316 29.9688 13.7894 30.0742 12.1566 30.0742H11.7113ZM17.1605 26.4648V25.6211H19.2698V21.3672H20.1722V32.0547H19.2698V26.4648H17.1605ZM23.5436 25.8438V21.5664H24.4342V22.9375H29.9186V21.5664H30.8209V25.8438H23.5436ZM24.4342 25.082H29.9186V23.6523H24.4342V25.082ZM21.9381 27.8828V27.0977H32.3795V27.8828H27.8327V29.875H26.942V27.8828H21.9381ZM23.5905 31.7148V28.9492H24.4928V30.9297H31.1491V31.7148H23.5905ZM34.7548 24.5547V21.5898H42.0908V22.3164H35.6572V23.8164H42.1377V24.5547H34.7548ZM33.1494 26.3828V25.6328H43.5908V26.3828H33.1494ZM34.7314 31.8555V29.2656H41.1884V28.1758H34.6494V27.4258H42.0908V29.957H35.6338V31.1055H42.3955V31.8555H34.7314ZM45.4388 24.5664C45.4388 23.8008 45.7122 23.1836 46.2591 22.7148C46.8059 22.2461 47.5052 22.0117 48.3567 22.0117C49.2005 22.0117 49.8958 22.2461 50.4427 22.7148C50.9973 23.1836 51.2747 23.8008 51.2747 24.5664C51.2747 25.332 51.0013 25.9531 50.4544 26.4297C49.9075 26.8984 49.2083 27.1328 48.3567 27.1328C47.4895 27.1328 46.7864 26.8984 46.2473 26.4297C45.7083 25.9609 45.4388 25.3398 45.4388 24.5664ZM46.3763 24.5664C46.3763 25.0977 46.5638 25.5352 46.9388 25.8789C47.3138 26.2227 47.7864 26.3945 48.3567 26.3945C48.9348 26.3945 49.4075 26.2227 49.7747 25.8789C50.1497 25.5273 50.3372 25.0898 50.3372 24.5664C50.3372 24.0508 50.1497 23.6211 49.7747 23.2773C49.4075 22.9258 48.9348 22.75 48.3567 22.75C47.7942 22.75 47.3216 22.9258 46.9388 23.2773C46.5638 23.6289 46.3763 24.0586 46.3763 24.5664ZM44.6888 30.0156V29.2539H45.9895C48.2942 29.2539 50.4739 29.1172 52.5286 28.8438V29.5938C50.4192 29.875 48.2278 30.0156 45.9544 30.0156H44.6888ZM52.9505 32.0547V21.3672H53.8645V32.0547H52.9505ZM58.2636 27.1562C58.662 26.9375 59.037 26.6875 59.3886 26.4062C59.748 26.1172 60.0917 25.7891 60.4198 25.4219C60.748 25.0547 61.0058 24.6406 61.1933 24.1797C61.3886 23.7109 61.4863 23.2305 61.4863 22.7383V21.7188H62.3769V22.7266C62.3769 23.2109 62.4823 23.6836 62.6933 24.1445C62.9042 24.6055 63.1777 25.0078 63.5136 25.3516C63.8495 25.6953 64.1698 25.9844 64.4745 26.2188C64.787 26.4531 65.0995 26.6562 65.412 26.8281L64.8613 27.4609C64.3925 27.2188 63.8613 26.8242 63.2675 26.2773C62.6816 25.7227 62.2441 25.1562 61.955 24.5781C61.705 25.1641 61.2753 25.7539 60.6659 26.3477C60.0644 26.9414 59.4628 27.4141 58.8613 27.7656L58.2636 27.1562ZM66.7363 29.043V21.3672H67.6386V29.043H66.7363ZM60.5956 31.7383V28.2344H61.498V30.918H68.0253V31.7383H60.5956ZM70.8342 23.1836V22.375H78.4866C78.4866 24.3828 78.26 26.3477 77.8069 28.2695H76.9045C77.1233 27.3945 77.2913 26.4844 77.4084 25.5391C77.5256 24.5938 77.5842 23.8086 77.5842 23.1836H70.8342ZM69.3811 30.6367V29.8516H73.4241V25.8438H74.3264V29.8516H79.8342V30.6367H69.3811ZM80.8267 29.9336C82.1627 29.0586 83.2252 28.0156 84.0142 26.8047C84.8111 25.5938 85.2173 24.4062 85.233 23.2422H81.3541V22.4102H86.1822C86.1822 25.6445 84.608 28.3477 81.4595 30.5195L80.8267 29.9336ZM88.4322 32.0547V21.3672H89.3345V26.0078H91.1509V26.8633H89.3345V32.0547H88.4322ZM95.632 29.7578V22.4453H100.695V23.2305H96.5344V28.9727H96.7688C98.3 28.9727 99.8938 28.875 101.55 28.6797V29.418C100.659 29.5273 99.6516 29.6133 98.5266 29.6758C97.4016 29.7305 96.5617 29.7578 96.007 29.7578H95.632ZM99.5461 26.4062V25.5625H102.827V21.3672H103.73V32.0547H102.827V26.4062H99.5461ZM108.656 24.543C108.656 23.7461 108.918 23.1016 109.441 22.6094C109.973 22.1094 110.656 21.8594 111.492 21.8594C112.32 21.8594 113 22.1094 113.531 22.6094C114.07 23.1016 114.34 23.7461 114.34 24.543C114.34 25.3477 114.074 25.9961 113.543 26.4883C113.012 26.9805 112.328 27.2266 111.492 27.2266C110.648 27.2266 109.965 26.9805 109.441 26.4883C108.918 25.9961 108.656 25.3477 108.656 24.543ZM109.582 24.543C109.582 25.0977 109.758 25.5586 110.109 25.9258C110.469 26.293 110.93 26.4766 111.492 26.4766C112.055 26.4766 112.512 26.293 112.863 25.9258C113.223 25.5508 113.402 25.0898 113.402 24.543C113.402 23.9961 113.223 23.5391 112.863 23.1719C112.512 22.7969 112.055 22.6094 111.492 22.6094C110.937 22.6094 110.48 22.7969 110.121 23.1719C109.762 23.5469 109.582 24.0039 109.582 24.543ZM116.285 29.2773V21.3672H117.187V24.7422H118.699V25.5508H117.187V29.2773H116.285ZM110.367 31.7148V28.4688H111.269V30.9062H117.586V31.7148H110.367ZM119.75 27.5078C120.039 27.3828 120.344 27.2148 120.664 27.0039C120.992 26.793 121.324 26.5352 121.66 26.2305C122.004 25.918 122.285 25.5547 122.504 25.1406C122.731 24.7188 122.848 24.293 122.856 23.8633V22.8672H120.336V22.0703H126.313V22.8672H123.828V23.8164C123.836 24.1914 123.938 24.5664 124.133 24.9414C124.328 25.3164 124.578 25.6523 124.883 25.9492C125.195 26.2383 125.5 26.4922 125.797 26.7109C126.094 26.9219 126.391 27.1016 126.688 27.25L126.184 27.8477C125.66 27.5977 125.113 27.2266 124.543 26.7344C123.981 26.2422 123.586 25.7812 123.36 25.3516C123.117 25.8281 122.695 26.3398 122.094 26.8867C121.492 27.4336 120.891 27.8477 120.289 28.1289L119.75 27.5078ZM125.762 25.1641V24.3555H128.047V21.3672H128.949V29.2773H128.047V25.1641H125.762ZM121.824 31.7148V28.4688H122.727V30.9062H129.324V31.7148H121.824ZM132.297 22.5508V21.7891H136.165V22.5508H132.297ZM130.762 24.2969V23.5352H137.325V24.2969H130.762ZM131.266 26.6758C131.266 26.1602 131.547 25.7578 132.11 25.4688C132.68 25.1719 133.383 25.0234 134.219 25.0234C135.055 25.0234 135.754 25.168 136.317 25.457C136.887 25.7461 137.172 26.1523 137.172 26.6758C137.172 27.1914 136.887 27.5977 136.317 27.8945C135.754 28.1914 135.055 28.3398 134.219 28.3398C133.383 28.3398 132.68 28.1914 132.11 27.8945C131.547 27.5977 131.266 27.1914 131.266 26.6758ZM132.215 26.6758C132.215 26.9727 132.407 27.207 132.79 27.3789C133.18 27.5508 133.657 27.6367 134.219 27.6367C134.766 27.6367 135.235 27.5508 135.625 27.3789C136.024 27.207 136.223 26.9727 136.223 26.6758C136.223 26.3633 136.032 26.1289 135.649 25.9727C135.266 25.8086 134.79 25.7266 134.219 25.7266C133.649 25.7266 133.172 25.8125 132.79 25.9844C132.407 26.1484 132.215 26.3789 132.215 26.6758ZM138.731 29.6055V21.3672H139.633V25.2461H141.145V26.0547H139.633V29.6055H138.731ZM132.719 31.832V29.0898H133.622V31.0469H139.997V31.832H132.719ZM144.185 29.8867C144.732 29.457 145.228 28.9688 145.673 28.4219C146.118 27.875 146.509 27.1797 146.845 26.3359C147.181 25.4922 147.349 24.6133 147.349 23.6992V21.9531H148.228V23.6641C148.228 24.3516 148.329 25.0234 148.532 25.6797C148.743 26.3359 149.017 26.9102 149.353 27.4023C149.689 27.8945 150.005 28.3086 150.302 28.6445C150.599 28.9727 150.9 29.2578 151.204 29.5L150.56 30.0977C150.114 29.7383 149.61 29.1836 149.048 28.4336C148.485 27.6758 148.079 26.9219 147.829 26.1719C147.626 26.9219 147.235 27.7031 146.657 28.5156C146.079 29.3203 145.497 29.9688 144.911 30.4609L144.185 29.8867ZM152.318 32.0547V21.3672H153.22V26.0078H155.036V26.8633H153.22V32.0547H152.318ZM157.962 22.6211V21.8711H161.865V22.6211H157.962ZM156.404 24.3555V23.6055H163.048V24.3555H156.404ZM156.908 26.6992C156.908 26.1914 157.197 25.793 157.775 25.5039C158.353 25.2148 159.064 25.0703 159.908 25.0703C160.744 25.0703 161.451 25.2148 162.029 25.5039C162.607 25.793 162.896 26.1953 162.896 26.7109C162.896 27.2188 162.611 27.6211 162.04 27.918C161.47 28.207 160.759 28.3516 159.908 28.3516C159.056 28.3516 158.341 28.207 157.763 27.918C157.193 27.6211 156.908 27.2148 156.908 26.6992ZM157.869 26.6992C157.869 26.9961 158.064 27.2305 158.455 27.4023C158.845 27.5664 159.33 27.6484 159.908 27.6484C160.462 27.6484 160.939 27.5664 161.337 27.4023C161.736 27.2305 161.935 26.9961 161.935 26.6992C161.935 26.3945 161.74 26.1641 161.349 26.0078C160.966 25.8516 160.486 25.7734 159.908 25.7734C159.322 25.7734 158.833 25.8555 158.443 26.0195C158.06 26.1758 157.869 26.4023 157.869 26.6992ZM156.029 30.5312V29.7578H157.365C160.154 29.7578 162.322 29.6758 163.869 29.5117V30.2617C162.158 30.4414 159.986 30.5312 157.353 30.5312H156.029ZM159.451 30.0273V28.0352H160.353V30.0273H159.451ZM164.29 32.0547V21.3672H165.205V32.0547H164.29ZM168.47 25.3867V23.1484H174.939V22.2344H168.4V21.5547H175.853V23.7695H169.385V24.707H176.111V25.3867H168.47ZM166.912 27.0039V26.3242H177.353V27.0039H166.912ZM168.494 31.8672V29.5703H174.939V28.6562H168.412V27.9648H175.842V30.2031H169.396V31.1758H176.146V31.8672H168.494ZM181.448 27.2148V22.1055H186.545V27.2148H181.448ZM182.338 26.4648H185.666V22.8555H182.338V26.4648ZM188.772 29.2773V21.3672H189.674V24.7422H191.186V25.5508H189.674V29.2773H188.772ZM182.854 31.7148V28.4688H183.756V30.9062H190.073V31.7148H182.854ZM193.573 25.1055V21.6719H200.885V22.4219H194.475V24.3555H200.932V25.1055H193.573ZM191.944 27.1797V26.4297H202.385V27.1797H191.944ZM193.561 31.8672V27.9414H194.452V29.0312H199.948V27.9414H200.839V31.8672H193.561ZM194.452 31.1172H199.948V29.7461H194.452V31.1172ZM204.374 29.5117V22.2227H205.276V28.6914H205.616C206.101 28.6914 206.827 28.6562 207.796 28.5859C208.773 28.5078 209.702 28.3984 210.585 28.2578V29.0312C209.655 29.1953 208.624 29.3164 207.491 29.3945C206.358 29.4727 205.48 29.5117 204.855 29.5117H204.374ZM211.452 32.0547V21.3672H212.366V32.0547H211.452ZM215.398 29.582V22.4219H220.367V23.207H216.288V28.7969H216.558C218.136 28.7969 219.718 28.6836 221.304 28.457V29.1953C219.601 29.4531 217.753 29.582 215.761 29.582H215.398ZM222.124 32.0547V21.3672H223.027V25.7969H224.855V26.6641H223.027V32.0547H222.124ZM226.386 31V29.6055H227.863V31H226.386Z" fill="black"/>
</g>
</svg>
