<svg width="31" height="34" viewBox="0 0 31 34" fill="none" xmlns="http://www.w3.org/2000/svg">
<path d="M21.9585 17V4.25004C21.9585 3.87432 21.8224 3.51398 21.5802 3.24831C21.3379 2.98263 21.0094 2.83337 20.6668 2.83337H3.87516C3.53259 2.83337 3.20405 2.98263 2.96182 3.24831C2.71958 3.51398 2.5835 3.87432 2.5835 4.25004V24.0834L7.75016 18.4167H20.6668C21.0094 18.4167 21.3379 18.2675 21.5802 18.0018C21.8224 17.7361 21.9585 17.3758 21.9585 17ZM27.1252 8.50004H24.5418V21.25H7.75016V24.0834C7.75016 24.4591 7.88625 24.8194 8.12848 25.0851C8.37072 25.3508 8.69926 25.5 9.04183 25.5H23.2502L28.4168 31.1667V9.91671C28.4168 9.54098 28.2807 9.18065 28.0385 8.91497C27.7963 8.6493 27.4677 8.50004 27.1252 8.50004Z" fill="#FE9738"/>
</svg>
