<svg width="47" height="12" viewBox="0 0 47 12" fill="none" xmlns="http://www.w3.org/2000/svg">
<g style="mix-blend-mode:darken">
<path d="M1.41734 2.39453C1.41734 1.98828 1.60094 1.64453 1.96812 1.36328C2.34312 1.07422 2.81969 0.867188 3.39781 0.742188C3.98375 0.609375 4.64391 0.542969 5.37828 0.542969C6.49547 0.542969 7.43297 0.703125 8.19078 1.02344C8.95641 1.33594 9.33922 1.79297 9.33922 2.39453C9.33922 2.80859 9.14781 3.16016 8.765 3.44922C8.39 3.73047 7.90953 3.9375 7.32359 4.07031C6.74547 4.19531 6.09703 4.25781 5.37828 4.25781C4.22203 4.25781 3.27281 4.09766 2.53062 3.77734C1.78844 3.45703 1.41734 2.99609 1.41734 2.39453ZM2.41344 2.39453C2.41344 2.76953 2.70641 3.05469 3.29234 3.25C3.88609 3.4375 4.58141 3.53125 5.37828 3.53125C6.19078 3.53125 6.88609 3.43359 7.46422 3.23828C8.05016 3.04297 8.34312 2.76172 8.34312 2.39453C8.34312 2.03516 8.05016 1.75781 7.46422 1.5625C6.88609 1.36719 6.19078 1.26953 5.37828 1.26953C4.61266 1.26953 3.92516 1.36719 3.31578 1.5625C2.71422 1.75 2.41344 2.02734 2.41344 2.39453ZM0.128281 6.12109V5.37109H10.5697V6.12109H0.128281ZM1.73375 10.8555V7.36328H9.02281V10.8555H1.73375ZM2.63609 10.082H8.12047V8.13672H2.63609V10.082ZM11.3278 5.86328C11.7262 5.66016 12.0973 5.4375 12.4411 5.19531C12.7848 4.94531 13.1208 4.65234 13.4489 4.31641C13.777 3.98047 14.0348 3.59375 14.2223 3.15625C14.4177 2.71094 14.5153 2.24609 14.5153 1.76172V0.660156H15.4177V1.73828C15.4177 2.16797 15.5075 2.58594 15.6872 2.99219C15.8747 3.39062 16.1247 3.74609 16.4372 4.05859C16.7497 4.36328 17.0583 4.625 17.363 4.84375C17.6755 5.0625 18.0036 5.26172 18.3473 5.44141L17.82 6.0625C17.32 5.84375 16.7966 5.5 16.2497 5.03125C15.7106 4.55469 15.2927 4.05469 14.9958 3.53125C14.7302 4.09375 14.2966 4.65234 13.695 5.20703C13.1012 5.76172 12.4958 6.19141 11.8786 6.49609L11.3278 5.86328ZM17.4333 3.54297V2.74609H19.9294V0.367188H20.8317V6.89453H19.9294V3.54297H17.4333ZM13.3083 8.96875C13.3083 8.32812 13.6559 7.82812 14.3512 7.46875C15.0466 7.10938 15.9841 6.92969 17.1637 6.92969C18.3434 6.92969 19.2848 7.10938 19.988 7.46875C20.6989 7.82031 21.0544 8.32031 21.0544 8.96875C21.0544 9.60938 20.6989 10.1094 19.988 10.4688C19.277 10.8281 18.3356 11.0039 17.1637 10.9961C15.9762 10.9883 15.0348 10.8086 14.3395 10.457C13.652 10.1055 13.3083 9.60938 13.3083 8.96875ZM14.2809 8.96875C14.2809 9.36719 14.5348 9.67578 15.0427 9.89453C15.5505 10.1055 16.2575 10.2109 17.1637 10.2109C18.0309 10.2109 18.7341 10.1016 19.2731 9.88281C19.82 9.65625 20.0934 9.35156 20.0934 8.96875C20.0934 8.5625 19.8278 8.25391 19.2966 8.04297C18.7653 7.83203 18.0544 7.72656 17.1637 7.72656C16.2653 7.72656 15.5583 7.83203 15.0427 8.04297C14.5348 8.25391 14.2809 8.5625 14.2809 8.96875ZM26.848 3.76562V0.472656H27.7503V3.01562H34.2777V3.76562H26.848ZM25.1605 6.28516V5.52344H30.0003V3.54297H30.9027V5.52344H35.6019V6.28516H25.1605ZM26.555 8.52344V7.77344H33.9495V11.1133H33.0472V8.52344H26.555ZM37.6608 2.39453C37.6608 1.98828 37.8444 1.64453 38.2116 1.36328C38.5866 1.07422 39.0631 0.867188 39.6413 0.742188C40.2272 0.609375 40.8873 0.542969 41.6217 0.542969C42.7389 0.542969 43.6764 0.703125 44.4342 1.02344C45.1998 1.33594 45.5827 1.79297 45.5827 2.39453C45.5827 2.80859 45.3913 3.16016 45.0084 3.44922C44.6334 3.73047 44.153 3.9375 43.567 4.07031C42.9889 4.19531 42.3405 4.25781 41.6217 4.25781C40.4655 4.25781 39.5163 4.09766 38.7741 3.77734C38.0319 3.45703 37.6608 2.99609 37.6608 2.39453ZM38.6569 2.39453C38.6569 2.76953 38.9498 3.05469 39.5358 3.25C40.1295 3.4375 40.8248 3.53125 41.6217 3.53125C42.4342 3.53125 43.1295 3.43359 43.7077 3.23828C44.2936 3.04297 44.5866 2.76172 44.5866 2.39453C44.5866 2.03516 44.2936 1.75781 43.7077 1.5625C43.1295 1.36719 42.4342 1.26953 41.6217 1.26953C40.8561 1.26953 40.1686 1.36719 39.5592 1.5625C38.9577 1.75 38.6569 2.02734 38.6569 2.39453ZM36.3717 6.12109V5.37109H46.8131V6.12109H36.3717ZM37.9772 10.8555V7.36328H45.2663V10.8555H37.9772ZM38.8795 10.082H44.3639V8.13672H38.8795V10.082Z" fill="black"/>
</g>
</svg>
