<svg width="93" height="16" viewBox="0 0 93 16" fill="none" xmlns="http://www.w3.org/2000/svg">
<g style="mix-blend-mode:darken">
<path d="M10.2725 15.4062V0.9375H11.7569V15.4062H10.2725ZM0.288124 12.625V1.95312H1.72562V5.8125H5.7725V1.95312H7.21V12.625H0.288124ZM1.72562 11.2969H5.7725V7.17188H1.72562V11.2969ZM17.1087 15.1875V11.3906H25.7494V10H17.015V8.76562H27.2181V12.5H18.5775V13.9531H27.5931V15.1875H17.1087ZM25.7337 8.125V0.9375H27.2025V8.125H25.7337ZM15.4369 7.29688V1.59375H22.6712V7.29688H15.4369ZM16.8744 6.14062H21.2337V2.75H16.8744V6.14062ZM32.6325 14.9844V10.7812H34.1012V13.7031H42.8044V14.9844H32.6325ZM37.1325 6.15625V4.85938H40.9137V0.9375H42.3825V11.6562H40.9137V6.15625H37.1325ZM30.6481 9.54688V1.59375H32.07V4.26562H36.2887V1.59375H37.7262V9.54688H30.6481ZM32.07 8.3125H36.2887V5.5H32.07V8.3125ZM44.7188 14.2031V12.9219H51.0625V10.375H52.5781V12.9219H58.8438V14.2031H44.7188ZM48.4531 2.67188V1.45312H55.2031V2.67188H48.4531ZM45.8281 5.29688V4.09375H57.8281V5.29688H45.8281ZM46.7812 8.625C46.7812 7.85417 47.2396 7.27604 48.1562 6.89062C49.0833 6.50521 50.3073 6.3125 51.8281 6.3125C53.2969 6.3125 54.5052 6.51042 55.4531 6.90625C56.401 7.30208 56.875 7.88021 56.875 8.64062C56.875 9.40104 56.401 9.98438 55.4531 10.3906C54.5156 10.7865 53.3073 10.9844 51.8281 10.9844C50.3177 10.9844 49.099 10.7865 48.1719 10.3906C47.2448 9.99479 46.7812 9.40625 46.7812 8.625ZM48.4219 8.625C48.4219 9.46875 49.5573 9.89062 51.8281 9.89062C54.099 9.89062 55.2344 9.46875 55.2344 8.625C55.2344 7.82292 54.099 7.42188 51.8281 7.42188C49.5573 7.42188 48.4219 7.82292 48.4219 8.625ZM65.7975 12.9688V11.8281H75.9694V15.6094H74.5163V12.9688H65.7975ZM63.9225 10.7031V9.5625H65.485C69.5579 9.5625 72.4173 9.44792 74.0631 9.21875V10.3125C72.1569 10.5729 69.2923 10.7031 65.4694 10.7031H63.9225ZM68.3288 10.0156V7.89062H69.7506V10.0156H68.3288ZM74.5006 11.125V0.9375H75.9694V6.125H77.9069V7.42188H75.9694V11.125H74.5006ZM66.5006 2.14062V1.04688H71.6569V2.14062H66.5006ZM64.5319 4.10938V3.03125H73.1725V4.10938H64.5319ZM65.1256 6.54688C65.1256 5.95312 65.5058 5.51042 66.2663 5.21875C67.0267 4.91667 67.959 4.76562 69.0631 4.76562C69.761 4.76562 70.3913 4.82292 70.9538 4.9375C71.5267 5.04167 72.0058 5.23438 72.3913 5.51562C72.7871 5.79688 72.985 6.14062 72.985 6.54688C72.985 7.14062 72.6048 7.59375 71.8444 7.90625C71.0944 8.20833 70.1673 8.35938 69.0631 8.35938C68.3652 8.35938 67.7246 8.30208 67.1413 8.1875C66.5683 8.0625 66.0892 7.85938 65.7038 7.57812C65.3183 7.29688 65.1256 6.95312 65.1256 6.54688ZM66.6725 6.54688C66.6725 6.81771 66.8965 7.02604 67.3444 7.17188C67.8027 7.30729 68.3756 7.375 69.0631 7.375C69.7402 7.375 70.3079 7.30729 70.7663 7.17188C71.2246 7.02604 71.4538 6.81771 71.4538 6.54688C71.4538 6.01562 70.6569 5.75 69.0631 5.75C67.4694 5.75 66.6725 6.01562 66.6725 6.54688ZM81.9463 14.9688V10.5312H83.415V13.6719H92.1494V14.9688H81.9463ZM90.1806 11.5938V0.9375H91.6494V11.5938H90.1806ZM79.6963 5.26562C79.6963 4.16146 80.0608 3.27083 80.79 2.59375C81.5296 1.90625 82.4775 1.5625 83.6338 1.5625C84.7796 1.5625 85.7223 1.90625 86.4619 2.59375C87.2015 3.27083 87.5713 4.16146 87.5713 5.26562C87.5713 6.36979 87.2015 7.26042 86.4619 7.9375C85.7327 8.61458 84.79 8.95312 83.6338 8.95312C82.4671 8.95312 81.5192 8.61458 80.79 7.9375C80.0608 7.26042 79.6963 6.36979 79.6963 5.26562ZM81.1963 5.26562C81.1963 5.99479 81.4202 6.59375 81.8681 7.0625C82.3265 7.53125 82.915 7.76562 83.6338 7.76562C84.3525 7.76562 84.9358 7.53125 85.3838 7.0625C85.8421 6.58333 86.0713 5.98438 86.0713 5.26562C86.0713 4.54688 85.8421 3.94792 85.3838 3.46875C84.9358 2.98958 84.3525 2.75 83.6338 2.75C82.9254 2.75 82.3421 2.99479 81.8838 3.48438C81.4254 3.97396 81.1963 4.56771 81.1963 5.26562Z" fill="black"/>
</g>
</svg>
