<svg width="43" height="16" viewBox="0 0 43 16" fill="none" xmlns="http://www.w3.org/2000/svg">
<g style="mix-blend-mode:darken">
<path d="M10.1794 15.4062V0.9375H11.6481V6.89062H14.0075V8.29688H11.6481V15.4062H10.1794ZM0.3825 7.32812C0.3825 5.67188 0.700208 4.32292 1.33562 3.28125C1.98146 2.23958 2.86687 1.71875 3.99187 1.71875C5.10646 1.71875 5.98667 2.23958 6.6325 3.28125C7.27833 4.3125 7.60125 5.66146 7.60125 7.32812C7.60125 8.99479 7.28354 10.349 6.64812 11.3906C6.01271 12.4219 5.12729 12.9375 3.99187 12.9375C2.85646 12.9375 1.97104 12.4219 1.33562 11.3906C0.700208 10.349 0.3825 8.99479 0.3825 7.32812ZM1.8825 7.32812C1.8825 8.57812 2.05958 9.60417 2.41375 10.4062C2.76792 11.2083 3.29396 11.6094 3.99187 11.6094C4.47104 11.6094 4.87208 11.4062 5.195 11C5.52833 10.5833 5.76271 10.0677 5.89812 9.45312C6.03354 8.82812 6.10125 8.11979 6.10125 7.32812C6.10125 6.08854 5.92417 5.06771 5.57 4.26562C5.22625 3.45312 4.70021 3.04688 3.99187 3.04688C3.28354 3.04688 2.75229 3.45833 2.39812 4.28125C2.05437 5.09375 1.8825 6.10938 1.8825 7.32812ZM26.1719 15.4062V0.9375H27.6562V15.4062H26.1719ZM15.9219 7.32812C15.9219 5.67188 16.2448 4.32292 16.8906 3.28125C17.5469 2.23958 18.4479 1.71875 19.5938 1.71875C20.7188 1.71875 21.6094 2.23958 22.2656 3.28125C22.9323 4.3125 23.2656 5.66146 23.2656 7.32812C23.2656 8.99479 22.9427 10.349 22.2969 11.3906C21.651 12.4219 20.75 12.9375 19.5938 12.9375C18.4375 12.9375 17.5365 12.4167 16.8906 11.375C16.2448 10.3333 15.9219 8.98438 15.9219 7.32812ZM17.4219 7.32812C17.4219 8.56771 17.6042 9.59375 17.9688 10.4062C18.3333 11.2188 18.875 11.625 19.5938 11.625C20.3125 11.625 20.8542 11.2188 21.2188 10.4062C21.5833 9.58333 21.7656 8.55729 21.7656 7.32812C21.7656 6.08854 21.5833 5.06771 21.2188 4.26562C20.8542 3.45312 20.3125 3.04688 19.5938 3.04688C18.8646 3.04688 18.3177 3.45833 17.9531 4.28125C17.599 5.09375 17.4219 6.10938 17.4219 7.32812ZM41.1956 15.4062V0.9375H42.6956V15.4062H41.1956ZM31.8206 12.1406V2.34375H38.5863V3.60938H33.2738V10.875H33.805C35.6904 10.875 37.7581 10.724 40.0081 10.4219V11.625C37.6956 11.9688 35.1852 12.1406 32.4769 12.1406H31.8206Z" fill="black"/>
</g>
</svg>
