<svg width="60" height="16" viewBox="0 0 60 16" fill="none" xmlns="http://www.w3.org/2000/svg">
<g style="mix-blend-mode:darken">
<path d="M10.8081 15.4062V0.9375H12.2925V15.4062H10.8081ZM0.82375 12.625V1.95312H2.26125V5.8125H6.30812V1.95312H7.74562V12.625H0.82375ZM2.26125 11.2969H6.30812V7.17188H2.26125V11.2969ZM17.6444 15.1875V11.3906H26.285V10H17.5506V8.76562H27.7537V12.5H19.1131V13.9531H28.1287V15.1875H17.6444ZM26.2694 8.125V0.9375H27.7381V8.125H26.2694ZM15.9725 7.29688V1.59375H23.2069V7.29688H15.9725ZM17.41 6.14062H21.7694V2.75H17.41V6.14062ZM33.1681 14.9844V10.7812H34.6369V13.7031H43.34V14.9844H33.1681ZM37.6681 6.15625V4.85938H41.4494V0.9375H42.9181V11.6562H41.4494V6.15625H37.6681ZM31.1838 9.54688V1.59375H32.6056V4.26562H36.8244V1.59375H38.2619V9.54688H31.1838ZM32.6056 8.3125H36.8244V5.5H32.6056V8.3125ZM45.2544 14.2031V12.9219H51.5981V10.375H53.1138V12.9219H59.3794V14.2031H45.2544ZM48.9888 2.67188V1.45312H55.7388V2.67188H48.9888ZM46.3638 5.29688V4.09375H58.3638V5.29688H46.3638ZM47.3169 8.625C47.3169 7.85417 47.7752 7.27604 48.6919 6.89062C49.619 6.50521 50.8429 6.3125 52.3638 6.3125C53.8325 6.3125 55.0408 6.51042 55.9888 6.90625C56.9367 7.30208 57.4106 7.88021 57.4106 8.64062C57.4106 9.40104 56.9367 9.98438 55.9888 10.3906C55.0513 10.7865 53.8429 10.9844 52.3638 10.9844C50.8533 10.9844 49.6346 10.7865 48.7075 10.3906C47.7804 9.99479 47.3169 9.40625 47.3169 8.625ZM48.9575 8.625C48.9575 9.46875 50.0929 9.89062 52.3638 9.89062C54.6346 9.89062 55.77 9.46875 55.77 8.625C55.77 7.82292 54.6346 7.42188 52.3638 7.42188C50.0929 7.42188 48.9575 7.82292 48.9575 8.625Z" fill="black"/>
</g>
</svg>
