<svg width="43" height="16" viewBox="0 0 43 16" fill="none" xmlns="http://www.w3.org/2000/svg">
<g style="mix-blend-mode:darken">
<path d="M1.33562 11.4375V10.1406H11.5387V15.5625H10.07V11.4375H1.33562ZM10.0544 9.3125V0.9375H11.5231V9.3125H10.0544ZM0.0543747 7.65625V1.75H1.5075V6.39062H1.92937C4.25229 6.39062 6.61687 6.22396 9.02312 5.89062V7.07812C6.43979 7.46354 3.68979 7.65625 0.773125 7.65625H0.0543747ZM25.3594 15.4062V0.9375H26.7656V15.4062H25.3594ZM19.3438 7.14062V5.75H22.2031V1.34375H23.5312V14.7656H22.2031V7.14062H19.3438ZM15.1875 12.1719V2.125H16.6406V10.875H16.9688C18.2083 10.875 19.651 10.7812 21.2969 10.5938V11.8281C19.349 12.0573 17.4896 12.1719 15.7188 12.1719H15.1875ZM32.1175 15.1875V10.0625H42.055V15.1875H32.1175ZM33.5863 13.9219H40.5863V11.3125H33.5863V13.9219ZM40.5706 9.26562V0.9375H42.0394V9.26562H40.5706ZM30.0081 4.84375C30.0081 3.82292 30.3727 3 31.1019 2.375C31.8415 1.73958 32.779 1.42188 33.9144 1.42188C35.0394 1.42188 35.9717 1.73958 36.7113 2.375C37.4508 3 37.8206 3.82292 37.8206 4.84375C37.8206 5.86458 37.4508 6.6875 36.7113 7.3125C35.9821 7.9375 35.0498 8.25 33.9144 8.25C32.7581 8.25 31.8154 7.94271 31.0863 7.32812C30.3675 6.70312 30.0081 5.875 30.0081 4.84375ZM31.5081 4.84375C31.5081 5.48958 31.7321 6.02083 32.18 6.4375C32.6279 6.85417 33.206 7.0625 33.9144 7.0625C34.6227 7.0625 35.2008 6.85417 35.6488 6.4375C36.0967 6.01042 36.3206 5.47917 36.3206 4.84375C36.3206 4.20833 36.0967 3.67708 35.6488 3.25C35.2008 2.82292 34.6227 2.60938 33.9144 2.60938C33.2269 2.60938 32.654 2.82812 32.1956 3.26562C31.7373 3.69271 31.5081 4.21875 31.5081 4.84375Z" fill="black"/>
</g>
</svg>
