<svg width="72" height="15" viewBox="0 0 72 15" fill="none" xmlns="http://www.w3.org/2000/svg">
<g style="mix-blend-mode:darken">
<path d="M2.07051 9.48438V5.17773H10.0979V2.81934H1.98262V1.83789H11.2258V6.12988H3.19844V8.48828H11.5041V9.48438H2.07051ZM0.0636711 12.9561V11.9746H6.11348V9.03027H7.2707V11.9746H13.1301V12.9561H0.0636711ZM15.9302 3.41992V2.39453H25.3638C25.3638 5.08008 25.0708 7.6582 24.4849 10.1289H23.3423C23.6255 8.9668 23.8452 7.76562 24.0015 6.52539C24.1577 5.27539 24.2359 4.24023 24.2359 3.41992H15.9302ZM14.1577 12.4727V11.4912H27.2241V12.4727H14.1577ZM29.1454 4.91406C29.1454 3.91797 29.4774 3.1123 30.1414 2.49707C30.8055 1.87207 31.6649 1.55957 32.7196 1.55957C33.7645 1.55957 34.6239 1.86719 35.2977 2.48242C35.9715 3.09766 36.3084 3.9082 36.3084 4.91406C36.3084 5.91992 35.9715 6.73535 35.2977 7.36035C34.6239 7.97559 33.7645 8.2832 32.7196 8.2832C31.6551 8.2832 30.7909 7.97559 30.1268 7.36035C29.4725 6.73535 29.1454 5.91992 29.1454 4.91406ZM30.3026 4.91406C30.3026 5.61719 30.5272 6.19824 30.9764 6.65723C31.4354 7.11621 32.0164 7.3457 32.7196 7.3457C33.4325 7.3457 34.0135 7.11133 34.4627 6.64258C34.912 6.17383 35.1366 5.59766 35.1366 4.91406C35.1366 4.2207 34.912 3.64453 34.4627 3.18555C34.0135 2.7168 33.4325 2.48242 32.7196 2.48242C32.0164 2.48242 31.4354 2.72168 30.9764 3.2002C30.5272 3.66895 30.3026 4.24023 30.3026 4.91406ZM38.9598 10.876V0.958984H40.0877V10.876H38.9598ZM31.2401 13.8936V9.86523H32.368V12.8828H40.5711V13.8936H31.2401ZM47.7973 2.74609V1.69141H52.4995V2.74609H47.7973ZM45.9663 5.5293V4.47461H53.8471V5.5293H45.9663ZM46.5962 9.58691C46.5962 8.7666 46.9233 8.09766 47.5776 7.58008C48.2319 7.05273 49.0815 6.78906 50.1264 6.78906C51.1616 6.78906 52.0063 7.05273 52.6606 7.58008C53.3247 8.09766 53.6567 8.77148 53.6567 9.60156C53.6567 10.4121 53.3296 11.0811 52.6753 11.6084C52.021 12.1357 51.1714 12.3994 50.1264 12.3994C49.0815 12.3994 48.2319 12.1357 47.5776 11.6084C46.9233 11.0713 46.5962 10.3975 46.5962 9.58691ZM47.7534 9.58691C47.7534 10.1045 47.9829 10.5342 48.4419 10.876C48.9106 11.2178 49.4721 11.3887 50.1264 11.3887C50.7612 11.3887 51.313 11.2227 51.7817 10.8906C52.2602 10.5488 52.4995 10.1143 52.4995 9.58691C52.4995 9.0498 52.2651 8.62012 51.7964 8.29785C51.3374 7.96582 50.7807 7.7998 50.1264 7.7998C49.4624 7.7998 48.9009 7.96582 48.4419 8.29785C47.9829 8.62988 47.7534 9.05957 47.7534 9.58691ZM55.6636 14.3184V0.958984H56.7915V7.21387H59.018V8.26855H56.7915V14.3184H55.6636ZM60.2947 11.6816C61.9939 10.6074 63.3611 9.31348 64.3963 7.7998C65.4314 6.28613 65.9539 4.79199 65.9637 3.31738H60.9979V2.27734H67.1648C67.1648 6.33984 65.1434 9.72363 61.1004 12.4287L60.2947 11.6816ZM70.1678 14.3184V0.958984H71.3104V14.3184H70.1678Z" fill="black"/>
</g>
</svg>
