<svg width="74" height="19" viewBox="0 0 74 19" fill="none" xmlns="http://www.w3.org/2000/svg">
<g style="mix-blend-mode:darken">
<path d="M0.960468 16.2773V14.7148H3.05031C7.72479 14.7148 11.4097 14.5716 14.105 14.2852V15.8281C11.2534 16.1276 7.56203 16.2773 3.03078 16.2773H0.960468ZM6.54641 15.2812V11.9805H8.40187V15.2812H6.54641ZM14.7105 18.7578V0.671875H16.5855V18.7578H14.7105ZM4.14406 2.99609V1.51172H10.8433V2.99609H4.14406ZM1.54641 5.92578V4.46094H12.8159V5.92578H1.54641ZM2.36672 9.77344C2.36672 8.88802 2.855 8.20443 3.83156 7.72266C4.82115 7.22786 6.03859 6.98047 7.48391 6.98047C8.9162 6.98047 10.1206 7.22786 11.0972 7.72266C12.0868 8.20443 12.5816 8.88802 12.5816 9.77344C12.5816 10.6589 12.0933 11.349 11.1167 11.8438C10.1402 12.3385 8.92922 12.5859 7.48391 12.5859C6.03859 12.5859 4.82115 12.3385 3.83156 11.8438C2.855 11.349 2.36672 10.6589 2.36672 9.77344ZM4.30031 9.77344C4.30031 10.2292 4.6063 10.5872 5.21828 10.8477C5.83026 11.1081 6.58547 11.2383 7.48391 11.2383C8.3563 11.2383 9.09849 11.1146 9.71047 10.8672C10.3355 10.6068 10.648 10.2422 10.648 9.77344C10.648 9.29167 10.3485 8.93359 9.74953 8.69922C9.15057 8.46484 8.39536 8.34766 7.48391 8.34766C6.57245 8.34766 5.81073 8.47135 5.19875 8.71875C4.59979 8.95312 4.30031 9.30469 4.30031 9.77344ZM23.3748 18.2305V13.5234H25.2108V16.668H36.2655V18.2305H23.3748ZM30.0155 12.5078V11.1016H33.9412V0.671875H35.7772V14.5H33.9412V12.5078H30.0155ZM20.1912 9.98828V8.52344H22.0858C26.2655 8.52344 29.8983 8.29557 32.9842 7.83984V9.30469C31.2394 9.5651 29.2993 9.7474 27.1639 9.85156V13.2109H25.3866V9.92969C24.1886 9.96875 23.0819 9.98828 22.0662 9.98828H20.1912ZM21.7537 4.05078C21.7537 3.11328 22.216 2.37109 23.1405 1.82422C24.078 1.27734 25.2564 1.00391 26.6756 1.00391C28.0819 1.00391 29.2537 1.27734 30.1912 1.82422C31.1418 2.37109 31.617 3.11328 31.617 4.05078C31.617 5.0013 31.1483 5.75 30.2108 6.29688C29.2733 6.84375 28.0949 7.11719 26.6756 7.11719C25.2433 7.11719 24.0649 6.84375 23.1405 6.29688C22.216 5.75 21.7537 5.0013 21.7537 4.05078ZM23.6092 4.05078C23.6092 4.55859 23.9022 4.96224 24.4881 5.26172C25.0871 5.5612 25.8162 5.71094 26.6756 5.71094C27.548 5.71094 28.2772 5.5612 28.8631 5.26172C29.4621 4.96224 29.7616 4.55859 29.7616 4.05078C29.7616 3.55599 29.4621 3.15885 28.8631 2.85938C28.2642 2.54688 27.535 2.39062 26.6756 2.39062C25.8423 2.39062 25.1196 2.54688 24.5077 2.85938C23.9087 3.17188 23.6092 3.56901 23.6092 4.05078ZM51.6681 18.7578V0.671875H53.5236V8.32812H56.5119V10.1055H53.5236V18.7578H51.6681ZM39.0509 15.0078C41.2645 13.5755 43.0158 11.8698 44.3048 9.89062C45.5939 7.89844 46.2515 5.95833 46.2775 4.07031H39.9884V2.41016H48.2111C48.2111 7.99609 45.5874 12.5924 40.34 16.1992L39.0509 15.0078ZM61.563 18.4648V11.1992H63.3598V13.1328H72.1684V11.1992H73.9653V18.4648H61.563ZM63.3598 16.9219H72.1684V14.5977H63.3598V16.9219ZM72.1098 10.4375V0.671875H73.9458V10.4375H72.1098ZM58.9263 5.45703C58.9263 4.20703 59.382 3.19792 60.2934 2.42969C61.2179 1.64844 62.3898 1.25781 63.8091 1.25781C65.2153 1.25781 66.3807 1.64193 67.3052 2.41016C68.2427 3.17839 68.7114 4.19401 68.7114 5.45703C68.7114 6.72005 68.2492 7.73568 67.3247 8.50391C66.4002 9.27214 65.2283 9.65625 63.8091 9.65625C62.3638 9.65625 61.1854 9.27214 60.2739 8.50391C59.3755 7.73568 58.9263 6.72005 58.9263 5.45703ZM60.8013 5.45703C60.8013 6.2513 61.0812 6.90885 61.6411 7.42969C62.201 7.9375 62.9236 8.19141 63.8091 8.19141C64.6945 8.19141 65.4171 7.93099 65.977 7.41016C66.5499 6.88932 66.8364 6.23828 66.8364 5.45703C66.8364 4.67578 66.5499 4.02474 65.977 3.50391C65.4171 2.98307 64.6945 2.72266 63.8091 2.72266C62.9497 2.72266 62.2335 2.98958 61.6606 3.52344C61.0877 4.04427 60.8013 4.6888 60.8013 5.45703Z" fill="black"/>
</g>
</svg>
