<svg width="33" height="12" viewBox="0 0 33 12" fill="none" xmlns="http://www.w3.org/2000/svg">
<g style="mix-blend-mode:darken">
<path d="M0.234062 8.88672C0.780937 8.45703 1.27703 7.96875 1.72234 7.42188C2.16766 6.875 2.55828 6.17969 2.89422 5.33594C3.23016 4.49219 3.39812 3.61328 3.39812 2.69922V0.953125H4.27703V2.66406C4.27703 3.35156 4.37859 4.02344 4.58172 4.67969C4.79266 5.33594 5.06609 5.91016 5.40203 6.40234C5.73797 6.89453 6.05437 7.30859 6.35125 7.64453C6.64812 7.97266 6.94891 8.25781 7.25359 8.5L6.60906 9.09766C6.16375 8.73828 5.65984 8.18359 5.09734 7.43359C4.53484 6.67578 4.12859 5.92188 3.87859 5.17188C3.67547 5.92188 3.28484 6.70312 2.70672 7.51562C2.12859 8.32031 1.54656 8.96875 0.960625 9.46094L0.234062 8.88672ZM8.36687 11.0547V0.367188H9.26922V5.00781H11.0856V5.86328H9.26922V11.0547H8.36687ZM12.5352 5.07812C12.5352 3.85938 12.7695 2.86719 13.2383 2.10156C13.7148 1.33594 14.3711 0.953125 15.207 0.953125C16.0273 0.953125 16.6797 1.33594 17.1641 2.10156C17.6484 2.86719 17.8906 3.85938 17.8906 5.07812C17.8906 6.28906 17.6523 7.28125 17.1758 8.05469C16.6992 8.82031 16.043 9.20312 15.207 9.20312C14.3633 9.20312 13.707 8.82031 13.2383 8.05469C12.7695 7.28906 12.5352 6.29688 12.5352 5.07812ZM13.4609 5.07812C13.4609 6.03125 13.6094 6.82031 13.9062 7.44531C14.2031 8.07031 14.6367 8.38281 15.207 8.38281C15.7773 8.38281 16.2109 8.06641 16.5078 7.43359C16.8047 6.79297 16.9531 6.00781 16.9531 5.07812C16.9531 4.13281 16.8047 3.34766 16.5078 2.72266C16.2188 2.08984 15.7852 1.77344 15.207 1.77344C14.6289 1.77344 14.1914 2.09375 13.8945 2.73438C13.6055 3.36719 13.4609 4.14844 13.4609 5.07812ZM20.2227 11.0547V0.367188H21.1367V11.0547H20.2227ZM23.7816 6.91797V3.63672H27.0863V1.84375H23.7347V1.10547H27.9534V4.33984H24.6605V6.19141H24.93C26.1566 6.19141 27.4066 6.12109 28.68 5.98047V6.68359C27.2347 6.83984 25.7542 6.91797 24.2386 6.91797H23.7816ZM31.6917 8.57031V0.367188H32.5238V8.57031H31.6917ZM28.3753 4.29297V3.50781H29.5941V0.507812H30.3558V8.30078H29.5941V4.29297H28.3753ZM25.1995 10.7852V7.92578H26.1019V10H32.7933V10.7852H25.1995Z" fill="black"/>
</g>
</svg>
