<svg width="31" height="34" viewBox="0 0 31 34" fill="none" xmlns="http://www.w3.org/2000/svg">
<path d="M14.5312 2.125V1.0625C14.5312 0.780707 14.6333 0.510456 14.815 0.311199C14.9967 0.111942 15.2431 0 15.5 0C15.7569 0 16.0033 0.111942 16.185 0.311199C16.3667 0.510456 16.4688 0.780707 16.4688 1.0625V2.125C16.4688 2.40679 16.3667 2.67704 16.185 2.8763C16.0033 3.07556 15.7569 3.1875 15.5 3.1875C15.2431 3.1875 14.9967 3.07556 14.815 2.8763C14.6333 2.67704 14.5312 2.40679 14.5312 2.125ZM24.2188 6.375C24.346 6.37511 24.472 6.34772 24.5896 6.29439C24.7072 6.24107 24.8141 6.16286 24.9041 6.06422L25.8729 5.00172C26.0547 4.80235 26.1568 4.53195 26.1568 4.25C26.1568 3.96805 26.0547 3.69765 25.8729 3.49828C25.6911 3.29891 25.4446 3.18691 25.1875 3.18691C24.9304 3.18691 24.6839 3.29891 24.5021 3.49828L23.5334 4.56078C23.3977 4.70938 23.3053 4.89877 23.2679 5.10499C23.2305 5.3112 23.2496 5.52496 23.323 5.71921C23.3964 5.91346 23.5207 6.07947 23.6801 6.1962C23.8396 6.31294 24.027 6.37517 24.2188 6.375ZM6.09586 6.06422C6.27764 6.26359 6.52418 6.37559 6.78125 6.37559C7.03832 6.37559 7.28486 6.26359 7.46664 6.06422C7.64842 5.86485 7.75054 5.59445 7.75054 5.3125C7.75054 5.03055 7.64842 4.76015 7.46664 4.56078L6.49789 3.49828C6.31611 3.29891 6.06957 3.18691 5.8125 3.18691C5.55543 3.18691 5.30889 3.29891 5.12711 3.49828C4.94533 3.69765 4.84321 3.96805 4.84321 4.25C4.84321 4.53195 4.94533 4.80235 5.12711 5.00172L6.09586 6.06422ZM28.0938 23.375V26.5625C28.0938 27.1261 27.8896 27.6666 27.5263 28.0651C27.1629 28.4636 26.6701 28.6875 26.1562 28.6875H4.84375C4.32989 28.6875 3.83708 28.4636 3.47373 28.0651C3.11038 27.6666 2.90625 27.1261 2.90625 26.5625V23.375C2.90625 22.8114 3.11038 22.2709 3.47373 21.8724C3.83708 21.4739 4.32989 21.25 4.84375 21.25V17C4.84371 15.4577 5.12201 13.9306 5.6626 12.5067C6.20319 11.0829 6.99539 9.79053 7.99352 8.70407C8.99166 7.61761 10.176 6.75858 11.4782 6.17649C12.7805 5.5944 14.1749 5.30076 15.5811 5.3125C21.4118 5.36031 26.1562 10.6635 26.1562 17.1328V21.25C26.6701 21.25 27.1629 21.4739 27.5263 21.8724C27.8896 22.2709 28.0938 22.8114 28.0938 23.375ZM16.3089 11.6729C18.6085 12.0966 20.3438 14.3862 20.3438 17C20.3438 17.2818 20.4458 17.552 20.6275 17.7513C20.8092 17.9506 21.0556 18.0625 21.3125 18.0625C21.5694 18.0625 21.8158 17.9506 21.9975 17.7513C22.1792 17.552 22.2812 17.2818 22.2812 17C22.2812 13.3609 19.8509 10.1695 16.6286 9.57711C16.5026 9.55267 16.3734 9.55585 16.2485 9.58648C16.1236 9.61711 16.0055 9.67457 15.901 9.75555C15.7964 9.83653 15.7076 9.93942 15.6395 10.0583C15.5715 10.1771 15.5255 10.3096 15.5044 10.4481C15.4833 10.5865 15.4874 10.7281 15.5165 10.8648C15.5456 11.0015 15.5991 11.1305 15.6739 11.2444C15.7487 11.3583 15.8433 11.4548 15.9523 11.5283C16.0613 11.6019 16.1825 11.651 16.3089 11.6729ZM26.1562 26.5625V23.375H4.84375V26.5625H26.1562Z" fill="#FE9738"/>
</svg>
