<svg width="46" height="19" viewBox="0 0 46 19" fill="none" xmlns="http://www.w3.org/2000/svg">
<g style="mix-blend-mode:darken">
<path d="M1.40712 15.528C0.991125 15.016 0.783125 14.56 0.783125 14.16C0.783125 13.744 1.12712 13.2 1.81512 12.528C2.21512 12.144 2.63912 11.952 3.08712 11.952C3.53512 11.952 4.15912 12.352 4.95912 13.152C5.18312 13.424 5.50312 13.688 5.91912 13.944C6.33512 14.184 6.71912 14.304 7.07112 14.304C8.55912 14.304 9.30313 13.696 9.30313 12.48C9.30313 12.112 9.09512 11.808 8.67912 11.568C8.27912 11.312 7.77513 11.128 7.16712 11.016C6.55912 10.904 5.90312 10.728 5.19912 10.488C4.49512 10.232 3.83912 9.936 3.23112 9.6C2.62312 9.264 2.11112 8.736 1.69512 8.016C1.29512 7.28 1.09512 6.4 1.09512 5.376C1.09512 3.968 1.61512 2.744 2.65512 1.704C3.71112 0.647999 5.14312 0.119998 6.95112 0.119998C7.91112 0.119998 8.78312 0.247999 9.56713 0.503999C10.3671 0.743999 10.9191 0.991999 11.2231 1.248L11.8231 1.704C12.3191 2.168 12.5671 2.56 12.5671 2.88C12.5671 3.2 12.3751 3.64 11.9911 4.2C11.4471 5 10.8871 5.4 10.3111 5.4C9.97513 5.4 9.55912 5.24 9.06312 4.92C9.01512 4.888 8.91912 4.808 8.77512 4.68C8.64713 4.552 8.52713 4.448 8.41513 4.368C8.07913 4.16 7.64713 4.056 7.11912 4.056C6.60712 4.056 6.17512 4.184 5.82312 4.44C5.48712 4.68 5.31912 5.024 5.31912 5.472C5.31912 5.904 5.51912 6.256 5.91912 6.528C6.33512 6.8 6.84712 6.984 7.45512 7.08C8.06312 7.176 8.72712 7.328 9.44712 7.536C10.1671 7.728 10.8311 7.968 11.4391 8.256C12.0471 8.544 12.5511 9.048 12.9511 9.768C13.3671 10.472 13.5751 11.344 13.5751 12.384C13.5751 13.424 13.3671 14.344 12.9511 15.144C12.5351 15.928 11.9911 16.536 11.3191 16.968C10.0231 17.816 8.63912 18.24 7.16712 18.24C6.41512 18.24 5.70312 18.152 5.03112 17.976C4.35912 17.784 3.81512 17.552 3.39912 17.28C2.55112 16.768 1.95912 16.272 1.62312 15.792L1.40712 15.528ZM23.0713 0.191999C25.4393 0.191999 27.4953 1.048 29.2393 2.76C30.9833 4.472 31.8553 6.6 31.8553 9.144C31.8553 11.672 31.0233 13.832 29.3593 15.624C27.6953 17.4 25.6473 18.288 23.2153 18.288C20.7833 18.288 18.7113 17.408 16.9993 15.648C15.3033 13.888 14.4553 11.792 14.4553 9.36C14.4553 8.032 14.6953 6.792 15.1753 5.64C15.6553 4.472 16.2953 3.496 17.0953 2.712C17.8953 1.928 18.8153 1.312 19.8553 0.863999C20.8953 0.415999 21.9673 0.191999 23.0713 0.191999ZM18.7033 9.24C18.7033 10.664 19.1593 11.824 20.0713 12.72C20.9993 13.6 22.0313 14.04 23.1673 14.04C24.3033 14.04 25.3273 13.608 26.2393 12.744C27.1513 11.88 27.6073 10.72 27.6073 9.264C27.6073 7.808 27.1433 6.64 26.2153 5.76C25.3033 4.88 24.2793 4.44 23.1433 4.44C22.0073 4.44 20.9833 4.888 20.0713 5.784C19.1593 6.664 18.7033 7.816 18.7033 9.24ZM33.3687 15.528C32.9527 15.016 32.7447 14.56 32.7447 14.16C32.7447 13.744 33.0887 13.2 33.7767 12.528C34.1767 12.144 34.6007 11.952 35.0487 11.952C35.4967 11.952 36.1207 12.352 36.9207 13.152C37.1447 13.424 37.4647 13.688 37.8807 13.944C38.2967 14.184 38.6807 14.304 39.0327 14.304C40.5207 14.304 41.2647 13.696 41.2647 12.48C41.2647 12.112 41.0567 11.808 40.6407 11.568C40.2407 11.312 39.7367 11.128 39.1287 11.016C38.5207 10.904 37.8647 10.728 37.1607 10.488C36.4567 10.232 35.8007 9.936 35.1927 9.6C34.5847 9.264 34.0727 8.736 33.6567 8.016C33.2567 7.28 33.0567 6.4 33.0567 5.376C33.0567 3.968 33.5767 2.744 34.6167 1.704C35.6727 0.647999 37.1047 0.119998 38.9127 0.119998C39.8727 0.119998 40.7447 0.247999 41.5287 0.503999C42.3287 0.743999 42.8807 0.991999 43.1847 1.248L43.7847 1.704C44.2807 2.168 44.5287 2.56 44.5287 2.88C44.5287 3.2 44.3367 3.64 43.9527 4.2C43.4087 5 42.8487 5.4 42.2727 5.4C41.9367 5.4 41.5207 5.24 41.0247 4.92C40.9767 4.888 40.8807 4.808 40.7367 4.68C40.6087 4.552 40.4887 4.448 40.3767 4.368C40.0407 4.16 39.6087 4.056 39.0807 4.056C38.5687 4.056 38.1367 4.184 37.7847 4.44C37.4487 4.68 37.2807 5.024 37.2807 5.472C37.2807 5.904 37.4807 6.256 37.8807 6.528C38.2967 6.8 38.8087 6.984 39.4167 7.08C40.0247 7.176 40.6887 7.328 41.4087 7.536C42.1287 7.728 42.7927 7.968 43.4007 8.256C44.0087 8.544 44.5127 9.048 44.9127 9.768C45.3287 10.472 45.5367 11.344 45.5367 12.384C45.5367 13.424 45.3287 14.344 44.9127 15.144C44.4967 15.928 43.9527 16.536 43.2807 16.968C41.9847 17.816 40.6007 18.24 39.1287 18.24C38.3767 18.24 37.6647 18.152 36.9927 17.976C36.3207 17.784 35.7767 17.552 35.3607 17.28C34.5127 16.768 33.9207 16.272 33.5847 15.792L33.3687 15.528Z" fill="black"/>
</g>
</svg>
