<svg width="48" height="10" viewBox="0 0 48 10" fill="none" xmlns="http://www.w3.org/2000/svg">
<g style="mix-blend-mode:darken">
<path d="M0.546282 7.36438L1.41347 7.05969C1.93691 7.96594 2.74941 8.41907 3.85097 8.41907C4.46034 8.41907 4.95644 8.27063 5.33925 7.97375C5.72206 7.67688 5.91347 7.27063 5.91347 6.755C5.91347 6.49719 5.85878 6.27063 5.74941 6.07532C5.64003 5.87219 5.46425 5.69641 5.22206 5.54797C4.98769 5.39954 4.76894 5.28235 4.56581 5.19641C4.36269 5.11047 4.08534 5.00891 3.73378 4.89172C3.45253 4.79797 3.25331 4.73157 3.13613 4.6925C3.01894 4.65344 2.83144 4.58313 2.57363 4.48157C2.32363 4.38 2.13613 4.29016 2.01113 4.21204C1.89394 4.13391 1.7455 4.02844 1.56581 3.89563C1.38613 3.755 1.25331 3.61438 1.16738 3.47375C1.08925 3.33313 1.01503 3.16516 0.944719 2.96985C0.882219 2.76672 0.850969 2.55188 0.850969 2.32532C0.850969 1.63 1.11659 1.07532 1.64784 0.661255C2.17909 0.23938 2.89003 0.0284424 3.78066 0.0284424C4.46034 0.0284424 5.05019 0.184692 5.55019 0.497192C6.058 0.809692 6.42128 1.20032 6.64003 1.66907L5.84316 1.95032C5.38222 1.20032 4.68691 0.825317 3.75722 0.825317C3.14784 0.825317 2.67128 0.962036 2.32753 1.23547C1.98378 1.50891 1.81191 1.87219 1.81191 2.32532C1.81191 2.52844 1.85878 2.71985 1.95253 2.89954C2.04628 3.07141 2.14784 3.21204 2.25722 3.32141C2.37441 3.42297 2.558 3.53625 2.808 3.66125C3.06581 3.77844 3.26503 3.86438 3.40566 3.91907C3.55409 3.96594 3.79238 4.04407 4.1205 4.15344C4.19863 4.17688 4.25722 4.19641 4.29628 4.21204C4.67909 4.33704 4.99941 4.45813 5.25722 4.57532C5.51503 4.6925 5.78066 4.84875 6.05409 5.04407C6.32753 5.23938 6.53066 5.47766 6.66347 5.75891C6.80409 6.03235 6.87441 6.35266 6.87441 6.71985C6.87441 7.50891 6.59706 8.1261 6.04238 8.57141C5.4955 9.00891 4.75722 9.22766 3.82753 9.22766C3.03066 9.22766 2.35488 9.05969 1.80019 8.72375C1.2455 8.38782 0.827532 7.93469 0.546282 7.36438ZM7.26925 3.47375V2.71204H8.37081V0.696411H9.28487V2.71204H10.9489V3.47375H9.28487V7.16516C9.28487 7.55579 9.35909 7.83313 9.50753 7.99719C9.65597 8.16125 9.89425 8.24329 10.2224 8.24329H10.9489V9.01672H10.1052C8.94894 9.01672 8.37081 8.42688 8.37081 7.24719V3.47375H7.26925ZM12.3985 7.39954C12.3985 7.69641 12.5235 7.95032 12.7735 8.16125C13.0235 8.36438 13.3672 8.46594 13.8047 8.46594C14.3594 8.46594 14.8321 8.28625 15.2227 7.92688C15.6211 7.5675 15.8203 7.11047 15.8203 6.55579V5.67688C15.4766 5.76282 14.9297 5.86438 14.1797 5.98157C13.5703 6.09094 13.1211 6.25891 12.8321 6.48547C12.543 6.71204 12.3985 7.01672 12.3985 7.39954ZM11.4844 7.46985C11.4844 6.29797 12.3907 5.57141 14.2032 5.29016C15.0157 5.15735 15.5547 5.04797 15.8203 4.96204V4.59875C15.8203 4.20813 15.6797 3.88391 15.3985 3.6261C15.1172 3.36829 14.7188 3.23938 14.2032 3.23938C13.8282 3.23938 13.4649 3.32922 13.1133 3.50891C12.7696 3.68079 12.4766 3.91516 12.2344 4.21204L11.6485 3.71985C11.961 3.36047 12.336 3.0675 12.7735 2.84094C13.2188 2.61438 13.6875 2.5011 14.1797 2.5011C15.8672 2.5011 16.711 3.32532 16.711 4.97375V9.01672H15.8438V7.98547C15.7188 8.32141 15.461 8.61438 15.0703 8.86438C14.6797 9.10657 14.2188 9.22766 13.6875 9.22766C12.9922 9.22766 12.4492 9.0636 12.0586 8.73547C11.6758 8.40735 11.4844 7.98547 11.4844 7.46985ZM18.2074 9.01672V2.71204H19.0746V3.6261C19.1996 3.34485 19.4066 3.08704 19.6957 2.85266C19.9847 2.61829 20.3558 2.5011 20.8089 2.5011C21.1449 2.5011 21.4417 2.55579 21.6996 2.66516V3.48547C21.4183 3.3761 21.1214 3.32141 20.8089 3.32141C20.2777 3.32141 19.8636 3.52063 19.5667 3.91907C19.2699 4.3175 19.1214 4.84485 19.1214 5.5011V9.01672H18.2074ZM21.8132 3.47375V2.71204H22.9147V0.696411H23.8288V2.71204H25.4928V3.47375H23.8288V7.16516C23.8288 7.55579 23.903 7.83313 24.0514 7.99719C24.1999 8.16125 24.4382 8.24329 24.7663 8.24329H25.4928V9.01672H24.6491C23.4928 9.01672 22.9147 8.42688 22.9147 7.24719V3.47375H21.8132ZM28.6146 7.36438L29.4818 7.05969C30.0052 7.96594 30.8177 8.41907 31.9193 8.41907C32.5286 8.41907 33.0247 8.27063 33.4075 7.97375C33.7903 7.67688 33.9818 7.27063 33.9818 6.755C33.9818 6.49719 33.9271 6.27063 33.8177 6.07532C33.7083 5.87219 33.5325 5.69641 33.2903 5.54797C33.056 5.39954 32.8372 5.28235 32.6341 5.19641C32.431 5.11047 32.1536 5.00891 31.8021 4.89172C31.5208 4.79797 31.3216 4.73157 31.2044 4.6925C31.0872 4.65344 30.8997 4.58313 30.6419 4.48157C30.3919 4.38 30.2044 4.29016 30.0794 4.21204C29.9622 4.13391 29.8138 4.02844 29.6341 3.89563C29.4544 3.755 29.3216 3.61438 29.2357 3.47375C29.1575 3.33313 29.0833 3.16516 29.013 2.96985C28.9505 2.76672 28.9193 2.55188 28.9193 2.32532C28.9193 1.63 29.1849 1.07532 29.7161 0.661255C30.2474 0.23938 30.9583 0.0284424 31.8489 0.0284424C32.5286 0.0284424 33.1185 0.184692 33.6185 0.497192C34.1263 0.809692 34.4896 1.20032 34.7083 1.66907L33.9114 1.95032C33.4505 1.20032 32.7552 0.825317 31.8255 0.825317C31.2161 0.825317 30.7396 0.962036 30.3958 1.23547C30.0521 1.50891 29.8802 1.87219 29.8802 2.32532C29.8802 2.52844 29.9271 2.71985 30.0208 2.89954C30.1146 3.07141 30.2161 3.21204 30.3255 3.32141C30.4427 3.42297 30.6263 3.53625 30.8763 3.66125C31.1341 3.77844 31.3333 3.86438 31.4739 3.91907C31.6224 3.96594 31.8607 4.04407 32.1888 4.15344C32.2669 4.17688 32.3255 4.19641 32.3646 4.21204C32.7474 4.33704 33.0677 4.45813 33.3255 4.57532C33.5833 4.6925 33.8489 4.84875 34.1224 5.04407C34.3958 5.23938 34.5989 5.47766 34.7318 5.75891C34.8724 6.03235 34.9427 6.35266 34.9427 6.71985C34.9427 7.50891 34.6653 8.1261 34.1107 8.57141C33.5638 9.00891 32.8255 9.22766 31.8958 9.22766C31.0989 9.22766 30.4232 9.05969 29.8685 8.72375C29.3138 8.38782 28.8958 7.93469 28.6146 7.36438ZM34.9508 1.03625V0.23938H41.2321V1.03625H38.5602V9.01672H37.6227V1.03625H34.9508ZM41.416 1.03625V0.23938H47.6972V1.03625H45.0253V9.01672H44.0878V1.03625H41.416Z" fill="black"/>
</g>
</svg>
