<svg width="24" height="12" viewBox="0 0 24 12" fill="none" xmlns="http://www.w3.org/2000/svg">
<g style="mix-blend-mode:darken">
<path d="M0.273624 7.36438L1.14081 7.05969C1.66425 7.96594 2.47675 8.41907 3.57831 8.41907C4.18769 8.41907 4.68378 8.27063 5.06659 7.97375C5.44941 7.67688 5.64081 7.27063 5.64081 6.755C5.64081 6.49719 5.58612 6.27063 5.47675 6.07532C5.36737 5.87219 5.19159 5.69641 4.94941 5.54797C4.71503 5.39954 4.49628 5.28235 4.29316 5.19641C4.09003 5.11047 3.81269 5.00891 3.46112 4.89172C3.17987 4.79797 2.98066 4.73157 2.86347 4.6925C2.74628 4.65344 2.55878 4.58313 2.30097 4.48157C2.05097 4.38 1.86347 4.29016 1.73847 4.21204C1.62128 4.13391 1.47284 4.02844 1.29316 3.89563C1.11347 3.755 0.980656 3.61438 0.894718 3.47375C0.816593 3.33313 0.742374 3.16516 0.672062 2.96985C0.609562 2.76672 0.578312 2.55188 0.578312 2.32532C0.578312 1.63 0.843937 1.07532 1.37519 0.661255C1.90644 0.23938 2.61737 0.0284424 3.508 0.0284424C4.18769 0.0284424 4.77753 0.184692 5.27753 0.497192C5.78534 0.809692 6.14862 1.20032 6.36737 1.66907L5.5705 1.95032C5.10956 1.20032 4.41425 0.825317 3.48456 0.825317C2.87519 0.825317 2.39862 0.962036 2.05487 1.23547C1.71112 1.50891 1.53925 1.87219 1.53925 2.32532C1.53925 2.52844 1.58612 2.71985 1.67987 2.89954C1.77362 3.07141 1.87519 3.21204 1.98456 3.32141C2.10175 3.42297 2.28534 3.53625 2.53534 3.66125C2.79316 3.77844 2.99237 3.86438 3.133 3.91907C3.28144 3.96594 3.51972 4.04407 3.84784 4.15344C3.92597 4.17688 3.98456 4.19641 4.02362 4.21204C4.40644 4.33704 4.72675 4.45813 4.98456 4.57532C5.24237 4.6925 5.508 4.84875 5.78144 5.04407C6.05487 5.23938 6.258 5.47766 6.39081 5.75891C6.53144 6.03235 6.60175 6.35266 6.60175 6.71985C6.60175 7.50891 6.32441 8.1261 5.76972 8.57141C5.22284 9.00891 4.48456 9.22766 3.55487 9.22766C2.758 9.22766 2.08222 9.05969 1.52753 8.72375C0.972843 8.38782 0.554874 7.93469 0.273624 7.36438ZM6.99659 3.47375V2.71204H8.09816V0.696411H9.01222V2.71204H10.6763V3.47375H9.01222V7.16516C9.01222 7.55579 9.08644 7.83313 9.23487 7.99719C9.38331 8.16125 9.62159 8.24329 9.94972 8.24329H10.6763V9.01672H9.83253C8.67628 9.01672 8.09816 8.42688 8.09816 7.24719V3.47375H6.99659ZM12.1493 5.86438C12.1493 6.66125 12.3328 7.29407 12.7 7.76282C13.0672 8.23157 13.5243 8.46594 14.0711 8.46594C14.6102 8.46594 15.0633 8.23157 15.4305 7.76282C15.8055 7.29407 15.993 6.66125 15.993 5.86438C15.993 5.05188 15.8055 4.41516 15.4305 3.95422C15.0555 3.49329 14.6024 3.26282 14.0711 3.26282C13.5321 3.26282 13.075 3.49329 12.7 3.95422C12.3328 4.41516 12.1493 5.05188 12.1493 5.86438ZM11.2352 5.86438C11.2352 4.90344 11.4813 4.10266 11.9735 3.46204C12.4735 2.82141 13.1727 2.5011 14.0711 2.5011C14.9618 2.5011 15.6571 2.82141 16.1571 3.46204C16.6571 4.10266 16.9071 4.90344 16.9071 5.86438C16.9071 6.27063 16.8524 6.66516 16.743 7.04797C16.6414 7.43079 16.4813 7.79016 16.2625 8.1261C16.0516 8.45422 15.7547 8.71985 15.3719 8.92297C14.9969 9.1261 14.5633 9.22766 14.0711 9.22766C13.5868 9.22766 13.1532 9.13 12.7703 8.93469C12.3953 8.73157 12.0985 8.46594 11.8797 8.13782C11.6688 7.80188 11.5086 7.4425 11.3993 7.05969C11.2899 6.67688 11.2352 6.27844 11.2352 5.86438ZM19.0011 5.85266C19.0011 6.63391 19.1613 7.26672 19.4816 7.7511C19.8019 8.22766 20.2433 8.46594 20.8058 8.46594C21.3371 8.46594 21.7785 8.23157 22.13 7.76282C22.4816 7.29407 22.6574 6.65735 22.6574 5.85266C22.6574 5.09485 22.4894 4.47375 22.1535 3.98938C21.8253 3.505 21.3761 3.26282 20.8058 3.26282C20.2746 3.26282 19.841 3.50891 19.505 4.0011C19.1691 4.48547 19.0011 5.10266 19.0011 5.85266ZM18.1105 11.7706V2.71204H18.9777V3.84875C19.1574 3.4425 19.4152 3.11829 19.7511 2.8761C20.0949 2.6261 20.4855 2.5011 20.923 2.5011C21.6886 2.5011 22.3214 2.80579 22.8214 3.41516C23.3214 4.02454 23.5714 4.83704 23.5714 5.85266C23.5714 6.9386 23.3097 7.77454 22.7863 8.36047C22.2628 8.9386 21.6418 9.22766 20.923 9.22766C20.4543 9.22766 20.0558 9.10657 19.7277 8.86438C19.3996 8.61438 19.1574 8.30188 19.0011 7.92688V11.7706H18.1105Z" fill="black"/>
</g>
</svg>
