<svg width="43" height="12" viewBox="0 0 43 12" fill="none" xmlns="http://www.w3.org/2000/svg">
<g style="mix-blend-mode:darken">
<path d="M0.108906 5.75781C0.405781 5.65625 0.718281 5.51172 1.04641 5.32422C1.38234 5.12891 1.71437 4.89844 2.0425 4.63281C2.37844 4.35938 2.65969 4.04297 2.88625 3.68359C3.11281 3.31641 3.23 2.94531 3.23781 2.57031V1.76172H0.694843V0.988281H6.70656V1.76172H4.21047V2.53516C4.22609 2.96484 4.40578 3.39453 4.74953 3.82422C5.10109 4.24609 5.46828 4.58594 5.85109 4.84375C6.24172 5.10156 6.64406 5.32422 7.05812 5.51172L6.58937 6.13281C6.07375 5.92188 5.53078 5.59766 4.96047 5.16016C4.39016 4.71484 3.98391 4.29297 3.74172 3.89453C3.48391 4.33203 3.05031 4.79688 2.44094 5.28906C1.83937 5.77344 1.23 6.14062 0.612812 6.39062L0.108906 5.75781ZM6.19094 3.73047V2.94531H8.52297V0.367188H9.42531V6.13281H8.52297V3.73047H6.19094ZM2.19484 10.8789V6.55469H3.08547V7.79688H8.54641V6.55469H9.43703V10.8789H2.19484ZM3.08547 10.082H8.54641V8.54688H3.08547V10.082ZM11.7537 4.63281C12.4256 4.42188 13.0702 4.14453 13.6873 3.80078C14.3045 3.45703 14.8358 3.03906 15.2811 2.54688C15.7342 2.05469 15.9608 1.5625 15.9608 1.07031V0.496094H16.8631V1.05859C16.8631 1.42578 16.9959 1.80078 17.2616 2.18359C17.5272 2.56641 17.867 2.91406 18.2811 3.22656C18.703 3.53125 19.1522 3.80859 19.6287 4.05859C20.1053 4.30078 20.578 4.49219 21.0467 4.63281L20.5897 5.30078C19.7694 5.06641 18.953 4.67578 18.1405 4.12891C17.328 3.58203 16.7498 3.01562 16.4061 2.42969C16.0936 3.00781 15.5311 3.56641 14.7186 4.10547C13.9139 4.64453 13.0819 5.04688 12.2225 5.3125L11.7537 4.63281ZM11.1327 7.36328V6.57812H21.5858V7.36328H16.8397V11.0781H15.9373V7.36328H11.1327ZM24.0314 1.79688V0.953125H27.7931V1.79688H24.0314ZM22.5666 4.02344V3.17969H28.8713V4.02344H22.5666ZM23.0705 7.26953C23.0705 6.61328 23.3322 6.07812 23.8556 5.66406C24.3791 5.24219 25.0588 5.03125 25.8947 5.03125C26.7228 5.03125 27.3986 5.24219 27.922 5.66406C28.4533 6.07812 28.7189 6.61719 28.7189 7.28125C28.7189 7.92969 28.4572 8.46484 27.9338 8.88672C27.4103 9.30859 26.7306 9.51953 25.8947 9.51953C25.0588 9.51953 24.3791 9.30859 23.8556 8.88672C23.3322 8.45703 23.0705 7.91797 23.0705 7.26953ZM23.9963 7.26953C23.9963 7.68359 24.1798 8.02734 24.547 8.30078C24.922 8.57422 25.3713 8.71094 25.8947 8.71094C26.4025 8.71094 26.8439 8.57812 27.2189 8.3125C27.6017 8.03906 27.7931 7.69141 27.7931 7.26953C27.7931 6.83984 27.6056 6.49609 27.2306 6.23828C26.8634 5.97266 26.4181 5.83984 25.8947 5.83984C25.3634 5.83984 24.9142 5.97266 24.547 6.23828C24.1798 6.50391 23.9963 6.84766 23.9963 7.26953ZM30.3244 11.0547V0.367188H31.2267V5.37109H33.008V6.21484H31.2267V11.0547H30.3244ZM33.9653 8.94531C35.3247 8.08594 36.4184 7.05078 37.2466 5.83984C38.0747 4.62891 38.4927 3.43359 38.5005 2.25391H34.5278V1.42188H39.4614C39.4614 4.67188 37.8442 7.37891 34.6098 9.54297L33.9653 8.94531ZM41.8638 11.0547V0.367188H42.7778V11.0547H41.8638Z" fill="black"/>
</g>
</svg>
