<svg width="253" height="22" viewBox="0 0 253 22" fill="none" xmlns="http://www.w3.org/2000/svg">
<g style="mix-blend-mode:darken" filter="url(#filter0_d_331_542)">
<path d="M5.86699 13.0664V8.56836H14.9861V13.0664H5.86699ZM7.60332 11.6582H13.2498V9.97656H7.60332V11.6582ZM4.0623 7.50195V6.03906H16.7225V7.50195H4.0623ZM5.48418 2.7168C5.48418 2.18815 5.7166 1.74154 6.18144 1.37695C6.6554 1.00326 7.25241 0.734375 7.97246 0.570312C8.70162 0.40625 9.51738 0.324219 10.4197 0.324219C11.3038 0.324219 12.1105 0.40625 12.8396 0.570312C13.5688 0.734375 14.1704 1.00326 14.6443 1.37695C15.1183 1.75065 15.3553 2.19727 15.3553 2.7168C15.3553 3.23633 15.1183 3.68294 14.6443 4.05664C14.1704 4.43034 13.5688 4.69922 12.8396 4.86328C12.1105 5.02734 11.3038 5.10938 10.4197 5.10938C9.00696 5.10938 7.83118 4.9043 6.89238 4.49414C5.95358 4.08398 5.48418 3.49154 5.48418 2.7168ZM7.39824 2.7168C7.39824 3.08138 7.68991 3.35026 8.27324 3.52344C8.85657 3.69661 9.57207 3.7832 10.4197 3.7832C11.2765 3.7832 11.992 3.69661 12.5662 3.52344C13.1404 3.35026 13.4275 3.08138 13.4275 2.7168C13.4275 2.36133 13.1359 2.09701 12.5525 1.92383C11.9692 1.74154 11.2583 1.65039 10.4197 1.65039C9.59941 1.65039 8.88847 1.73698 8.28691 1.91016C7.69446 2.08333 7.39824 2.35221 7.39824 2.7168ZM19.8888 10.5918C19.8888 9.76237 20.34 9.11523 21.2423 8.65039C22.1446 8.17643 23.3204 7.93945 24.7696 7.93945C26.228 7.93945 27.4083 8.17188 28.3107 8.63672C29.213 9.10156 29.6642 9.75326 29.6642 10.5918C29.6642 11.4212 29.2084 12.0638 28.297 12.5195C27.3946 12.9844 26.2189 13.2168 24.7696 13.2168C23.3113 13.2168 22.131 12.9844 21.2286 12.5195C20.3354 12.0638 19.8888 11.4212 19.8888 10.5918ZM21.7755 10.5918C21.7755 10.9746 22.0353 11.2663 22.5548 11.4668C23.0743 11.6673 23.8126 11.7676 24.7696 11.7676C25.6811 11.7676 26.4103 11.6673 26.9571 11.4668C27.504 11.2572 27.7775 10.9655 27.7775 10.5918C27.7775 10.1999 27.5086 9.90365 26.9708 9.70312C26.4331 9.49349 25.6993 9.38867 24.7696 9.38867C23.8126 9.38867 23.0743 9.49349 22.5548 9.70312C22.0353 9.90365 21.7755 10.1999 21.7755 10.5918ZM24.9337 4.31641V2.74414H27.5997V0.201172H29.3771V8.03516H27.5997V4.31641H24.9337ZM17.5099 6.64062C17.9565 6.41276 18.3758 6.15755 18.7677 5.875C19.1596 5.58333 19.5379 5.24609 19.9025 4.86328C20.2762 4.47135 20.5678 4.02018 20.7775 3.50977C20.9962 2.99935 21.1056 2.46159 21.1056 1.89648V0.542969H22.8419V1.88281C22.8419 2.39323 22.9467 2.88542 23.1564 3.35938C23.366 3.82422 23.6486 4.23893 24.004 4.60352C24.3595 4.95898 24.7058 5.25977 25.0431 5.50586C25.3894 5.75195 25.754 5.97982 26.1368 6.18945L25.1251 7.33789C24.6147 7.11914 24.045 6.75456 23.4161 6.24414C22.7872 5.72461 22.3178 5.20508 22.0079 4.68555C21.698 5.29622 21.2104 5.90234 20.545 6.50391C19.8797 7.09635 19.2189 7.53841 18.5626 7.83008L17.5099 6.64062ZM33.0766 13.0664V9.59375H40.5414V8.75977H33.0082V7.35156H42.2778V10.7969H34.7993V11.6719H42.5512V13.0664H33.0766ZM31.3129 6.53125V5.15039H43.9731V6.53125H31.3129ZM32.6664 2.34766C32.6664 1.64583 33.145 1.12174 34.102 0.775391C35.059 0.419922 36.2485 0.242188 37.6703 0.242188C38.3357 0.242188 38.9555 0.283203 39.5297 0.365234C40.1131 0.447266 40.6417 0.570312 41.1157 0.734375C41.5987 0.889323 41.977 1.10807 42.2504 1.39062C42.533 1.66406 42.6743 1.98307 42.6743 2.34766C42.6743 2.82161 42.4282 3.22266 41.936 3.55078C41.4529 3.87891 40.8468 4.11133 40.1176 4.24805C39.3884 4.37565 38.5727 4.43945 37.6703 4.43945C36.9868 4.43945 36.3487 4.39844 35.7563 4.31641C35.173 4.23438 34.6443 4.11589 34.1703 3.96094C33.7055 3.79688 33.3364 3.57812 33.0629 3.30469C32.7986 3.03125 32.6664 2.71224 32.6664 2.34766ZM34.6078 2.34766C34.6078 2.88542 35.6287 3.1543 37.6703 3.1543C39.7211 3.1543 40.7465 2.88542 40.7465 2.34766C40.7465 1.8099 39.7211 1.54102 37.6703 1.54102C35.6287 1.54102 34.6078 1.8099 34.6078 2.34766ZM50.4151 13.0801V9.29297H58.044V8.30859H50.3604V6.81836H59.7667V10.5781H52.1514V11.6035H60.0401V13.0801H50.4151ZM58.003 6.3125V0.201172H59.7667V6.3125H58.003ZM47.9678 5.25977C48.4145 5.05924 48.8337 4.83594 49.2257 4.58984C49.6176 4.34375 50.0004 4.05208 50.3741 3.71484C50.7478 3.3776 51.044 2.99479 51.2628 2.56641C51.4906 2.13802 51.6046 1.69596 51.6046 1.24023V0.433594H53.3409V1.22656C53.3409 1.58203 53.4229 1.9375 53.587 2.29297C53.7511 2.63932 53.9561 2.94466 54.2022 3.20898C54.4483 3.47331 54.7354 3.72852 55.0636 3.97461C55.3917 4.21159 55.6925 4.40755 55.9659 4.5625C56.2484 4.71745 56.5264 4.85417 56.7999 4.97266L55.8292 6.16211C55.3005 5.94336 54.6944 5.58789 54.0108 5.0957C53.3363 4.60352 52.8305 4.10677 52.4932 3.60547C52.1378 4.16146 51.6274 4.69922 50.962 5.21875C50.3057 5.72917 49.6449 6.13477 48.9796 6.43555L47.9678 5.25977ZM71.2865 13.2441V0.201172H73.0775V13.2441H71.2865ZM61.4428 10.3184C61.8985 9.96289 62.3269 9.55273 62.7279 9.08789C63.129 8.62305 63.5163 8.08073 63.89 7.46094C64.2637 6.84115 64.56 6.13477 64.7787 5.3418C64.9975 4.53971 65.1068 3.71029 65.1068 2.85352V0.953125H66.8568V2.8125C66.8568 3.64193 66.9708 4.44857 67.1986 5.23242C67.4265 6.01628 67.7273 6.70898 68.101 7.31055C68.4838 7.91211 68.8529 8.42708 69.2084 8.85547C69.573 9.28385 69.9467 9.65755 70.3295 9.97656L69.0443 11.084C68.5248 10.6465 67.946 9.99023 67.308 9.11523C66.6791 8.24023 66.2462 7.42904 66.0092 6.68164C65.7813 7.47461 65.3484 8.32227 64.7104 9.22461C64.0814 10.1178 63.4434 10.847 62.7963 11.4121L61.4428 10.3184ZM77.6657 12.8887V8.56836H79.4021V11.3438H86.7439V12.8887H77.6657ZM84.57 9.49805V0.201172H86.3337V4.08398H88.0564V5.65625H86.3337V9.49805H84.57ZM75.3689 7.00977C76.8454 6.48112 78.0759 5.82031 79.0603 5.02734C80.0446 4.22526 80.6234 3.39128 80.7966 2.52539H76.2302V0.994141H82.82C82.82 4.23893 80.6644 6.66797 76.3532 8.28125L75.3689 7.00977ZM88.8985 11.7949V10.2773H101.572V11.7949H88.8985ZM90.2246 4.41211C90.2246 3.35482 90.7077 2.52083 91.6739 1.91016C92.6491 1.29948 93.8477 0.994141 95.2696 0.994141C96.181 0.994141 97.0105 1.1263 97.7579 1.39062C98.5144 1.64583 99.1296 2.03776 99.6036 2.56641C100.078 3.08594 100.314 3.70117 100.314 4.41211C100.314 5.4694 99.8269 6.30794 98.8516 6.92773C97.8763 7.53841 96.6823 7.84375 95.2696 7.84375C93.8386 7.84375 92.64 7.53841 91.6739 6.92773C90.7077 6.30794 90.2246 5.4694 90.2246 4.41211ZM92.1524 4.41211C92.1524 5.02279 92.4486 5.51042 93.0411 5.875C93.6426 6.23047 94.3855 6.4082 95.2696 6.4082C96.1628 6.4082 96.9056 6.23047 97.4981 5.875C98.0905 5.51042 98.3868 5.02279 98.3868 4.41211C98.3868 3.81055 98.086 3.32747 97.4844 2.96289C96.892 2.59831 96.1537 2.41602 95.2696 2.41602C94.3946 2.41602 93.6563 2.59831 93.0547 2.96289C92.4532 3.31836 92.1524 3.80143 92.1524 4.41211ZM102.524 12.0547V10.5371H108.047V8.02148H109.866V10.5371H115.198V12.0547H102.524ZM104.342 8.70508V4.11133H111.752V2.4707H104.26V0.953125H113.489V5.56055H106.065V7.1875H113.653V8.70508H104.342ZM121.476 10.6875V9.2793H131.032V13.3398H129.296V10.6875H121.476ZM129.419 8.77344V0.201172H131.032V8.77344H129.419ZM125.687 5.08203V3.56445H126.931V0.337891H128.476V8.62305H126.931V5.08203H125.687ZM120.286 7.95312V0.925781H125.632V2.29297H121.981V3.75586H125.194V5.05469H121.981V6.57227H122.255C123.649 6.57227 125.026 6.49479 126.384 6.33984V7.65234C124.643 7.85286 122.77 7.95312 120.765 7.95312H120.286ZM132.872 11.7949V10.2773H145.546V11.7949H132.872ZM133.529 6.81836C134.076 6.59961 134.622 6.32161 135.169 5.98438C135.716 5.63802 136.231 5.24609 136.714 4.80859C137.206 4.36198 137.603 3.86068 137.904 3.30469C138.214 2.7487 138.368 2.19271 138.368 1.63672V1.00781H140.105V1.62305C140.105 2.16992 140.26 2.72135 140.57 3.27734C140.88 3.82422 141.281 4.32096 141.773 4.76758C142.265 5.20508 142.78 5.59701 143.318 5.94336C143.855 6.28971 144.389 6.57227 144.917 6.79102L143.947 8.04883C143.099 7.69336 142.21 7.1556 141.281 6.43555C140.36 5.70638 139.681 4.95443 139.243 4.17969C138.815 4.96354 138.145 5.72005 137.234 6.44922C136.322 7.16927 135.415 7.71615 134.513 8.08984L133.529 6.81836ZM146.498 11.9453V10.4141H159.172V11.9453H146.498ZM148.289 8.69141V1.21289H157.613V2.70312H150.093V4.23438H157.517V5.65625H150.093V7.1875H157.722V8.69141H148.289ZM160.123 12.0547V10.5371H165.646V8.02148H167.465V10.5371H172.797V12.0547H160.123ZM161.941 8.70508V4.11133H169.352V2.4707H161.859V0.953125H171.088V5.56055H163.664V7.1875H171.252V8.70508H161.941ZM179.553 12.9023V8.99219H181.29V11.3984H188.864V12.9023H179.553ZM184.038 7.05078V5.58789H186.772V3.79688H184.038V2.36133H186.772V0.201172H188.549V9.79883H186.772V7.05078H184.038ZM177.831 8.13086V0.802734H179.526V2.99023H182.547V0.802734H184.243V8.13086H177.831ZM179.526 6.68164H182.547V4.42578H179.526V6.68164ZM192.768 13.0527V10.0176H194.505V11.6309H202.12V13.0527H192.768ZM190.745 9.52539V8.18555H192.058C195.466 8.18555 198.009 8.07617 199.686 7.85742V9.15625C197.636 9.40234 195.088 9.52539 192.044 9.52539H190.745ZM194.518 8.78711V6.68164H196.214V8.78711H194.518ZM199.974 10.5098V0.201172H201.737V5.04102H203.378V6.58594H201.737V10.5098H199.974ZM192.946 1.55469V0.324219H197.8V1.55469H192.946ZM191.196 3.40039V2.16992H199.167V3.40039H191.196ZM191.702 5.54688C191.702 5.15495 191.884 4.82682 192.249 4.5625C192.614 4.28906 193.06 4.09766 193.589 3.98828C194.117 3.87891 194.71 3.82422 195.366 3.82422C196.022 3.82422 196.615 3.87891 197.143 3.98828C197.672 4.09766 198.114 4.28906 198.47 4.5625C198.834 4.82682 199.017 5.15495 199.017 5.54688C199.017 6.12109 198.666 6.55859 197.964 6.85938C197.262 7.15104 196.396 7.29688 195.366 7.29688C194.71 7.29688 194.113 7.24219 193.575 7.13281C193.046 7.01432 192.6 6.81836 192.235 6.54492C191.88 6.27148 191.702 5.9388 191.702 5.54688ZM193.52 5.54688C193.52 5.75651 193.694 5.91602 194.04 6.02539C194.386 6.13477 194.828 6.18945 195.366 6.18945C195.886 6.18945 196.319 6.13932 196.665 6.03906C197.02 5.92969 197.198 5.76562 197.198 5.54688C197.198 5.13672 196.587 4.93164 195.366 4.93164C194.136 4.93164 193.52 5.13672 193.52 5.54688ZM206.312 13.2305V8.66406H208.021V9.62109H213.517V8.66406H215.239V13.2305H206.312ZM208.021 11.9043H213.517V10.8242H208.021V11.9043ZM213.462 8.22656V0.201172H215.226V3.83789H216.866V5.42383H215.226V8.22656H213.462ZM206.079 1.77344V0.460938H211.001V1.77344H206.079ZM204.288 3.76953V2.48438H212.396V3.76953H204.288ZM204.808 6.17578C204.808 5.75651 204.986 5.40104 205.341 5.10938C205.706 4.80859 206.157 4.5944 206.695 4.4668C207.241 4.33008 207.852 4.26172 208.527 4.26172C209.201 4.26172 209.807 4.33008 210.345 4.4668C210.892 4.5944 211.343 4.80859 211.698 5.10938C212.063 5.40104 212.245 5.75651 212.245 6.17578C212.245 6.79557 211.885 7.27409 211.165 7.61133C210.454 7.94857 209.575 8.11719 208.527 8.11719C207.478 8.11719 206.594 7.95312 205.874 7.625C205.163 7.28776 204.808 6.80469 204.808 6.17578ZM206.626 6.17578C206.626 6.43099 206.804 6.6224 207.159 6.75C207.524 6.8776 207.98 6.94141 208.527 6.94141C209.055 6.94141 209.502 6.8776 209.866 6.75C210.24 6.6224 210.427 6.43099 210.427 6.17578C210.427 5.67448 209.794 5.42383 208.527 5.42383C207.971 5.42383 207.515 5.48763 207.159 5.61523C206.804 5.73372 206.626 5.92057 206.626 6.17578ZM227.361 13.2441V0.201172H229.152V13.2441H227.361ZM219.062 10.3184V1.22656H220.798V8.75977H221.168C222.735 8.75977 224.481 8.6276 226.404 8.36328V9.82617C225.365 9.99935 224.18 10.127 222.849 10.209C221.518 10.2819 220.475 10.3184 219.718 10.3184H219.062ZM240.289 13.2441V0.201172H242.08V5.28711H244.09V6.98242H242.08V13.2441H240.289ZM232.428 10.4141V1.4043H238.471V2.9082H234.137V8.91016H234.451C236.101 8.91016 237.778 8.80078 239.482 8.58203V9.99023C237.523 10.2728 235.344 10.4141 232.947 10.4141H232.428ZM245.821 12V9.89453H248.117V12H245.821Z" fill="black"/>
</g>
<defs>
<filter id="filter0_d_331_542" x="0.0622559" y="0.201172" width="252.055" height="21.1387" filterUnits="userSpaceOnUse" color-interpolation-filters="sRGB">
<feFlood flood-opacity="0" result="BackgroundImageFix"/>
<feColorMatrix in="SourceAlpha" type="matrix" values="0 0 0 0 0 0 0 0 0 0 0 0 0 0 0 0 0 0 127 0" result="hardAlpha"/>
<feOffset dy="4"/>
<feGaussianBlur stdDeviation="2"/>
<feComposite in2="hardAlpha" operator="out"/>
<feColorMatrix type="matrix" values="0 0 0 0 0 0 0 0 0 0 0 0 0 0 0 0 0 0 0.25 0"/>
<feBlend mode="normal" in2="BackgroundImageFix" result="effect1_dropShadow_331_542"/>
<feBlend mode="normal" in="SourceGraphic" in2="effect1_dropShadow_331_542" result="shape"/>
</filter>
</defs>
</svg>
