<svg width="26" height="9" viewBox="0 0 26 9" fill="none" xmlns="http://www.w3.org/2000/svg">
<g style="mix-blend-mode:darken">
<path d="M0.0424995 6.94531V1.46973H0.710468V6.33008H0.859882C1.49269 6.33008 2.32473 6.25098 3.35598 6.09277V6.67285C2.85793 6.76074 2.28957 6.82812 1.6509 6.875C1.01809 6.92188 0.563984 6.94531 0.288593 6.94531H0.0424995ZM3.76027 8.43066V1.00391H4.36672V4.08008H5.73781V0.775391H6.3882V8.79102H5.73781V4.71289H4.36672V8.43066H3.76027ZM9.64176 5.09961C9.88785 4.99414 10.131 4.86816 10.3712 4.72168C10.6173 4.5752 10.8634 4.39941 11.1095 4.19434C11.3615 3.9834 11.5666 3.74023 11.7248 3.46484C11.883 3.18359 11.9679 2.89355 11.9796 2.59473V1.83008H10.0812V1.24121H14.5636V1.83008H12.7267V2.58594C12.7326 2.84375 12.8117 3.09863 12.964 3.35059C13.1222 3.59668 13.3185 3.81348 13.5529 4.00098C13.7931 4.18848 14.0187 4.34668 14.2296 4.47559C14.4406 4.59863 14.6457 4.7041 14.8449 4.79199L14.467 5.25781C14.0978 5.09375 13.7082 4.85938 13.298 4.55469C12.8879 4.25 12.5773 3.93359 12.3664 3.60547C12.1906 3.95703 11.8712 4.32617 11.4084 4.71289C10.9513 5.09961 10.4943 5.38672 10.0373 5.57422L9.64176 5.09961ZM14.1769 3.42969V2.83203H15.9435V0.775391H16.6203V5.75H15.9435V3.42969H14.1769ZM10.9777 7.26172C10.9777 6.79297 11.2384 6.42969 11.7599 6.17188C12.2873 5.91406 12.9933 5.78516 13.8781 5.78516C14.7687 5.78516 15.4777 5.91406 16.005 6.17188C16.5324 6.42383 16.7961 6.78711 16.7961 7.26172C16.7961 7.73047 16.5295 8.09375 15.9962 8.35156C15.463 8.60938 14.757 8.73535 13.8781 8.72949C12.9816 8.72363 12.2726 8.59473 11.7511 8.34277C11.2355 8.09082 10.9777 7.73047 10.9777 7.26172ZM11.716 7.26172C11.716 7.54883 11.9064 7.76855 12.2873 7.9209C12.674 8.06738 13.2043 8.14062 13.8781 8.14062C14.5285 8.14062 15.0558 8.06445 15.4601 7.91211C15.8644 7.75391 16.0666 7.53711 16.0666 7.26172C16.0666 6.96289 15.8673 6.74023 15.4689 6.59375C15.0763 6.44141 14.5461 6.36523 13.8781 6.36523C13.2101 6.36523 12.6828 6.44434 12.2961 6.60254C11.9093 6.75488 11.716 6.97461 11.716 7.26172ZM19.0161 5.53906V1.25H19.6929V2.76172H23.8325V1.25H24.5093V5.53906H19.0161ZM19.6929 4.94141H23.8325V3.35059H19.6929V4.94141ZM17.8208 7.85059V7.26172H21.4067V5.14355H22.1011V7.26172H25.6606V7.85059H17.8208Z" fill="black"/>
</g>
</svg>
