<svg width="36" height="9" viewBox="0 0 36 9" fill="none" xmlns="http://www.w3.org/2000/svg">
<g style="mix-blend-mode:darken">
<path d="M0.902695 7.16504C1.31285 6.84277 1.68492 6.47656 2.01891 6.06641C2.35289 5.65625 2.64586 5.13477 2.89781 4.50195C3.14977 3.86914 3.27574 3.20996 3.27574 2.52441V1.21484H3.93492V2.49805C3.93492 3.01367 4.01109 3.51758 4.16344 4.00977C4.32164 4.50195 4.52672 4.93262 4.77867 5.30176C5.03062 5.6709 5.26793 5.98145 5.49059 6.2334C5.71324 6.47949 5.93883 6.69336 6.16734 6.875L5.68394 7.32324C5.34996 7.05371 4.97203 6.6377 4.55016 6.0752C4.12828 5.50684 3.82359 4.94141 3.63609 4.37891C3.48375 4.94141 3.19078 5.52734 2.75719 6.13672C2.32359 6.74023 1.88707 7.22656 1.44762 7.5957L0.902695 7.16504ZM7.0023 8.79102V0.775391H7.67906V4.25586H9.04137V4.89746H7.67906V8.79102H7.0023ZM10.5407 2.1377V1.53125H16.28C16.28 3.03711 16.11 4.51074 15.7702 5.95215H15.0934C15.2575 5.2959 15.3835 4.61328 15.4714 3.9043C15.5593 3.19531 15.6032 2.60645 15.6032 2.1377H10.5407ZM9.45086 7.72754V7.13867H12.4831V4.13281H13.1598V7.13867H17.2907V7.72754H9.45086ZM19.7972 4.81836C20.0198 4.74219 20.2542 4.63379 20.5003 4.49316C20.7523 4.34668 21.0013 4.17383 21.2474 3.97461C21.4993 3.76953 21.7103 3.53223 21.8802 3.2627C22.0501 2.9873 22.138 2.70898 22.1439 2.42773V1.82129H20.2366V1.24121H24.7454V1.82129H22.8734V2.40137C22.8851 2.72363 23.0198 3.0459 23.2777 3.36816C23.5413 3.68457 23.8167 3.93945 24.1038 4.13281C24.3968 4.32617 24.6986 4.49316 25.0091 4.63379L24.6575 5.09961C24.2708 4.94141 23.8636 4.69824 23.4359 4.37012C23.0081 4.03613 22.7034 3.71973 22.5218 3.4209C22.3284 3.74902 22.0032 4.09766 21.5462 4.4668C21.095 4.83008 20.638 5.10547 20.1751 5.29297L19.7972 4.81836ZM24.3587 3.29785V2.70898H26.1077V0.775391H26.7845V5.09961H26.1077V3.29785H24.3587ZM21.3616 8.65918V5.41602H22.0296V6.34766H26.1253V5.41602H26.7933V8.65918H21.3616ZM22.0296 8.06152H26.1253V6.91016H22.0296V8.06152ZM28.4508 3.97461C28.9547 3.81641 29.4381 3.6084 29.901 3.35059C30.3639 3.09277 30.7623 2.7793 31.0963 2.41016C31.4362 2.04102 31.6061 1.67188 31.6061 1.30273V0.87207H32.2829V1.29395C32.2829 1.56934 32.3825 1.85059 32.5817 2.1377C32.7809 2.4248 33.0358 2.68555 33.3463 2.91992C33.6627 3.14844 33.9996 3.35645 34.3571 3.54395C34.7145 3.72559 35.069 3.86914 35.4205 3.97461L35.0778 4.47559C34.4625 4.2998 33.8502 4.00684 33.2409 3.59668C32.6315 3.18652 32.1979 2.76172 31.9401 2.32227C31.7057 2.75586 31.2838 3.1748 30.6745 3.5791C30.0709 3.9834 29.4469 4.28516 28.8024 4.48438L28.4508 3.97461ZM27.985 6.02246V5.43359H35.8248V6.02246H32.2653V8.80859H31.5885V6.02246H27.985Z" fill="black"/>
</g>
</svg>
