<svg width="9" height="9" viewBox="0 0 9 9" fill="none" xmlns="http://www.w3.org/2000/svg">
<g style="mix-blend-mode:darken">
<path d="M2.76855 1.30273V0.775391H6.23145V1.30273H2.76855ZM1.30957 2.47168V1.95312H7.69043V2.47168H1.30957ZM1.78418 3.84277C1.78418 3.23926 2.69238 2.9375 4.50879 2.9375C6.30762 2.9375 7.20703 3.23926 7.20703 3.84277C7.20703 4.1709 6.94922 4.4082 6.43359 4.55469C5.92383 4.69531 5.28223 4.76562 4.50879 4.76562C2.69238 4.76562 1.78418 4.45801 1.78418 3.84277ZM2.55762 3.84277C2.55762 4.1416 3.20801 4.29102 4.50879 4.29102C5.79199 4.29102 6.43359 4.1416 6.43359 3.84277C6.43359 3.67285 6.2666 3.55859 5.93262 3.5C5.60449 3.44141 5.12988 3.41211 4.50879 3.41211C3.8877 3.41211 3.40723 3.44141 3.06738 3.5C2.72754 3.55859 2.55762 3.67285 2.55762 3.84277ZM0.5625 5.95215V5.43359H4.15723V4.51074H4.8252V5.43359H8.39355V5.95215H0.5625ZM1.75781 8.7207V6.62891H7.2334V8.7207H1.75781ZM2.43457 8.21094H6.56543V7.13867H2.43457V8.21094Z" fill="black"/>
</g>
</svg>
