<svg width="195" height="34" viewBox="0 0 195 34" fill="none" xmlns="http://www.w3.org/2000/svg">
<g style="mix-blend-mode:darken">
<path d="M0.46875 8.34766L1.33594 8.04297C1.85938 8.94922 2.67188 9.40234 3.77344 9.40234C4.38281 9.40234 4.87891 9.25391 5.26172 8.95703C5.64453 8.66016 5.83594 8.25391 5.83594 7.73828C5.83594 7.48047 5.78125 7.25391 5.67188 7.05859C5.5625 6.85547 5.38672 6.67969 5.14453 6.53125C4.91016 6.38281 4.69141 6.26562 4.48828 6.17969C4.28516 6.09375 4.00781 5.99219 3.65625 5.875C3.375 5.78125 3.17578 5.71484 3.05859 5.67578C2.94141 5.63672 2.75391 5.56641 2.49609 5.46484C2.24609 5.36328 2.05859 5.27344 1.93359 5.19531C1.81641 5.11719 1.66797 5.01172 1.48828 4.87891C1.30859 4.73828 1.17578 4.59766 1.08984 4.45703C1.01172 4.31641 0.9375 4.14844 0.867188 3.95312C0.804688 3.75 0.773438 3.53516 0.773438 3.30859C0.773438 2.61328 1.03906 2.05859 1.57031 1.64453C2.10156 1.22266 2.8125 1.01172 3.70312 1.01172C4.38281 1.01172 4.97266 1.16797 5.47266 1.48047C5.98047 1.79297 6.34375 2.18359 6.5625 2.65234L5.76562 2.93359C5.30469 2.18359 4.60938 1.80859 3.67969 1.80859C3.07031 1.80859 2.59375 1.94531 2.25 2.21875C1.90625 2.49219 1.73438 2.85547 1.73438 3.30859C1.73438 3.51172 1.78125 3.70312 1.875 3.88281C1.96875 4.05469 2.07031 4.19531 2.17969 4.30469C2.29688 4.40625 2.48047 4.51953 2.73047 4.64453C2.98828 4.76172 3.1875 4.84766 3.32812 4.90234C3.47656 4.94922 3.71484 5.02734 4.04297 5.13672C4.12109 5.16016 4.17969 5.17969 4.21875 5.19531C4.60156 5.32031 4.92188 5.44141 5.17969 5.55859C5.4375 5.67578 5.70312 5.83203 5.97656 6.02734C6.25 6.22266 6.45312 6.46094 6.58594 6.74219C6.72656 7.01562 6.79688 7.33594 6.79688 7.70312C6.79688 8.49219 6.51953 9.10938 5.96484 9.55469C5.41797 9.99219 4.67969 10.2109 3.75 10.2109C2.95312 10.2109 2.27734 10.043 1.72266 9.70703C1.16797 9.37109 0.75 8.91797 0.46875 8.34766ZM7.19172 4.45703V3.69531H8.29328V1.67969H9.20734V3.69531H10.8714V4.45703H9.20734V8.14844C9.20734 8.53906 9.28156 8.81641 9.43 8.98047C9.57844 9.14453 9.81672 9.22656 10.1448 9.22656H10.8714V10H10.0277C8.87141 10 8.29328 9.41016 8.29328 8.23047V4.45703H7.19172ZM12.3209 8.38281C12.3209 8.67969 12.4459 8.93359 12.6959 9.14453C12.9459 9.34766 13.2897 9.44922 13.7272 9.44922C14.2819 9.44922 14.7545 9.26953 15.1452 8.91016C15.5436 8.55078 15.7428 8.09375 15.7428 7.53906V6.66016C15.3991 6.74609 14.8522 6.84766 14.1022 6.96484C13.4928 7.07422 13.0436 7.24219 12.7545 7.46875C12.4655 7.69531 12.3209 8 12.3209 8.38281ZM11.4069 8.45312C11.4069 7.28125 12.3131 6.55469 14.1256 6.27344C14.9381 6.14062 15.4772 6.03125 15.7428 5.94531V5.58203C15.7428 5.19141 15.6022 4.86719 15.3209 4.60938C15.0397 4.35156 14.6412 4.22266 14.1256 4.22266C13.7506 4.22266 13.3873 4.3125 13.0358 4.49219C12.692 4.66406 12.3991 4.89844 12.1569 5.19531L11.5709 4.70312C11.8834 4.34375 12.2584 4.05078 12.6959 3.82422C13.1412 3.59766 13.61 3.48438 14.1022 3.48438C15.7897 3.48438 16.6334 4.30859 16.6334 5.95703V10H15.7662V8.96875C15.6412 9.30469 15.3834 9.59766 14.9928 9.84766C14.6022 10.0898 14.1412 10.2109 13.61 10.2109C12.9147 10.2109 12.3717 10.0469 11.9811 9.71875C11.5983 9.39062 11.4069 8.96875 11.4069 8.45312ZM18.1298 10V3.69531H18.997V4.60938C19.122 4.32812 19.3291 4.07031 19.6181 3.83594C19.9072 3.60156 20.2783 3.48438 20.7314 3.48438C21.0673 3.48438 21.3642 3.53906 21.622 3.64844V4.46875C21.3408 4.35938 21.0439 4.30469 20.7314 4.30469C20.2002 4.30469 19.7861 4.50391 19.4892 4.90234C19.1923 5.30078 19.0439 5.82812 19.0439 6.48438V10H18.1298ZM21.7356 4.45703V3.69531H22.8372V1.67969H23.7512V3.69531H25.4153V4.45703H23.7512V8.14844C23.7512 8.53906 23.8255 8.81641 23.9739 8.98047C24.1223 9.14453 24.3606 9.22656 24.6887 9.22656H25.4153V10H24.5716C23.4153 10 22.8372 9.41016 22.8372 8.23047V4.45703H21.7356ZM28.537 8.34766L29.4042 8.04297C29.9277 8.94922 30.7402 9.40234 31.8417 9.40234C32.4511 9.40234 32.9472 9.25391 33.33 8.95703C33.7128 8.66016 33.9042 8.25391 33.9042 7.73828C33.9042 7.48047 33.8495 7.25391 33.7402 7.05859C33.6308 6.85547 33.455 6.67969 33.2128 6.53125C32.9784 6.38281 32.7597 6.26562 32.5566 6.17969C32.3534 6.09375 32.0761 5.99219 31.7245 5.875C31.4433 5.78125 31.2441 5.71484 31.1269 5.67578C31.0097 5.63672 30.8222 5.56641 30.5644 5.46484C30.3144 5.36328 30.1269 5.27344 30.0019 5.19531C29.8847 5.11719 29.7362 5.01172 29.5566 4.87891C29.3769 4.73828 29.2441 4.59766 29.1581 4.45703C29.08 4.31641 29.0058 4.14844 28.9355 3.95312C28.873 3.75 28.8417 3.53516 28.8417 3.30859C28.8417 2.61328 29.1073 2.05859 29.6386 1.64453C30.1698 1.22266 30.8808 1.01172 31.7714 1.01172C32.4511 1.01172 33.0409 1.16797 33.5409 1.48047C34.0487 1.79297 34.412 2.18359 34.6308 2.65234L33.8339 2.93359C33.373 2.18359 32.6777 1.80859 31.748 1.80859C31.1386 1.80859 30.662 1.94531 30.3183 2.21875C29.9745 2.49219 29.8027 2.85547 29.8027 3.30859C29.8027 3.51172 29.8495 3.70312 29.9433 3.88281C30.037 4.05469 30.1386 4.19531 30.248 4.30469C30.3652 4.40625 30.5487 4.51953 30.7987 4.64453C31.0566 4.76172 31.2558 4.84766 31.3964 4.90234C31.5448 4.94922 31.7831 5.02734 32.1112 5.13672C32.1894 5.16016 32.248 5.17969 32.287 5.19531C32.6698 5.32031 32.9902 5.44141 33.248 5.55859C33.5058 5.67578 33.7714 5.83203 34.0448 6.02734C34.3183 6.22266 34.5214 6.46094 34.6542 6.74219C34.7948 7.01562 34.8652 7.33594 34.8652 7.70312C34.8652 8.49219 34.5878 9.10938 34.0331 9.55469C33.4862 9.99219 32.748 10.2109 31.8183 10.2109C31.0214 10.2109 30.3456 10.043 29.7909 9.70703C29.2362 9.37109 28.8183 8.91797 28.537 8.34766ZM34.8733 2.01953V1.22266H41.1545V2.01953H38.4827V10H37.5452V2.01953H34.8733ZM41.3384 2.01953V1.22266H47.6197V2.01953H44.9478V10H44.0103V2.01953H41.3384ZM49.4911 4.38672V2.14844H55.9598V1.23438H49.4208V0.554688H56.8739V2.76953H50.4052V3.70703H57.1317V4.38672H49.4911ZM47.9325 6.00391V5.32422H58.3739V6.00391H47.9325ZM49.5145 10.8672V8.57031H55.9598V7.65625H49.4325V6.96484H56.8622V9.20312H50.4169V10.1758H57.1669V10.8672H49.5145ZM63.4527 4.64453V0.683594H64.3667V3.87109H70.8589V4.64453H63.4527ZM61.7417 7.46875V6.68359H72.1948V7.46875H67.4487V11.0781H66.5464V7.46875H61.7417ZM74.535 7.11719V3.78906H80.992V1.99609H74.453V1.21094H81.8944V4.53906H75.4256V6.33203H82.117V7.11719H74.535ZM72.953 9.85938V9.07422H83.4061V9.85938H72.953ZM85.6173 2.18359V1.375H93.2697C93.2697 3.38281 93.0431 5.34766 92.59 7.26953H91.6877C91.9064 6.39453 92.0744 5.48438 92.1916 4.53906C92.3087 3.59375 92.3673 2.80859 92.3673 2.18359H85.6173ZM84.1642 9.63672V8.85156H88.2072V4.84375H89.1095V8.85156H94.6173V9.63672H84.1642ZM99.2859 2.39453C99.2859 1.98828 99.4695 1.64453 99.8367 1.36328C100.212 1.07422 100.688 0.867188 101.266 0.742188C101.852 0.609375 102.512 0.542969 103.247 0.542969C104.364 0.542969 105.302 0.703125 106.059 1.02344C106.825 1.33594 107.208 1.79297 107.208 2.39453C107.208 2.80859 107.016 3.16016 106.634 3.44922C106.259 3.73047 105.778 3.9375 105.192 4.07031C104.614 4.19531 103.966 4.25781 103.247 4.25781C102.091 4.25781 101.141 4.09766 100.399 3.77734C99.657 3.45703 99.2859 2.99609 99.2859 2.39453ZM100.282 2.39453C100.282 2.76953 100.575 3.05469 101.161 3.25C101.755 3.4375 102.45 3.53125 103.247 3.53125C104.059 3.53125 104.755 3.43359 105.333 3.23828C105.919 3.04297 106.212 2.76172 106.212 2.39453C106.212 2.03516 105.919 1.75781 105.333 1.5625C104.755 1.36719 104.059 1.26953 103.247 1.26953C102.481 1.26953 101.794 1.36719 101.184 1.5625C100.583 1.75 100.282 2.02734 100.282 2.39453ZM97.9969 6.12109V5.37109H108.438V6.12109H97.9969ZM99.6023 10.8555V7.36328H106.891V10.8555H99.6023ZM100.505 10.082H105.989V8.13672H100.505V10.082ZM109.196 5.86328C109.595 5.66016 109.966 5.4375 110.31 5.19531C110.653 4.94531 110.989 4.65234 111.317 4.31641C111.646 3.98047 111.903 3.59375 112.091 3.15625C112.286 2.71094 112.384 2.24609 112.384 1.76172V0.660156H113.286V1.73828C113.286 2.16797 113.376 2.58594 113.556 2.99219C113.743 3.39062 113.993 3.74609 114.306 4.05859C114.618 4.36328 114.927 4.625 115.232 4.84375C115.544 5.0625 115.872 5.26172 116.216 5.44141L115.689 6.0625C115.189 5.84375 114.665 5.5 114.118 5.03125C113.579 4.55469 113.161 4.05469 112.864 3.53125C112.599 4.09375 112.165 4.65234 111.564 5.20703C110.97 5.76172 110.364 6.19141 109.747 6.49609L109.196 5.86328ZM115.302 3.54297V2.74609H117.798V0.367188H118.7V6.89453H117.798V3.54297H115.302ZM111.177 8.96875C111.177 8.32812 111.525 7.82812 112.22 7.46875C112.915 7.10938 113.853 6.92969 115.032 6.92969C116.212 6.92969 117.153 7.10938 117.857 7.46875C118.567 7.82031 118.923 8.32031 118.923 8.96875C118.923 9.60938 118.567 10.1094 117.857 10.4688C117.146 10.8281 116.204 11.0039 115.032 10.9961C113.845 10.9883 112.903 10.8086 112.208 10.457C111.521 10.1055 111.177 9.60938 111.177 8.96875ZM112.15 8.96875C112.15 9.36719 112.403 9.67578 112.911 9.89453C113.419 10.1055 114.126 10.2109 115.032 10.2109C115.9 10.2109 116.603 10.1016 117.142 9.88281C117.689 9.65625 117.962 9.35156 117.962 8.96875C117.962 8.5625 117.696 8.25391 117.165 8.04297C116.634 7.83203 115.923 7.72656 115.032 7.72656C114.134 7.72656 113.427 7.83203 112.911 8.04297C112.403 8.25391 112.15 8.5625 112.15 8.96875ZM121.662 2.06641C121.662 1.78516 121.767 1.53906 121.978 1.32812C122.197 1.11719 122.494 0.949219 122.869 0.824219C123.244 0.699219 123.665 0.609375 124.134 0.554688C124.603 0.492188 125.115 0.460938 125.669 0.460938C126.81 0.460938 127.763 0.59375 128.529 0.859375C129.294 1.125 129.677 1.52734 129.677 2.06641C129.677 2.44141 129.482 2.75391 129.091 3.00391C128.701 3.24609 128.216 3.41797 127.638 3.51953C127.06 3.62109 126.404 3.67188 125.669 3.67188C124.904 3.67188 124.228 3.62109 123.642 3.51953C123.064 3.41016 122.587 3.23438 122.212 2.99219C121.845 2.74219 121.662 2.43359 121.662 2.06641ZM122.658 2.06641C122.658 2.38672 122.955 2.61719 123.548 2.75781C124.142 2.89062 124.849 2.95703 125.669 2.95703C126.505 2.95703 127.212 2.88672 127.79 2.74609C128.376 2.59766 128.669 2.37109 128.669 2.06641C128.669 1.76172 128.376 1.53906 127.79 1.39844C127.212 1.25781 126.505 1.1875 125.669 1.1875C124.88 1.1875 124.181 1.25781 123.572 1.39844C122.962 1.53125 122.658 1.75391 122.658 2.06641ZM120.419 5.38281V4.63281H130.861V5.38281H120.419ZM122.001 10.8555V8.26562H128.458V7.17578H121.919V6.42578H129.361V8.95703H122.904V10.1055H129.665V10.8555H122.001ZM134.943 3.53125C134.943 2.73438 135.209 2.08984 135.74 1.59766C136.272 1.09766 136.959 0.847656 137.803 0.847656C138.639 0.847656 139.326 1.09375 139.865 1.58594C140.404 2.07812 140.674 2.72656 140.674 3.53125C140.674 4.33594 140.404 4.98828 139.865 5.48828C139.326 5.98047 138.639 6.22656 137.803 6.22656C136.951 6.22656 136.26 5.98047 135.729 5.48828C135.205 4.98828 134.943 4.33594 134.943 3.53125ZM135.869 3.53125C135.869 4.09375 136.049 4.55859 136.408 4.92578C136.775 5.29297 137.24 5.47656 137.803 5.47656C138.373 5.47656 138.838 5.28906 139.197 4.91406C139.557 4.53906 139.736 4.07812 139.736 3.53125C139.736 2.97656 139.557 2.51562 139.197 2.14844C138.838 1.77344 138.373 1.58594 137.803 1.58594C137.24 1.58594 136.775 1.77734 136.408 2.16016C136.049 2.53516 135.869 2.99219 135.869 3.53125ZM142.795 8.30078V0.367188H143.697V8.30078H142.795ZM136.619 10.7148V7.49219H137.522V9.90625H144.084V10.7148H136.619ZM145.463 5.67578C146.346 5.23047 147.116 4.65625 147.772 3.95312C148.428 3.25 148.756 2.47656 148.756 1.63281V0.753906H149.635V1.60938C149.635 2.04688 149.741 2.47656 149.952 2.89844C150.17 3.32031 150.452 3.69141 150.795 4.01172C151.139 4.32422 151.467 4.58984 151.78 4.80859C152.1 5.01953 152.42 5.20312 152.741 5.35938L152.213 6.00391C151.729 5.78516 151.182 5.42188 150.573 4.91406C149.963 4.39844 149.51 3.86719 149.213 3.32031C148.948 3.88281 148.502 4.44141 147.877 4.99609C147.26 5.55078 146.647 5.98438 146.038 6.29688L145.463 5.67578ZM154.018 6.8125V0.367188H154.92V6.8125H154.018ZM147.491 8.18359V7.39844H154.92V11.1836H154.018V8.18359H147.491ZM158.339 1.79688V0.953125H162.1V1.79688H158.339ZM156.874 4.02344V3.17969H163.178V4.02344H156.874ZM157.378 7.26953C157.378 6.61328 157.639 6.07812 158.163 5.66406C158.686 5.24219 159.366 5.03125 160.202 5.03125C161.03 5.03125 161.706 5.24219 162.229 5.66406C162.76 6.07812 163.026 6.61719 163.026 7.28125C163.026 7.92969 162.764 8.46484 162.241 8.88672C161.717 9.30859 161.038 9.51953 160.202 9.51953C159.366 9.51953 158.686 9.30859 158.163 8.88672C157.639 8.45703 157.378 7.91797 157.378 7.26953ZM158.303 7.26953C158.303 7.68359 158.487 8.02734 158.854 8.30078C159.229 8.57422 159.678 8.71094 160.202 8.71094C160.71 8.71094 161.151 8.57812 161.526 8.3125C161.909 8.03906 162.1 7.69141 162.1 7.26953C162.1 6.83984 161.913 6.49609 161.538 6.23828C161.171 5.97266 160.725 5.83984 160.202 5.83984C159.671 5.83984 159.221 5.97266 158.854 6.23828C158.487 6.50391 158.303 6.84766 158.303 7.26953ZM164.632 11.0547V0.367188H165.534V5.37109H167.315V6.21484H165.534V11.0547H164.632ZM167.663 8.81641C169.437 7.20703 170.323 5.21484 170.323 2.83984V1.03516H171.214V2.80469C171.214 3.65625 171.355 4.48047 171.636 5.27734C171.917 6.07422 172.222 6.71094 172.55 7.1875C172.886 7.65625 173.245 8.06641 173.628 8.41797L172.96 8.96875C172.593 8.65625 172.179 8.13672 171.718 7.41016C171.265 6.68359 170.956 6.01562 170.792 5.40625C170.636 6.04688 170.327 6.73438 169.866 7.46875C169.405 8.19531 168.909 8.82422 168.378 9.35547L167.663 8.81641ZM176.534 11.0547V0.367188H177.401V11.0547H176.534ZM172.491 5.125V4.28125H174.273V0.671875H175.105V10.5742H174.273V5.125H172.491ZM180.257 3.60156C180.257 2.79688 180.644 2.16016 181.417 1.69141C182.199 1.22266 183.171 0.988281 184.335 0.988281C185.07 0.988281 185.742 1.08984 186.351 1.29297C186.968 1.48828 187.464 1.78906 187.839 2.19531C188.222 2.59375 188.413 3.0625 188.413 3.60156C188.413 4.40625 188.023 5.04297 187.242 5.51172C186.46 5.98047 185.492 6.21484 184.335 6.21484C183.156 6.21484 182.179 5.98047 181.406 5.51172C180.64 5.03516 180.257 4.39844 180.257 3.60156ZM181.253 3.60156C181.253 4.15625 181.558 4.60547 182.167 4.94922C182.777 5.28516 183.499 5.45312 184.335 5.45312C185.195 5.45312 185.921 5.28125 186.515 4.9375C187.117 4.59375 187.417 4.14844 187.417 3.60156C187.417 3.05469 187.117 2.60938 186.515 2.26562C185.913 1.92188 185.187 1.75 184.335 1.75C183.515 1.75 182.796 1.92188 182.179 2.26562C181.562 2.60938 181.253 3.05469 181.253 3.60156ZM179.074 9.87109V9.08594H181.605V6.63672H182.495V9.08594H186.163V6.63672H187.054V9.08594H189.527V9.87109H179.074ZM190.894 10.1172V8.76953H192.371V10.1172H190.894ZM192.054 7.5625H191.222L191.117 1.21094H192.16L192.054 7.5625ZM0.46875 29.3477L1.33594 29.043C1.85938 29.9492 2.67188 30.4023 3.77344 30.4023C4.38281 30.4023 4.87891 30.2539 5.26172 29.957C5.64453 29.6602 5.83594 29.2539 5.83594 28.7383C5.83594 28.4805 5.78125 28.2539 5.67188 28.0586C5.5625 27.8555 5.38672 27.6797 5.14453 27.5312C4.91016 27.3828 4.69141 27.2656 4.48828 27.1797C4.28516 27.0938 4.00781 26.9922 3.65625 26.875C3.375 26.7812 3.17578 26.7148 3.05859 26.6758C2.94141 26.6367 2.75391 26.5664 2.49609 26.4648C2.24609 26.3633 2.05859 26.2734 1.93359 26.1953C1.81641 26.1172 1.66797 26.0117 1.48828 25.8789C1.30859 25.7383 1.17578 25.5977 1.08984 25.457C1.01172 25.3164 0.9375 25.1484 0.867188 24.9531C0.804688 24.75 0.773438 24.5352 0.773438 24.3086C0.773438 23.6133 1.03906 23.0586 1.57031 22.6445C2.10156 22.2227 2.8125 22.0117 3.70312 22.0117C4.38281 22.0117 4.97266 22.168 5.47266 22.4805C5.98047 22.793 6.34375 23.1836 6.5625 23.6523L5.76562 23.9336C5.30469 23.1836 4.60938 22.8086 3.67969 22.8086C3.07031 22.8086 2.59375 22.9453 2.25 23.2188C1.90625 23.4922 1.73438 23.8555 1.73438 24.3086C1.73438 24.5117 1.78125 24.7031 1.875 24.8828C1.96875 25.0547 2.07031 25.1953 2.17969 25.3047C2.29688 25.4062 2.48047 25.5195 2.73047 25.6445C2.98828 25.7617 3.1875 25.8477 3.32812 25.9023C3.47656 25.9492 3.71484 26.0273 4.04297 26.1367C4.12109 26.1602 4.17969 26.1797 4.21875 26.1953C4.60156 26.3203 4.92188 26.4414 5.17969 26.5586C5.4375 26.6758 5.70312 26.832 5.97656 27.0273C6.25 27.2227 6.45312 27.4609 6.58594 27.7422C6.72656 28.0156 6.79688 28.3359 6.79688 28.7031C6.79688 29.4922 6.51953 30.1094 5.96484 30.5547C5.41797 30.9922 4.67969 31.2109 3.75 31.2109C2.95312 31.2109 2.27734 31.043 1.72266 30.707C1.16797 30.3711 0.75 29.918 0.46875 29.3477ZM7.19172 25.457V24.6953H8.29328V22.6797H9.20734V24.6953H10.8714V25.457H9.20734V29.1484C9.20734 29.5391 9.28156 29.8164 9.43 29.9805C9.57844 30.1445 9.81672 30.2266 10.1448 30.2266H10.8714V31H10.0277C8.87141 31 8.29328 30.4102 8.29328 29.2305V25.457H7.19172ZM12.3444 27.8477C12.3444 28.6445 12.528 29.2773 12.8952 29.7461C13.2623 30.2148 13.7194 30.4492 14.2662 30.4492C14.8053 30.4492 15.2584 30.2148 15.6256 29.7461C16.0006 29.2773 16.1881 28.6445 16.1881 27.8477C16.1881 27.0352 16.0006 26.3984 15.6256 25.9375C15.2506 25.4766 14.7975 25.2461 14.2662 25.2461C13.7272 25.2461 13.2702 25.4766 12.8952 25.9375C12.528 26.3984 12.3444 27.0352 12.3444 27.8477ZM11.4303 27.8477C11.4303 26.8867 11.6764 26.0859 12.1686 25.4453C12.6686 24.8047 13.3678 24.4844 14.2662 24.4844C15.1569 24.4844 15.8522 24.8047 16.3522 25.4453C16.8522 26.0859 17.1022 26.8867 17.1022 27.8477C17.1022 28.2539 17.0475 28.6484 16.9381 29.0312C16.8366 29.4141 16.6764 29.7734 16.4577 30.1094C16.2467 30.4375 15.9498 30.7031 15.567 30.9062C15.192 31.1094 14.7584 31.2109 14.2662 31.2109C13.7819 31.2109 13.3483 31.1133 12.9655 30.918C12.5905 30.7148 12.2936 30.4492 12.0748 30.1211C11.8639 29.7852 11.7037 29.4258 11.5944 29.043C11.485 28.6602 11.4303 28.2617 11.4303 27.8477ZM19.1963 27.8359C19.1963 28.6172 19.3564 29.25 19.6767 29.7344C19.997 30.2109 20.4384 30.4492 21.0009 30.4492C21.5322 30.4492 21.9736 30.2148 22.3252 29.7461C22.6767 29.2773 22.8525 28.6406 22.8525 27.8359C22.8525 27.0781 22.6845 26.457 22.3486 25.9727C22.0205 25.4883 21.5713 25.2461 21.0009 25.2461C20.4697 25.2461 20.0361 25.4922 19.7002 25.9844C19.3642 26.4688 19.1963 27.0859 19.1963 27.8359ZM18.3056 33.7539V24.6953H19.1728V25.832C19.3525 25.4258 19.6103 25.1016 19.9463 24.8594C20.29 24.6094 20.6806 24.4844 21.1181 24.4844C21.8838 24.4844 22.5166 24.7891 23.0166 25.3984C23.5166 26.0078 23.7666 26.8203 23.7666 27.8359C23.7666 28.9219 23.5048 29.7578 22.9814 30.3438C22.458 30.9219 21.8369 31.2109 21.1181 31.2109C20.6494 31.2109 20.2509 31.0898 19.9228 30.8477C19.5947 30.5977 19.3525 30.2852 19.1963 29.9102V33.7539H18.3056ZM25.72 23.0664C25.72 22.7852 25.8255 22.5391 26.0364 22.3281C26.2552 22.1172 26.552 21.9492 26.927 21.8242C27.302 21.6992 27.7239 21.6094 28.1927 21.5547C28.6614 21.4922 29.1731 21.4609 29.7278 21.4609C30.8684 21.4609 31.8216 21.5938 32.5872 21.8594C33.3528 22.125 33.7356 22.5273 33.7356 23.0664C33.7356 23.4414 33.5403 23.7539 33.1497 24.0039C32.7591 24.2461 32.2747 24.418 31.6966 24.5195C31.1184 24.6211 30.4622 24.6719 29.7278 24.6719C28.9622 24.6719 28.2864 24.6211 27.7005 24.5195C27.1223 24.4102 26.6458 24.2344 26.2708 23.9922C25.9036 23.7422 25.72 23.4336 25.72 23.0664ZM26.7161 23.0664C26.7161 23.3867 27.013 23.6172 27.6067 23.7578C28.2005 23.8906 28.9075 23.957 29.7278 23.957C30.5637 23.957 31.2708 23.8867 31.8489 23.7461C32.4348 23.5977 32.7278 23.3711 32.7278 23.0664C32.7278 22.7617 32.4348 22.5391 31.8489 22.3984C31.2708 22.2578 30.5637 22.1875 29.7278 22.1875C28.9387 22.1875 28.2395 22.2578 27.6302 22.3984C27.0208 22.5312 26.7161 22.7539 26.7161 23.0664ZM24.4778 26.3828V25.6328H34.9192V26.3828H24.4778ZM26.0598 31.8555V29.2656H32.5169V28.1758H25.9778V27.4258H33.4192V29.957H26.9622V31.1055H33.7239V31.8555H26.0598ZM39.998 25.6445V21.6836H40.912V24.8711H47.4042V25.6445H39.998ZM38.287 28.4688V27.6836H48.7402V28.4688H43.9941V32.0781H43.0917V28.4688H38.287ZM51.0803 28.1172V24.7891H57.5373V22.9961H50.9983V22.2109H58.4397V25.5391H51.9709V27.332H58.6623V28.1172H51.0803ZM49.4983 30.8594V30.0742H59.9514V30.8594H49.4983ZM61.7056 27.4492V22.1055H66.6509V27.4492H61.7056ZM62.5962 26.6992H65.7603V22.8555H62.5962V26.6992ZM66.2525 26.5117V25.7617H69.3111V23.7695H66.2525V23.0195H69.3111V21.3672H70.2134V29.3477H69.3111V26.5117H66.2525ZM63.1002 31.7148V28.4922H64.0025V30.9062H70.565V31.7148H63.1002ZM75.8313 23.3945C75.8313 22.9883 76.0148 22.6445 76.382 22.3633C76.757 22.0742 77.2336 21.8672 77.8117 21.7422C78.3977 21.6094 79.0578 21.543 79.7922 21.543C80.9094 21.543 81.8469 21.7031 82.6047 22.0234C83.3703 22.3359 83.7531 22.793 83.7531 23.3945C83.7531 23.8086 83.5617 24.1602 83.1789 24.4492C82.8039 24.7305 82.3234 24.9375 81.7375 25.0703C81.1594 25.1953 80.5109 25.2578 79.7922 25.2578C78.6359 25.2578 77.6867 25.0977 76.9445 24.7773C76.2023 24.457 75.8313 23.9961 75.8313 23.3945ZM76.8273 23.3945C76.8273 23.7695 77.1203 24.0547 77.7063 24.25C78.3 24.4375 78.9953 24.5312 79.7922 24.5312C80.6047 24.5312 81.3 24.4336 81.8781 24.2383C82.4641 24.043 82.757 23.7617 82.757 23.3945C82.757 23.0352 82.4641 22.7578 81.8781 22.5625C81.3 22.3672 80.6047 22.2695 79.7922 22.2695C79.0266 22.2695 78.3391 22.3672 77.7297 22.5625C77.1281 22.75 76.8273 23.0273 76.8273 23.3945ZM74.5422 27.1211V26.3711H84.9836V27.1211H74.5422ZM76.1477 31.8555V28.3633H83.4367V31.8555H76.1477ZM77.05 31.082H82.5344V29.1367H77.05V31.082ZM85.7417 26.8633C86.1402 26.6602 86.5113 26.4375 86.855 26.1953C87.1988 25.9453 87.5347 25.6523 87.8628 25.3164C88.1909 24.9805 88.4488 24.5938 88.6363 24.1562C88.8316 23.7109 88.9292 23.2461 88.9292 22.7617V21.6602H89.8316V22.7383C89.8316 23.168 89.9214 23.5859 90.1011 23.9922C90.2886 24.3906 90.5386 24.7461 90.8511 25.0586C91.1636 25.3633 91.4722 25.625 91.7769 25.8438C92.0894 26.0625 92.4175 26.2617 92.7613 26.4414L92.2339 27.0625C91.7339 26.8438 91.2105 26.5 90.6636 26.0312C90.1245 25.5547 89.7066 25.0547 89.4097 24.5312C89.1441 25.0938 88.7105 25.6523 88.1089 26.207C87.5152 26.7617 86.9097 27.1914 86.2925 27.4961L85.7417 26.8633ZM91.8472 24.543V23.7461H94.3433V21.3672H95.2456V27.8945H94.3433V24.543H91.8472ZM87.7222 29.9688C87.7222 29.3281 88.0698 28.8281 88.7652 28.4688C89.4605 28.1094 90.398 27.9297 91.5777 27.9297C92.7573 27.9297 93.6988 28.1094 94.4019 28.4688C95.1128 28.8203 95.4683 29.3203 95.4683 29.9688C95.4683 30.6094 95.1128 31.1094 94.4019 31.4688C93.6909 31.8281 92.7495 32.0039 91.5777 31.9961C90.3902 31.9883 89.4488 31.8086 88.7534 31.457C88.0659 31.1055 87.7222 30.6094 87.7222 29.9688ZM88.6948 29.9688C88.6948 30.3672 88.9488 30.6758 89.4566 30.8945C89.9644 31.1055 90.6714 31.2109 91.5777 31.2109C92.4448 31.2109 93.148 31.1016 93.687 30.8828C94.2339 30.6562 94.5073 30.3516 94.5073 29.9688C94.5073 29.5625 94.2417 29.2539 93.7105 29.043C93.1792 28.832 92.4683 28.7266 91.5777 28.7266C90.6792 28.7266 89.9722 28.832 89.4566 29.043C88.9488 29.2539 88.6948 29.5625 88.6948 29.9688ZM100.277 24.5312C100.277 23.7344 100.543 23.0898 101.074 22.5977C101.606 22.0977 102.293 21.8477 103.137 21.8477C103.973 21.8477 104.66 22.0938 105.199 22.5859C105.738 23.0781 106.008 23.7266 106.008 24.5312C106.008 25.3359 105.738 25.9883 105.199 26.4883C104.66 26.9805 103.973 27.2266 103.137 27.2266C102.285 27.2266 101.594 26.9805 101.063 26.4883C100.539 25.9883 100.277 25.3359 100.277 24.5312ZM101.203 24.5312C101.203 25.0938 101.383 25.5586 101.742 25.9258C102.11 26.293 102.574 26.4766 103.137 26.4766C103.707 26.4766 104.172 26.2891 104.531 25.9141C104.891 25.5391 105.07 25.0781 105.07 24.5312C105.07 23.9766 104.891 23.5156 104.531 23.1484C104.172 22.7734 103.707 22.5859 103.137 22.5859C102.574 22.5859 102.11 22.7773 101.742 23.1602C101.383 23.5352 101.203 23.9922 101.203 24.5312ZM108.129 29.3008V21.3672H109.031V29.3008H108.129ZM101.953 31.7148V28.4922H102.856V30.9062H109.418V31.7148H101.953ZM110.797 26.6758C111.68 26.2305 112.45 25.6562 113.106 24.9531C113.762 24.25 114.09 23.4766 114.09 22.6328V21.7539H114.969V22.6094C114.969 23.0469 115.075 23.4766 115.286 23.8984C115.504 24.3203 115.786 24.6914 116.129 25.0117C116.473 25.3242 116.801 25.5898 117.114 25.8086C117.434 26.0195 117.754 26.2031 118.075 26.3594L117.547 27.0039C117.063 26.7852 116.516 26.4219 115.907 25.9141C115.297 25.3984 114.844 24.8672 114.547 24.3203C114.282 24.8828 113.836 25.4414 113.211 25.9961C112.594 26.5508 111.981 26.9844 111.372 27.2969L110.797 26.6758ZM119.352 27.8125V21.3672H120.254V27.8125H119.352ZM112.825 29.1836V28.3984H120.254V32.1836H119.352V29.1836H112.825ZM122.782 26.0781C122.782 24.8594 123.016 23.8672 123.485 23.1016C123.962 22.3359 124.618 21.9531 125.454 21.9531C126.274 21.9531 126.927 22.3359 127.411 23.1016C127.895 23.8672 128.137 24.8594 128.137 26.0781C128.137 27.2891 127.899 28.2812 127.423 29.0547C126.946 29.8203 126.29 30.2031 125.454 30.2031C124.61 30.2031 123.954 29.8203 123.485 29.0547C123.016 28.2891 122.782 27.2969 122.782 26.0781ZM123.708 26.0781C123.708 27.0312 123.856 27.8203 124.153 28.4453C124.45 29.0703 124.884 29.3828 125.454 29.3828C126.024 29.3828 126.458 29.0664 126.755 28.4336C127.052 27.793 127.2 27.0078 127.2 26.0781C127.2 25.1328 127.052 24.3477 126.755 23.7227C126.466 23.0898 126.032 22.7734 125.454 22.7734C124.876 22.7734 124.438 23.0938 124.141 23.7344C123.852 24.3672 123.708 25.1484 123.708 26.0781ZM130.47 32.0547V21.3672H131.384V32.0547H130.47ZM136.626 24.9883C137.165 24.8555 137.708 24.6797 138.255 24.4609C138.802 24.2422 139.302 23.9727 139.755 23.6523C140.208 23.3242 140.462 23.0078 140.517 22.7031L140.529 22.4336H137.294V21.6719H144.853V22.4336H141.63V22.7031C141.732 23.1406 142.177 23.5781 142.966 24.0156C143.755 24.4453 144.599 24.7695 145.497 24.9883L145.134 25.6445C144.322 25.4648 143.525 25.1719 142.744 24.7656C141.962 24.3516 141.408 23.9219 141.08 23.4766C140.783 23.8906 140.255 24.3008 139.497 24.707C138.747 25.1133 137.923 25.4297 137.025 25.6562L136.626 24.9883ZM135.818 27.3555V26.6055H140.611V25H141.513V26.6055H146.259V27.3555H135.818ZM137.107 30.1797C137.107 29.5938 137.458 29.1445 138.162 28.832C138.872 28.5117 139.833 28.3516 141.044 28.3516C142.255 28.3516 143.22 28.5078 143.939 28.8203C144.665 29.1328 145.029 29.5859 145.029 30.1797C145.029 30.7578 144.665 31.2031 143.939 31.5156C143.212 31.8359 142.247 31.9922 141.044 31.9844C139.818 31.9766 138.853 31.8164 138.15 31.5039C137.455 31.1992 137.107 30.7578 137.107 30.1797ZM138.091 30.1797C138.091 30.5312 138.349 30.7969 138.865 30.9766C139.388 31.1484 140.115 31.2344 141.044 31.2344C141.935 31.2344 142.658 31.1445 143.212 30.9648C143.767 30.7773 144.044 30.5156 144.044 30.1797C144.044 29.8203 143.771 29.5547 143.224 29.3828C142.685 29.2031 141.958 29.1133 141.044 29.1133C140.13 29.1133 139.408 29.2031 138.876 29.3828C138.353 29.5625 138.091 29.8281 138.091 30.1797ZM148.541 27.9531V24.6016H155.115V22.7734H148.459V21.9883H156.017V25.3516H149.443V27.168H156.24V27.9531H148.541ZM147.017 31.0469V30.2617H149.959V28.3281H150.849V30.2617H153.697V28.3281H154.588V30.2617H157.47V31.0469H147.017ZM159.787 25.0938V21.8359H165.424V22.5742H160.678V24.3555H165.471V25.0938H159.787ZM158.639 27.3789V26.6289H159.904C162.701 26.6289 164.893 26.5469 166.479 26.3828V27.1211C164.924 27.293 162.729 27.3789 159.893 27.3789H158.639ZM162.096 26.9219V24.8125H162.963V26.9219H162.096ZM166.842 27.6484V21.3672H167.732V27.6484H166.842ZM160.561 31.8672V28.1406H161.451V29.1484H166.842V28.1406H167.732V31.8672H160.561ZM161.451 31.1406H166.842V29.8516H161.451V31.1406ZM170.67 29.5117V22.2227H171.573V28.6914H171.913C172.397 28.6914 173.123 28.6562 174.092 28.5859C175.069 28.5078 175.998 28.3984 176.881 28.2578V29.0312C175.952 29.1953 174.92 29.3164 173.788 29.3945C172.655 29.4727 171.776 29.5117 171.151 29.5117H170.67ZM177.748 32.0547V21.3672H178.663V32.0547H177.748ZM181.694 29.582V22.4219H186.663V23.207H182.585V28.7969H182.854C184.432 28.7969 186.014 28.6836 187.6 28.457V29.1953C185.897 29.4531 184.05 29.582 182.057 29.582H181.694ZM188.421 32.0547V21.3672H189.323V25.7969H191.151V26.6641H189.323V32.0547H188.421ZM192.683 31V29.6055H194.159V31H192.683Z" fill="black"/>
</g>
</svg>
