<svg width="36" height="9" viewBox="0 0 36 9" fill="none" xmlns="http://www.w3.org/2000/svg">
<g style="mix-blend-mode:darken">
<path d="M0.902695 7.16504C1.31285 6.84277 1.68492 6.47656 2.01891 6.06641C2.35289 5.65625 2.64586 5.13477 2.89781 4.50195C3.14977 3.86914 3.27574 3.20996 3.27574 2.52441V1.21484H3.93492V2.49805C3.93492 3.01367 4.01109 3.51758 4.16344 4.00977C4.32164 4.50195 4.52672 4.93262 4.77867 5.30176C5.03062 5.6709 5.26793 5.98145 5.49059 6.2334C5.71324 6.47949 5.93883 6.69336 6.16734 6.875L5.68394 7.32324C5.34996 7.05371 4.97203 6.6377 4.55016 6.0752C4.12828 5.50684 3.82359 4.94141 3.63609 4.37891C3.48375 4.94141 3.19078 5.52734 2.75719 6.13672C2.32359 6.74023 1.88707 7.22656 1.44762 7.5957L0.902695 7.16504ZM7.0023 8.79102V0.775391H7.67906V4.25586H9.04137V4.89746H7.67906V8.79102H7.0023ZM10.5407 2.1377V1.53125H16.28C16.28 3.03711 16.11 4.51074 15.7702 5.95215H15.0934C15.2575 5.2959 15.3835 4.61328 15.4714 3.9043C15.5593 3.19531 15.6032 2.60645 15.6032 2.1377H10.5407ZM9.45086 7.72754V7.13867H12.4831V4.13281H13.1598V7.13867H17.2907V7.72754H9.45086ZM20.4739 6.88379V1.59277H23.3831V2.18164H21.1331V6.30371H21.2738C21.9827 6.30371 22.806 6.24512 23.7435 6.12793V6.68164C22.7005 6.81641 21.6868 6.88379 20.7025 6.88379H20.4739ZM24.1829 8.43066V1.00391H24.7982V4.07129H26.1517V0.775391H26.8109V8.79102H26.1517V4.71289H24.7982V8.43066H24.1829ZM29.444 1.80371V1.19727H32.2829V1.80371H29.444ZM28.2223 7.24414C28.5446 7.07422 28.8698 6.84863 29.1979 6.56738C29.526 6.28027 29.8248 5.92285 30.0944 5.49512C30.3639 5.06152 30.4987 4.64258 30.4987 4.23828V3.49121H28.5387V2.87598H33.0827V3.49121H31.1842V4.22949C31.1842 4.59277 31.3043 4.97363 31.5446 5.37207C31.7907 5.77051 32.0543 6.10156 32.3356 6.36523C32.6227 6.62891 32.9069 6.84863 33.1881 7.02441L32.7487 7.47266C32.4147 7.27344 32.0573 6.98633 31.6764 6.61133C31.3014 6.23633 31.026 5.8584 30.8502 5.47754C30.6862 5.85254 30.3815 6.2627 29.9362 6.70801C29.4967 7.14746 29.0778 7.47852 28.6793 7.70117L28.2223 7.24414ZM32.6256 5.17871V4.53711H34.401V0.775391H35.0778V8.79102H34.401V5.17871H32.6256Z" fill="black"/>
</g>
</svg>
