<svg width="159" height="21" viewBox="0 0 159 21" fill="none" xmlns="http://www.w3.org/2000/svg">
<g style="mix-blend-mode:darken">
<path d="M3.24176 20.7188V13.4355H17.9156V20.7188H3.24176ZM6.33551 18.2266H14.8218V15.9062H6.33551V18.2266ZM0.448792 11.9316V9.33203H20.6011V11.9316H0.448792ZM2.6402 4.19727C2.6402 3.35221 3.01976 2.62891 3.77887 2.02734C4.53798 1.42578 5.49762 0.996094 6.65778 0.738281C7.83226 0.466146 9.13564 0.330078 10.5679 0.330078C11.9859 0.330078 13.275 0.466146 14.4351 0.738281C15.6096 0.996094 16.5764 1.42578 17.3355 2.02734C18.1089 2.62891 18.4957 3.35221 18.4957 4.19727C18.4957 5.04232 18.1089 5.76562 17.3355 6.36719C16.5764 6.96875 15.6096 7.4056 14.4351 7.67773C13.275 7.93555 11.9859 8.06445 10.5679 8.06445C9.12132 8.06445 7.81077 7.93555 6.63629 7.67773C5.47614 7.4056 4.5165 6.96875 3.75739 6.36719C3.01259 5.76562 2.6402 5.04232 2.6402 4.19727ZM6.05621 4.19727C6.05621 4.74154 6.47874 5.13542 7.32379 5.37891C8.18317 5.6224 9.26455 5.74414 10.5679 5.74414C11.8713 5.74414 12.9455 5.6224 13.7906 5.37891C14.6356 5.13542 15.0582 4.74154 15.0582 4.19727C15.0582 3.66732 14.6285 3.2806 13.7691 3.03711C12.9097 2.7793 11.8427 2.65039 10.5679 2.65039C9.30752 2.65039 8.24046 2.7793 7.36676 3.03711C6.49306 3.2806 6.05621 3.66732 6.05621 4.19727ZM25.7167 16.6797C25.7167 15.3333 26.4472 14.2806 27.9081 13.5215C29.3833 12.748 31.274 12.3613 33.58 12.3613C35.9146 12.3613 37.8124 12.748 39.2733 13.5215C40.7343 14.2806 41.4647 15.3333 41.4647 16.6797C41.4647 18.0117 40.7271 19.0573 39.2518 19.8164C37.7766 20.5755 35.886 20.9551 33.58 20.9551C31.2597 20.9551 29.369 20.5755 27.9081 19.8164C26.4472 19.0716 25.7167 18.026 25.7167 16.6797ZM29.0682 16.6797C29.0682 17.8112 30.5722 18.377 33.58 18.377C34.955 18.377 36.0507 18.2337 36.8671 17.9473C37.6978 17.6465 38.1132 17.224 38.1132 16.6797C38.1132 16.1068 37.7121 15.6771 36.91 15.3906C36.108 15.0898 34.9979 14.9395 33.58 14.9395C32.1333 14.9395 31.0162 15.0898 30.2284 15.3906C29.455 15.6914 29.0682 16.1211 29.0682 16.6797ZM33.7733 6.83984V4.04688H37.8339V0.179688H40.9921V12.5762H37.8339V6.83984H33.7733ZM21.9354 10.2988C22.6373 9.92643 23.2889 9.52539 23.8905 9.0957C24.4921 8.65169 25.0793 8.12174 25.6522 7.50586C26.2395 6.88997 26.6978 6.18815 27.0272 5.40039C27.371 4.59831 27.5429 3.75326 27.5429 2.86523V0.695312H30.5936V2.84375C30.5936 5.47917 32.3052 7.73503 35.7284 9.61133L33.9237 11.6523C33.1646 11.3372 32.2981 10.7786 31.3241 9.97656C30.3501 9.17448 29.6197 8.38672 29.1327 7.61328C28.6314 8.54427 27.8651 9.4681 26.8339 10.3848C25.8169 11.2871 24.8072 11.9603 23.8046 12.4043L21.9354 10.2988ZM48.7095 15.1758L51.5239 14.2305C51.9107 14.9323 52.4836 15.5124 53.2427 15.9707C54.0161 16.429 54.8325 16.6582 55.6919 16.6582C56.5656 16.6582 57.2674 16.4434 57.7974 16.0137C58.3417 15.584 58.6138 15.0397 58.6138 14.3809C58.6138 13.6504 58.313 13.0703 57.7114 12.6406C57.1242 12.2109 56.272 11.8099 55.1548 11.4375C53.479 10.8789 52.3547 10.4421 51.7818 10.127C50.1633 9.22461 49.354 7.89974 49.354 6.15234C49.354 4.70573 49.9198 3.53841 51.0513 2.65039C52.1971 1.76237 53.6795 1.31836 55.4986 1.31836C57.0311 1.31836 58.3345 1.67643 59.4087 2.39258C60.4829 3.10872 61.2707 4.02539 61.772 5.14258L59.0864 6.04492C58.1411 4.72721 56.938 4.06836 55.4771 4.06836C54.6034 4.06836 53.9159 4.26172 53.4146 4.64844C52.9133 5.03516 52.6626 5.53646 52.6626 6.15234C52.6626 6.35286 52.6841 6.53906 52.7271 6.71094C52.7844 6.88281 52.8703 7.04036 52.9849 7.18359C53.0995 7.32682 53.2141 7.46289 53.3286 7.5918C53.4432 7.70638 53.6079 7.82096 53.8228 7.93555C54.0376 8.05013 54.2167 8.15039 54.3599 8.23633C54.5174 8.30794 54.7394 8.40104 55.0259 8.51562C55.3267 8.61589 55.5558 8.69466 55.7134 8.75195C55.8853 8.79492 56.1431 8.8737 56.4868 8.98828C56.8306 9.08854 57.0812 9.16732 57.2388 9.22461C57.8976 9.43945 58.4777 9.66862 58.979 9.91211C59.4803 10.1556 59.9673 10.4707 60.44 10.8574C60.9269 11.2441 61.2993 11.724 61.5572 12.2969C61.815 12.8698 61.9439 13.5143 61.9439 14.2305C61.9439 15.8633 61.3423 17.1309 60.1392 18.0332C58.9504 18.9355 57.4393 19.3867 55.606 19.3867C54.0161 19.3867 52.6053 19.0072 51.3736 18.248C50.1561 17.4889 49.2681 16.4648 48.7095 15.1758ZM62.161 4.45508V1.70508H75.159V4.45508H70.2606V19H67.0594V4.45508H62.161ZM75.7199 4.45508V1.70508H88.7179V4.45508H83.8195V19H80.6183V4.45508H75.7199ZM105.222 10.3203V7.33398H109.799V0.179688H112.978V20.9766H109.799V10.3203H105.222ZM94.0506 16.5508C94.7811 15.9922 95.4542 15.362 96.0701 14.6602C96.686 13.9583 97.2661 13.1348 97.8104 12.1895C98.3689 11.2441 98.8058 10.1556 99.1209 8.92383C99.436 7.67773 99.5936 6.35286 99.5936 4.94922V1.4043H102.644V4.82031C102.644 7.24089 103.153 9.45378 104.17 11.459C105.187 13.4642 106.383 14.9967 107.758 16.0566L105.48 17.9473C104.707 17.36 103.876 16.4505 102.988 15.2188C102.114 13.9727 101.499 12.8268 101.14 11.7812C100.797 12.8841 100.152 14.0872 99.2068 15.3906C98.2759 16.6797 97.3592 17.6966 96.4568 18.4414L94.0506 16.5508ZM131.801 20.9766V0.179688H134.959V20.9766H131.801ZM118.094 17.0879V1.70508H121.102V6.51758H125.442V1.70508H128.471V17.0879H118.094ZM121.102 14.3164H125.442V9.33203H121.102V14.3164ZM138.291 18.7422V16.0566H158.465V18.7422H138.291ZM139.301 10.5781C140.175 10.2344 141.034 9.79753 141.879 9.26758C142.739 8.73763 143.548 8.12891 144.307 7.44141C145.081 6.73958 145.704 5.95182 146.176 5.07812C146.649 4.20443 146.885 3.32357 146.885 2.43555V1.46875H149.979V2.41406C149.979 3.28776 150.215 4.16146 150.688 5.03516C151.161 5.89453 151.784 6.66797 152.557 7.35547C153.331 8.04297 154.133 8.65885 154.963 9.20312C155.808 9.73307 156.661 10.1771 157.52 10.5352L155.801 12.791C154.484 12.2467 153.101 11.4232 151.655 10.3203C150.222 9.20312 149.148 8.04297 148.432 6.83984C147.73 8.05729 146.67 9.21745 145.252 10.3203C143.834 11.4232 142.424 12.2611 141.02 12.834L139.301 10.5781Z" fill="black"/>
</g>
</svg>
