<svg width="230" height="21" viewBox="0 0 230 21" fill="none" xmlns="http://www.w3.org/2000/svg">
<g style="mix-blend-mode:darken">
<path d="M2.95125 16.3145V13.7363H18.1192V20.998H15.047V16.3145H2.95125ZM14.961 12.9414V0.179688H18.1192V12.9414H14.961ZM0.544998 6.17383C0.544998 4.58398 1.08927 3.30208 2.17781 2.32812C3.26635 1.33984 4.65568 0.845703 6.34578 0.845703C8.05021 0.845703 9.43953 1.33984 10.5137 2.32812C11.6023 3.30208 12.1466 4.58398 12.1466 6.17383C12.1466 7.79232 11.6023 9.08138 10.5137 10.041C9.43953 11.0007 8.05021 11.4805 6.34578 11.4805C4.64135 11.4805 3.24487 11.0007 2.15633 10.041C1.08211 9.08138 0.544998 7.79232 0.544998 6.17383ZM3.68172 6.17383C3.68172 7.01888 3.92521 7.70638 4.41219 8.23633C4.89916 8.76628 5.5437 9.03125 6.34578 9.03125C7.14786 9.03125 7.78523 8.76628 8.25789 8.23633C8.74487 7.70638 8.98836 7.01888 8.98836 6.17383C8.98836 5.32878 8.74487 4.64128 8.25789 4.11133C7.78523 3.56706 7.14786 3.29492 6.34578 3.29492C5.55802 3.29492 4.91349 3.56706 4.41219 4.11133C3.92521 4.6556 3.68172 5.3431 3.68172 6.17383ZM24.6527 16.7656C24.6527 15.4479 25.3904 14.4167 26.8656 13.6719C28.3409 12.9271 30.2387 12.5547 32.559 12.5547C34.9079 12.5547 36.8129 12.9271 38.2738 13.6719C39.7348 14.4023 40.4652 15.4336 40.4652 16.7656C40.4652 18.0833 39.7276 19.1074 38.2523 19.8379C36.7771 20.5684 34.8793 20.9336 32.559 20.9336C30.2243 20.9336 28.3194 20.5684 26.8441 19.8379C25.3832 19.1074 24.6527 18.0833 24.6527 16.7656ZM28.0258 16.7656C28.0258 17.8542 29.5368 18.3984 32.559 18.3984C33.9483 18.3984 35.0512 18.2624 35.8676 17.9902C36.684 17.7038 37.0922 17.2956 37.0922 16.7656C37.0922 16.2214 36.6911 15.806 35.8891 15.5195C35.087 15.2331 33.977 15.0898 32.559 15.0898C29.5368 15.0898 28.0258 15.6484 28.0258 16.7656ZM31.8715 9.91211V7.33398H36.8559V4.99219H31.8715V2.39258H36.8559V0.179688H40.0141V12.7051H36.8559V9.91211H31.8715ZM22.934 11.1797V1.14648H32.9457V11.1797H22.934ZM25.9418 8.77344H29.9379V3.55273H25.9418V8.77344ZM62.212 20.9766V0.179688H65.3916V8.34375H68.5713V11.373H65.3916V20.9766H62.212ZM47.5166 16.25C48.9919 15.0182 50.2595 13.3783 51.3194 11.3301C52.3936 9.26758 52.9307 6.93294 52.9307 4.32617V1.31836H56.0674V4.26172C56.0674 5.5651 56.2321 6.84701 56.5616 8.10742C56.9053 9.35352 57.3493 10.4635 57.8936 11.4375C58.4379 12.3971 58.9821 13.2279 59.5264 13.9297C60.0707 14.6315 60.6221 15.2402 61.1807 15.7559L58.8604 17.6465C58.1013 16.9447 57.2777 15.9277 56.3897 14.5957C55.5017 13.2637 54.8929 12.0677 54.5635 11.0078C54.2341 12.168 53.6182 13.4284 52.7159 14.7891C51.8135 16.1497 50.8897 17.2741 49.9444 18.1621L47.5166 16.25ZM70.056 18.6992V15.9492H76.888V8.73047H80.0677V15.9492H90.2298V18.6992H70.056ZM72.6127 4.60547V1.83398H88.017C88.017 3.68164 87.9095 5.68685 87.6947 7.84961C87.4798 10.0124 87.2005 11.8958 86.8568 13.5H83.763C84.1068 11.9818 84.3861 10.3848 84.6009 8.70898C84.8158 7.0332 84.9232 5.66536 84.9232 4.60547H72.6127ZM100.891 20.7402V12.2109H103.92V13.9941H112.643V12.2109H115.672V20.7402H100.891ZM103.92 18.2051H112.643V16.293H103.92V18.2051ZM108.797 7.61328V4.86328H112.514V0.179688H115.672V11.6094H112.514V7.61328H108.797ZM97.2168 10.084C97.7467 9.88346 98.2839 9.63997 98.8281 9.35352C99.3724 9.05273 99.9238 8.69466 100.482 8.2793C101.055 7.84961 101.528 7.34115 101.9 6.75391C102.273 6.16667 102.473 5.55794 102.502 4.92773V3.66016H98.4629V1.125H109.764V3.66016H105.832V4.88477C105.904 5.94466 106.441 6.91862 107.443 7.80664C108.446 8.68034 109.499 9.35352 110.602 9.82617L109.012 11.8027C108.181 11.4876 107.293 10.9935 106.348 10.3203C105.402 9.63281 104.686 8.98112 104.199 8.36523C103.655 9.08138 102.867 9.81901 101.836 10.5781C100.805 11.3229 99.8307 11.8457 98.9141 12.1465L97.2168 10.084ZM118.811 14.4883V11.8027H138.985V14.4883H130.52V20.9766H127.362V14.4883H118.811ZM119.735 8.02148C120.68 7.7207 121.575 7.36979 122.42 6.96875C123.265 6.56771 124.082 6.09505 124.869 5.55078C125.657 4.99219 126.28 4.35482 126.739 3.63867C127.211 2.92253 127.448 2.17057 127.448 1.38281V0.394531H130.52V1.38281C130.52 2.14193 130.756 2.87956 131.229 3.5957C131.701 4.31185 132.332 4.94922 133.119 5.50781C133.907 6.05208 134.724 6.5319 135.569 6.94727C136.414 7.36263 137.295 7.7207 138.211 8.02148L136.664 10.2773C135.218 9.81901 133.757 9.14583 132.282 8.25781C130.806 7.36979 129.711 6.44596 128.994 5.48633C128.321 6.46029 127.218 7.41276 125.686 8.34375C124.153 9.27474 122.678 9.92643 121.26 10.2988L119.735 8.02148ZM156.95 11.1797V8.19336H161.161V0.179688H164.341V20.9766H161.161V11.1797H156.95ZM146.573 16.0352C148.134 15.2904 149.495 14.3809 150.655 13.3066C151.83 12.2181 152.66 11.2083 153.147 10.2773H147.347V7.67773H154.179C154.522 6.76107 154.723 5.78711 154.78 4.75586H147.819V2.02734H157.938C157.938 9.71875 154.816 15.0827 148.571 18.1191L146.573 16.0352ZM167.566 14.5312V11.8027H187.74V14.5312H183.013V20.9766H179.919V14.5312H175.493V20.9766H172.4V14.5312H167.566ZM170.402 9.52539V0.910156H185.033V9.52539H170.402ZM173.474 7.05469H181.939V3.38086H173.474V7.05469ZM204.564 20.9766V0.179688H207.722V20.9766H204.564ZM191.48 16.3789V1.76953H194.552V13.6074H195.132C197.539 13.6074 200.181 13.4212 203.06 13.0488V15.6484C200.038 16.1354 196.536 16.3789 192.554 16.3789H191.48ZM226.631 20.9766V0.179688H229.789V20.9766H226.631ZM213.31 17.0234V2.02734H223.73V4.62695H216.34V8.15039H223.408V10.707H216.34V14.4238H216.941C219.648 14.4238 222.348 14.252 225.041 13.9082V16.3145C221.804 16.7871 218.202 17.0234 214.234 17.0234H213.31Z" fill="black"/>
</g>
</svg>
